<svg id="Слой_4" data-name="Слой 4" xmlns="http://www.w3.org/2000/svg" viewBox="0 0 144.11 140.17"><defs><style>.cls-1{fill:#f3d55b;}.cls-2{fill:#f3d85e;}.cls-3{fill:#e29557;}.cls-4{fill:#e9ab4e;}.cls-5{fill:#fbf6d8;}.cls-6{fill:#110505;}.cls-7{fill:#fbf5d5;}.cls-8{fill:#da99b7;}.cls-9{fill:#d995be;}.cls-10{fill:#dda1ab;}.cls-11{fill:#4e4f4e;}.cls-12{fill:#dc9657;}.cls-13{fill:#986a9a;}.cls-14{fill:#c798be;}.cls-15{fill:#8f77ae;}.cls-16{fill:#a8699d;}.cls-17{fill:#e18945;}.cls-18{fill:#cae5f3;}.cls-19{fill:#ba97bc;}.cls-20{fill:#e9e957;}.cls-21{fill:#99699b;}.cls-22{fill:#fdfdfd;}.cls-23{fill:#b87448;}.cls-24{fill:#eaab3c;}.cls-25{fill:#c9e9fa;}.cls-26{fill:#89caa4;}.cls-27{fill:#f2d45b;}.cls-28{fill:#fff;}.cls-29{fill:#816ea5;}.cls-30{fill:#c74767;}.cls-31{fill:#e18abf;}.cls-32{fill:#e9aa4e;}.cls-33{fill:#d48bce;}.cls-34{fill:#b5cdd5;}.cls-35{fill:#e5f6ff;}.cls-36{fill:#efd4dc;}.cls-37{fill:#cd689f;}.cls-38{fill:#d99fc5;}.cls-39{fill:#8d79af;}.cls-40{fill:#e09585;}.cls-41{fill:#cc89af;}.cls-42{fill:#cb7285;}.cls-43{fill:#917eb2;}</style></defs><title>01 Добавьте в корзину</title><path class="cls-1" d="M64.34,91c2-4.35,1.29-11.48-4.43-14.76-3.2-1.84-6.48-2.38-9.87-.67a8.74,8.74,0,0,0-3.59,12.9c2.49,3.89,6,6.22,10.85,6a11.44,11.44,0,0,0,5.56-1.94.57.57,0,0,0,.42-.21A8.19,8.19,0,0,0,64.34,91Z"/><path class="cls-2" d="M66.16,92.32c-.42-.7-1.31-.43-1.84-.9-.5,0-.65.45-.93.73a1.52,1.52,0,0,0,.8,1.79C64.91,93.47,65.38,92.71,66.16,92.32Z"/><path class="cls-3" d="M66.16,92.32c-1.06,0-1.54.74-1.91,1.59-.15.16-.15.26.09.29A2.42,2.42,0,0,0,66.16,92.32Z"/><path class="cls-4" d="M63.49,92.28q0-.11-.09-.09a.13.13,0,0,0-.07,0,2.51,2.51,0,0,0,.91,2.14,1.62,1.62,0,0,0,.1-.18l-.09-.29"/><path class="cls-4" d="M64,89.35a5.39,5.39,0,0,0,.46-3.3,13.42,13.42,0,0,0-2-6,3.82,3.82,0,0,0-.87-1c-.38-.29-.77-.73-1.38-.3a1.11,1.11,0,0,0-.36,1.39c.4,1.51.78,3,1.21,4.54a8,8,0,0,1,.19,4.63c-.21.68-.28,1.53.31,1.84s1.35-.2,1.82-.77C63.6,90.06,63.79,89.69,64,89.35Z"/><path class="cls-5" d="M46.69,87a1,1,0,0,0,1,0,.69.69,0,0,0,.18-.91,8.21,8.21,0,0,1-.5-4.19c0-.42,0-1-.58-1.09s-.75.39-.93.78a5.41,5.41,0,0,0,.33,4.86A2.33,2.33,0,0,0,46.69,87Z"/><path class="cls-6" d="M52.5,86a1.47,1.47,0,0,0,2.12-.34,1.89,1.89,0,0,0,.07-2.62c-.09.88.12,1.58-.39,2.17A2.73,2.73,0,0,1,52.5,86Z"/><path class="cls-7" d="M48.15,80.15a.72.72,0,0,0-.25-1,.7.7,0,0,0-1,.27.68.68,0,0,0,.25,1A.76.76,0,0,0,48.15,80.15Z"/><path class="cls-6" d="M50.51,86.34c.13.81.74,1.21.3,1.76s-1,.05-1.5,0a1,1,0,0,0,1.19.64,1,1,0,0,0,.88-.75C51.54,87.35,51.18,86.92,50.51,86.34Z"/><path class="cls-8" d="M52.29,88.83a1,1,0,0,0,.16-1.25C52,88,52.1,88.3,52.29,88.83Z"/><path class="cls-6" d="M54.75,81.15c.39-.12.61.11.86.23h0c1.46-.2.57-1.06.39-1.89a1.53,1.53,0,0,1,.86,1.36,1,1,0,0,1-.94.93A.92.92,0,0,1,54.75,81.15Z"/><path class="cls-9" d="M57.18,82.6a1,1,0,0,0,.07-1.19C56.77,81.84,57,82.15,57.18,82.6Z"/><path class="cls-10" d="M58.08,81.89c.15-.61.15-.93-.3-1.18C57.53,81.16,57.74,81.43,58.08,81.89Z"/><path class="cls-11" d="M78.42,101.3a2.3,2.3,0,0,0-.29-3.07,8.51,8.51,0,0,0-4.55-2c-1-.27-1.92-.59-2.89-.81-.67-.15-1.08-.3-.81-1.16a1,1,0,0,0-.74-1.41A1,1,0,0,0,68,94.08c.09.48.5.73.72,1.13a2.58,2.58,0,0,1-1.48.69,3.16,3.16,0,0,1-3-1.52c-.29-.71-.91-1.29-.87-2.13l.12,0c.28-.29.55-.58.83-.86,0-.16,0-.31,0-.47a3.11,3.11,0,0,0-1.2,1.16h0c-.09.14-.19.27-.28.4a7.34,7.34,0,0,0,1.3,2.55,3.11,3.11,0,0,0,3.24,1.18h0c2-1.13,3.85-.18,5.74.3.32.08.65.14,1,.21.93.38,1.88.74,2.79,1.16a2.55,2.55,0,0,1,1.38,1.41c.43,1.16-.11,2-1.52,2.25l-.31-.13c-.34-.14-.79-.25-.73-.71.09-.72.69.07,1-.31-.32-.46-.75-.65-1.2-.3s-.34.91,0,1.34A2.11,2.11,0,0,0,78.42,101.3Zm-9.53-6.66c-.3-.29-.58-.63-.41-1.06a.46.46,0,0,1,.73-.23,1,1,0,0,1,.2,1.12C69.33,94.73,69.14,94.8,68.89,94.64Z"/><path class="cls-12" d="M75.76,121.26c.58,0,44.16.1,46.33-.62s1.55-10.46,2.28-10.66,2.48.14,2.38.55S125.52,122.28,125,123s-2.79.93-5.38.93H75.76C75.32,124,74.44,121.33,75.76,121.26Z"/><path class="cls-13" d="M113.36,128.52c0-2.86,2.46-5.55,6.32-5.61,4.5-.07,6.45,1.91,6.45,5.13s-1.79,6.39-6.39,6.33C115.83,134.33,113.38,132.08,113.36,128.52Z"/><path class="cls-13" d="M115,128.55c0-2.15,1.85-4.17,4.75-4.21,3.37,0,4.84,1.43,4.84,3.85s-1.35,4.79-4.8,4.75C116.81,132.91,115,131.22,115,128.55Z"/><path class="cls-14" d="M119.7,124.34c-2.9,0-4.77,2.06-4.75,4.21a4.32,4.32,0,0,0,1,2.81,5.66,5.66,0,0,0,2.78.69c3.45,0,4.8-2.33,4.8-4.75a3.89,3.89,0,0,0-.67-2.33A6.28,6.28,0,0,0,119.7,124.34Z"/><path class="cls-15" d="M118.25,128.61a1.38,1.38,0,0,1,1.48-1.31c1,0,1.51.45,1.51,1.2a1.37,1.37,0,0,1-1.5,1.48A1.34,1.34,0,0,1,118.25,128.61Z"/><path class="cls-13" d="M73.13,128.52c0-2.86,2.47-5.55,6.33-5.61,4.5-.07,6.45,1.91,6.45,5.13s-1.8,6.39-6.39,6.33C75.61,134.33,73.16,132.08,73.13,128.52Z"/><path class="cls-16" d="M74.73,128.55c0-2.15,1.85-4.17,4.75-4.21,3.37,0,4.84,1.43,4.84,3.85S83,133,79.52,132.94C76.59,132.91,74.74,131.22,74.73,128.55Z"/><path class="cls-14" d="M79.48,124.34c-2.9,0-4.77,2.06-4.75,4.21a4.27,4.27,0,0,0,1,2.81,5.66,5.66,0,0,0,2.78.69c3.45,0,4.8-2.33,4.8-4.75a3.89,3.89,0,0,0-.67-2.33A6.28,6.28,0,0,0,79.48,124.34Z"/><path class="cls-15" d="M78,128.61a1.38,1.38,0,0,1,1.48-1.31c1,0,1.51.45,1.51,1.2a1.37,1.37,0,0,1-1.5,1.48A1.34,1.34,0,0,1,78,128.61Z"/><path class="cls-13" d="M57.33,57.67c2-.41,2.34-3.37,1-5.28a3.79,3.79,0,0,0-5.8-1C50.29,53.12,49.84,59.2,57.33,57.67Z"/><path class="cls-12" d="M57.45,51C58,51,69.63,49,70,50s-2.56,1.46-2.56,1.46l-10,1.68S56.88,51.11,57.45,51Z"/><path class="cls-12" d="M68.8,72.89S72.42,67,72.94,67s60.43-3.11,61.57-2.9,9.72,7.55,9.21,8.17-2.9.74-3.63.58-5.92-6.37-6.85-6.37-57.69,2.34-58.37,2.23-3.25,5.94-3.25,5.94Z"/><path class="cls-12" d="M70,50c.52,1.06,5.72,17.51,5.72,17.51s-3,1.87-4,.73S67.48,51.5,67.48,51.5Z"/><path class="cls-17" d="M89.15,28.77a9.24,9.24,0,0,1-3,.66,31.62,31.62,0,0,1-3.23,0,28.48,28.48,0,0,1-5-.82,37.16,37.16,0,0,1-6-2.06,1.63,1.63,0,0,1-.7-.48,24.13,24.13,0,0,1,2.12-2.92c1.5-2,3-4,4.62-5.9,1.27-1.57,2.53-3.15,3.88-4.65a1.92,1.92,0,0,1,.56-.47,8,8,0,0,1,1.88.32l.28.76,0,0A24.93,24.93,0,0,1,86,17.56c1,3.38,2,6.79,2.93,10.19C89.05,28.08,89.09,28.43,89.15,28.77ZM75.41,23.66a.53.53,0,0,0,.55.54.8.8,0,0,0,.82-.42.72.72,0,0,0-.11-.85c-.09-.11-.19-.21-.29-.31a11.46,11.46,0,0,0,1.11-1.88.75.75,0,0,0-.25-1c-.39-.25-.67-.05-.89.25-.84,1.13-1.68,2.26-2.48,3.41a.92.92,0,0,0,0,.87.29.29,0,0,0,.42.13,2,2,0,0,0,1-.72Zm7.75-6.9a1.4,1.4,0,0,0,.27,1.9,10.77,10.77,0,0,0,.15,1.14c.11.48,0,1,.33,1.44a2.4,2.4,0,0,0,.26,1.05c-.21.42,0,.82,0,1.23-.38.13-.66.36-.61.8a.84.84,0,0,0,1,.8,3.62,3.62,0,0,0,.29.84c.22.31.22.8.72.89,0,.1,0,.2,0,.3a.93.93,0,0,0,1.27.74.84.84,0,0,0,.49-1.18c0-.15-.11-.3-.17-.45-.09-.7-.14-1.41-.29-2.09a13.87,13.87,0,0,0-.84-2.5l-.2-.57A10,10,0,0,0,85,17.84c-.07-.41,0-.86-.42-1.16a.83.83,0,0,0-.06-.29c-.29-.34-.46-1-1-.78S83.17,16.33,83.16,16.76Zm-3.34,11a1,1,0,0,0,1-1.28,1.16,1.16,0,0,0-1.27-1,1.1,1.1,0,0,0-.94,1.33C78.69,27.55,79.09,27.87,79.82,27.77Zm.3-8.52a1.26,1.26,0,0,0-1.28-.9A1.15,1.15,0,0,0,78,19.69a1,1,0,0,0,1.21.83A1.11,1.11,0,0,0,80.12,19.25ZM83,14.65a.81.81,0,0,0-1-.73.9.9,0,0,0-.82.95,1.14,1.14,0,0,0,1,.85A.91.91,0,0,0,83,14.65ZM79.38,22.8a.91.91,0,0,0-1.81.19.87.87,0,0,0,1,.73A.9.9,0,0,0,79.38,22.8Zm2.69-1.2c.67-.1,1-.44.82-1a1,1,0,0,0-.92-.67c-.43,0-.78.55-.73,1S81.56,21.73,82.07,21.6Zm-5.77,5c.58-.08.82-.36.76-.89a.72.72,0,0,0-.88-.7.93.93,0,0,0-.79.92A.75.75,0,0,0,76.3,26.64Zm6.2-3.49a1,1,0,0,0-.9-.69,1,1,0,0,0-.75,1,.76.76,0,0,0,.94.7A.87.87,0,0,0,82.5,23.15Zm.4,3.32a.81.81,0,0,0-.72.94.78.78,0,0,0,.91.63.68.68,0,0,0,.63-.86C83.65,26.7,83.48,26.34,82.9,26.47ZM80.2,18a.74.74,0,0,0,.88.65.85.85,0,0,0,.7-.93.76.76,0,0,0-.94-.64C80.32,17.14,80.12,17.44,80.2,18Z"/><path class="cls-11" d="M81.08,60.59a.4.4,0,0,1,.3-.18,14.5,14.5,0,0,0,3.06-.65,7.53,7.53,0,0,1,1.81,2.89,5.72,5.72,0,0,1-.51,4.13c-.6,1-1.27,2.06-1.85,3.12s-.2,1.13.78,1.9l.33-.7c.28-.6.46-.56,1-.95a1.44,1.44,0,0,1,2,.06c.62.66.87,1,.32,1.66a2.8,2.8,0,0,1-2.76,1c-.47-.07-.54.06-.57.47a9.38,9.38,0,0,0,1.16,5A32.68,32.68,0,0,1,89,85.85a9.7,9.7,0,0,1-.31,6.27,7.36,7.36,0,0,1-1.53,2.21.39.39,0,0,0-.06.61A5.87,5.87,0,0,1,88,97.72c.18,1.83.27,3.68.63,5.49A4.71,4.71,0,0,0,89.84,106c.08.07.14.17.07.27s-.22.06-.32,0a2.69,2.69,0,0,1-.85-1.25,20.61,20.61,0,0,1-.89-4.39,22.09,22.09,0,0,0-.68-4.42c0-.13-.1-.27-.16-.4-.39-.82-.39-.82-1.2-.41a2.65,2.65,0,0,1-1.23.35A1.39,1.39,0,0,1,83.27,95a1.11,1.11,0,0,1,1-1.76,2.66,2.66,0,0,1,2,.7c.28.24.42.17.63-.06a7.39,7.39,0,0,0,1.83-6.5,28.18,28.18,0,0,0-2.74-8.18,12.27,12.27,0,0,1-1.5-4.9,8.65,8.65,0,0,0-.89-2.87c-.47-.7-.57-.81-.24-1.52a20,20,0,0,1,1.61-2.62,5.5,5.5,0,0,0-.34-6.72c-.22-.27-.43-.34-.72-.13l-2.6.41ZM86.42,72.3A2.07,2.07,0,0,0,88,71.39c.29-.45,0-.44-.41-.81s-.79-.23-1.17,0-.56.12-.78.59c-.15.3-.46.68-.27.94S86.08,72.32,86.42,72.3Zm-.36,22.19a2.39,2.39,0,0,0-1.76-.76.65.65,0,0,0-.61.34.65.65,0,0,0,.12.68.84.84,0,0,0,.9.39A2.35,2.35,0,0,0,86.06,94.49Z"/><path class="cls-18" d="M84.23,12.47a8,8,0,0,0-1.88-.32,1.74,1.74,0,0,0-.43-.71A5.72,5.72,0,0,1,80.34,8a2.23,2.23,0,0,1,.21-1.07c.24-.56,1-.57,1.55,0a2.07,2.07,0,0,1,.64,1c0,.16,0,.37.24.38s.28-.23.31-.4a1.9,1.9,0,0,1,1.26-1.59c.76-.29,1.17,0,1.31.74a3.34,3.34,0,0,1-.08,1.51c-.11.38,0,.5.4.44.55-.08,1.14-.06,1.4.49s-.11,1.1-.49,1.53a3.77,3.77,0,0,1-2,1.15A7,7,0,0,0,84.23,12.47Z"/><path class="cls-19" d="M81.25,60.81l2.6-.41c.33,1.12.48,2.83.8,3.95a3.19,3.19,0,0,1,.06.54,4.11,4.11,0,0,0-2.57,0,9,9,0,0,1-1.74.53c-.32-.15-.15-.43-.13-.64A15.89,15.89,0,0,1,81.25,60.81Z"/><path class="cls-11" d="M80.4,65.46a9,9,0,0,0,1.74-.53,4.11,4.11,0,0,1,2.57,0c.14.31-.1.41-.31.48a8.3,8.3,0,0,1-3.74.36C80.51,65.71,80.39,65.65,80.4,65.46Z"/><polygon class="cls-20" points="84.54 13.28 84.51 13.23 84.56 13.25 84.54 13.28"/><path class="cls-21" d="M84,57.49a4.45,4.45,0,0,1-2.25-.19,1.85,1.85,0,0,1-1-2.41A5.54,5.54,0,0,1,83,52.39a18.61,18.61,0,0,0,6-5.93,12.08,12.08,0,0,0,1.6-3.36,2.71,2.71,0,0,1,1.18-1.44c.41-.28,1.22.16,1.55.66,1.14,1.69.91,3.45.33,5.24a18,18,0,0,1-3.16,5.63,15.59,15.59,0,0,1-3.15,3A6.82,6.82,0,0,1,84,57.49Z"/><path class="cls-22" d="M65.58,36.88a1.09,1.09,0,0,1-1.32-1.3c.82-2.65,2-5.06,4.53-6.55a1.93,1.93,0,0,1,.38-.19c.28-.08.4.42.62.7a.63.63,0,0,1-.06.79c-.37.55-.55.51-1,1A17.13,17.13,0,0,0,66.45,36,1.3,1.3,0,0,1,65.58,36.88Z"/><path class="cls-6" d="M77.07,43.71a3.32,3.32,0,0,1-3.19-2c0-.11-.1-.25,0-.32s.22.07.29.16a5.45,5.45,0,0,0,1.16,1.09,2.14,2.14,0,0,0,3.31-1A9.12,9.12,0,0,0,79,40.66c0-.13,0-.33.2-.33s.16.2.17.34A2.88,2.88,0,0,1,77.07,43.71Z"/><path class="cls-6" d="M70.92,42.2a1.31,1.31,0,0,1-.77-.33.94.94,0,0,1,1.44-1.2A.92.92,0,0,1,71.42,42,2.81,2.81,0,0,1,70.92,42.2Z"/><path class="cls-6" d="M82,39.28a.88.88,0,0,1-1-.82.89.89,0,0,1,.76-1,.94.94,0,0,1,1.06.79A.91.91,0,0,1,82,39.28Z"/><path class="cls-23" d="M84.2,23.52c0-.41-.24-.81,0-1.23.48.15,1,.49,1.45,0a5.87,5.87,0,0,0,.44-.63,13.87,13.87,0,0,1,.84,2.5c.15.68.2,1.39.29,2.09-1.07-.18-1.23-.13-1.63.59-.5-.09-.5-.58-.72-.89a3.62,3.62,0,0,1-.29-.84c.42-.23.85-.45.68-1S84.69,23.43,84.2,23.52Z"/><path class="cls-24" d="M75.29,23.7a2,2,0,0,1-1,.72.29.29,0,0,1-.42-.13.92.92,0,0,1,0-.87c.8-1.15,1.64-2.28,2.48-3.41.22-.3.5-.5.89-.25a.75.75,0,0,1,.25,1,11.46,11.46,0,0,1-1.11,1.88l-.23.06c-.33-.47-.52,0-.7.15A.57.57,0,0,0,75.29,23.7Z"/><path class="cls-23" d="M85,17.84a10,10,0,0,1,.83,3.26,1.32,1.32,0,0,0-2,.14c-.35-.42-.22-1-.33-1.44a10.77,10.77,0,0,1-.15-1.14C84.49,18.74,84.72,18.63,85,17.84Z"/><path class="cls-25" d="M79.82,27.77c-.73.1-1.13-.22-1.25-1a1.1,1.1,0,0,1,.94-1.33,1.16,1.16,0,0,1,1.27,1A1,1,0,0,1,79.82,27.77Z"/><path class="cls-25" d="M80.12,19.25a1.11,1.11,0,0,1-1,1.27A1,1,0,0,1,78,19.69a1.15,1.15,0,0,1,.88-1.34A1.26,1.26,0,0,1,80.12,19.25Z"/><path class="cls-25" d="M83.91,21.24a1.32,1.32,0,0,1,2-.14l.2.57a5.87,5.87,0,0,1-.44.63c-.48.48-1,.14-1.45,0A2.4,2.4,0,0,1,83.91,21.24Z"/><path class="cls-25" d="M85.56,26.85c.4-.72.56-.77,1.63-.59.06.15.12.3.17.45a.84.84,0,0,1-.49,1.18.93.93,0,0,1-1.27-.74C85.58,27.05,85.57,27,85.56,26.85Z"/><path class="cls-25" d="M83,14.65a.91.91,0,0,1-.83,1.07,1.14,1.14,0,0,1-1-.85.9.9,0,0,1,.82-.95A.81.81,0,0,1,83,14.65Z"/><path class="cls-25" d="M79.38,22.8a.9.9,0,0,1-.85.92.87.87,0,0,1-1-.73.91.91,0,0,1,1.81-.19Z"/><path class="cls-25" d="M82.07,21.6c-.51.13-.77-.11-.83-.65s.3-1,.73-1a1,1,0,0,1,.92.67C83.05,21.16,82.74,21.5,82.07,21.6Z"/><path class="cls-25" d="M76.3,26.64a.75.75,0,0,1-.91-.67.93.93,0,0,1,.79-.92.72.72,0,0,1,.88.7C77.12,26.28,76.88,26.56,76.3,26.64Z"/><path class="cls-25" d="M82.5,23.15a.87.87,0,0,1-.71,1,.76.76,0,0,1-.94-.7,1,1,0,0,1,.75-1A1,1,0,0,1,82.5,23.15Z"/><path class="cls-19" d="M95.27,41.43a23.46,23.46,0,0,0-2.62-8.19,14.62,14.62,0,0,0-3.5-4.47,9.24,9.24,0,0,1-3,.66,31.62,31.62,0,0,1-3.23,0,28.48,28.48,0,0,1-5-.82,37.16,37.16,0,0,1-6-2.06,1.63,1.63,0,0,1-.7-.48,15.24,15.24,0,0,0-8.38,10.27,22.66,22.66,0,0,0,.5,13.34c2,6,2.31,6.21,7.07,8.83a17.16,17.16,0,0,0,10.72,2.06.37.37,0,0,1,.3-.18,14.5,14.5,0,0,0,3.06-.65,16.36,16.36,0,0,0,6.92-4.65A16.92,16.92,0,0,0,95.27,41.43Zm-25.12.44a.94.94,0,0,1,1.44-1.2A.92.92,0,0,1,71.42,42a2.81,2.81,0,0,1-.5.22A1.31,1.31,0,0,1,70.15,41.87Zm-.42-11.54c-.37.55-.55.51-1,1A17.13,17.13,0,0,0,66.45,36a1.3,1.3,0,0,1-.87.87,1.09,1.09,0,0,1-1.32-1.3c.82-2.65,2-5.06,4.53-6.55a1.93,1.93,0,0,1,.38-.19c.28-.08.4.42.62.7A.63.63,0,0,1,69.73,30.33Zm7.34,13.38a3.32,3.32,0,0,1-3.19-2c0-.11-.1-.25,0-.32s.22.07.29.16a5.45,5.45,0,0,0,1.16,1.09,2.14,2.14,0,0,0,3.3-1A7.53,7.53,0,0,0,79,40.66c0-.13,0-.33.2-.33s.16.2.17.34A2.88,2.88,0,0,1,77.07,43.71Zm4.51-1.66-.1.14h0l.1-.14,0-.16,0,0Zm.14-.46,0-.1a.22.22,0,0,1,.07.06s0,.05,0,.05Zm.4-.41s-.05,0-.08,0a.67.67,0,0,1,.09-.14c0-.06.06,0,0,0s0,0,0-.07c.5-.13.8-.59,1.34-.72-.55.13-.85.62-1.38.79A.33.33,0,0,1,82.12,41.18Zm-1.18-2.72a.89.89,0,0,1,.76-1,.94.94,0,0,1,1.06.79.91.91,0,0,1-.81,1A.88.88,0,0,1,80.94,38.46Zm0,6.83c.36-.06.12-.49.12-.75h0C81.08,44.8,81.3,45.23,80.94,45.29Zm12.68,2.27a18,18,0,0,1-3.16,5.63,15.59,15.59,0,0,1-3.15,3A6.82,6.82,0,0,1,84,57.49a4.57,4.57,0,0,1-2.25-.19,1.85,1.85,0,0,1-1-2.41A5.54,5.54,0,0,1,83,52.39a18.61,18.61,0,0,0,6-5.93,12.08,12.08,0,0,0,1.6-3.36,2.71,2.71,0,0,1,1.18-1.44c.41-.28,1.22.16,1.55.66C94.43,44,94.2,45.77,93.62,47.56Z"/><path class="cls-25" d="M84.2,23.52c.49-.09.89,0,1,.56s-.26.81-.68,1a.84.84,0,0,1-1-.8C83.54,23.88,83.82,23.65,84.2,23.52Z"/><path class="cls-25" d="M82.9,26.47c.58-.13.75.23.82.71a.68.68,0,0,1-.63.86.78.78,0,0,1-.91-.63A.81.81,0,0,1,82.9,26.47Z"/><path class="cls-25" d="M80.2,18c-.08-.54.12-.84.64-.92a.76.76,0,0,1,.94.64.85.85,0,0,1-.7.93A.74.74,0,0,1,80.2,18Z"/><path class="cls-23" d="M84.61,16.68a1.45,1.45,0,0,0-1.45.08c0-.43-.18-1,.37-1.15s.73.44,1,.78A.83.83,0,0,1,84.61,16.68Z"/><path class="cls-21" d="M82.17,41.08a.88.88,0,0,1,0,.1l-.08,0a.67.67,0,0,1,.09-.14C82.17,41,82.19,41,82.17,41.08Z"/><path class="cls-26" d="M81.77,41.49a.22.22,0,0,1,.07.06s0,.05,0,.05h-.1Z"/><path class="cls-26" d="M81.58,42.05l0-.16,0,0-.08.14Z"/><path class="cls-26" d="M81.48,42.19l.1-.14h0l-.1.14Z"/><path class="cls-25" d="M84.61,16.68a1.45,1.45,0,0,0-1.45.08,1.4,1.4,0,0,0-.24.71.83.83,0,0,0-.28.53c0,.15.27.28.56.36.08.1.14.2.23.3,1.06.08,1.29,0,1.6-.82C85,17.43,85,17,84.61,16.68Zm-1,.18,0,0Z"/><path class="cls-12" d="M143.88,74a1.34,1.34,0,0,0-.16-1.69c-.75-.84-60.75.6-73.27,1-1.14-6.85-3.32-19-3.76-20.79-.08-.49-.22-.89-.48-1-.72-.21-11.07,1.36-11.07,1.71s-.21,3.56.73,3.67a56,56,0,0,0,7.72-1.19c1,5.55,3.89,18.32,3.89,18.32v.09a2.14,2.14,0,0,0,.14.95c.82,5.87,4.91,34.85,5,35.22s.46.26,2,.24,51.43-.66,52.67.59-.31,10-.51,11.79-.94,3.11-5.28,3.21-45.43,0-46.88,0-1.55,2.79-.2,3,45.84.1,48,0,5.9.52,7.24-5.38c1.19-5.22,1.33-12.55.41-14.66,1.78-3.09,13.17-33.21,13.67-34.59C143.78,74.3,143.84,74.14,143.88,74Zm-16.75,34.28c-1.62-.08-3.91-.13-6.59-.17L122.4,100c3.36,0,6.13-.06,8-.1C128.92,103.65,127.71,106.73,127.13,108.28Zm-10-.2c-2.53,0-5.25,0-8,0l.9-7.93,8.95,0Zm6-11,2.57-11.16c4.55,0,8.21-.11,10.35-.17l-4.57,11.54C129.55,97.2,126.63,97.14,123.09,97.08Zm-3.43,0L110.37,97l1.24-10.91,10.6-.09ZM72.45,86.26l8.55,0c.4,3.47.83,7.24,1.25,10.73-3.64,0-6.53,0-8.2.07C73.53,93.47,73,89.68,72.45,86.26ZM70.87,75.89c1.93,0,5-.1,8.93-.15.19,1.62.49,4.22.84,7.3-4,0-7.11.06-8.66.09C71.47,79.76,71.06,77.09,70.87,75.89Zm23,7.09L83.75,83l-1-7.33,10.87-.15Zm2.9-7.48,12.08-.17L108.14,83H97ZM84.17,86.21l9.8,0,.3,10.77-8.69,0Zm12.9-.07,10.78-.06-1,10.87-9.46,0ZM112,83l.88-7.71,11.88-.18-1.83,8C119.52,83,115.81,83,112,83ZM75.58,108.24c-.21-1.83-.6-4.72-1.08-8.06h8.13c.41,3.32.77,6.12,1,7.78A80.53,80.53,0,0,0,75.58,108.24Zm12-.23H87l-1-7.83h8.37l.22,7.88C91.18,108,88.6,108,87.63,108Zm10.05,0-.22-7.88,9.08,0-.74,7.9ZM137,83.32c-2-.11-5.85-.19-10.64-.25l1.86-8c5.09-.09,9.34-.19,12.1-.29C139.78,76.11,138.52,79.35,137,83.32Z"/><path class="cls-27" d="M143,72.19c-6.73-.56-60.76.74-72.57,1.08-.62.13-1,0-1.06-1-1.14-6.85-3.25-18.6-3.7-20.38,0-.13,0-.26-.08-.38-2.36.14-10.47,1.41-10.47,1.72a11.27,11.27,0,0,0,.21,3.06c1.3-.1,4.92-.87,7.24-1.17a1,1,0,0,1,1,.59c1,5.55,3.89,18.32,3.89,18.32v.09a2.14,2.14,0,0,0,.14.95c.78,5.53,4.44,31.53,4.94,34.86.29,0,52.49-.62,53.7.59h0a3.14,3.14,0,0,1,.9.53l.09.06c1.24,1.24-.31,10-.51,11.79s-.94,3.11-5.28,3.21-45.43,0-46.88,0c-1.07,0-1.41,1.55-1,2.43,3.84.18,45.66.08,47.76,0s5.9.52,7.25-5.38c1.19-5.23,1.32-12.55.4-14.66,1.79-3.1,13.18-33.21,13.67-34.6.07-.18.12-.34.17-.48A1.46,1.46,0,0,0,143,72.19ZM111,82l.82-7.27c4.15-.06,8.18-.12,11.88-.19h0a.71.71,0,0,1,.22,0,.7.7,0,0,1,.71.64h.07l-1.83,8C119.53,83,115.83,83,112,83a.74.74,0,0,1-1-1Zm-1.65,14.42a.74.74,0,0,1,0-.36l1.2-10.55,10.49-.09a.74.74,0,0,1,.31-.07.7.7,0,0,1,.72.66h.07L119.66,97c-2.85,0-6-.06-9.2-.07a.8.8,0,0,1-.36.09.71.71,0,0,1-.73-.69ZM92.56,75a.84.84,0,0,1,.33-.06.73.73,0,0,1,.3.06.5.5,0,0,1,.12.08l.1.07a.54.54,0,0,1,.11.18l0,0a1.05,1.05,0,0,1,.06.24h.06L93.87,83,83.75,83h0a.7.7,0,0,1-1-.58h0l-1-7.33ZM71,82.74h0v0a.58.58,0,0,1,0-.19h0c-.51-3.36-.92-6-1.1-7.23,1.92,0,5-.1,8.87-.16a.82.82,0,0,1,.28,0,.69.69,0,0,1,.71.65h.06c.19,1.62.49,4.22.84,7.3-4,0-7,.06-8.56.08a.73.73,0,0,1-.37.1,1,1,0,0,1-.18,0h0A.5.5,0,0,1,71,82.74ZM73.1,96.43h0c-.52-3.55-1.08-7.34-1.6-10.76l8.53,0a.67.67,0,0,1,.4,0l.12,0a.64.64,0,0,1,.52.79c.39,3.42.82,7.12,1.23,10.55l-8.1.06a.65.65,0,0,1-.29.06h0A.69.69,0,0,1,73.1,96.43Zm2.59,11.8a.8.8,0,0,1-.36.09.71.71,0,0,1-.72-.68h0c-.22-1.83-.61-4.72-1.09-8.06h8.14v0a1.24,1.24,0,0,1,.22,0,.7.7,0,0,1,.71.61h.06c.41,3.32.77,6.12,1,7.78C80.94,108,77.85,108,75.69,108.23Zm8.88-12L83.18,85.62,93,85.57h0a.56.56,0,0,1,.23,0,.7.7,0,0,1,.72.63h0l.3,10.77-8.56,0a.67.67,0,0,1-.41.13A.72.72,0,0,1,84.57,96.28ZM87.63,108H87.1a.75.75,0,0,1-.35.09.72.72,0,0,1-.73-.79l-1-7.72h8.26a.79.79,0,0,1,.32-.07.71.71,0,0,1,.72.66h.06l.22,7.88C91.18,108,88.6,108,87.63,108ZM96,82.38l-.21-7.47,12-.17a.83.83,0,0,1,.29-.06.67.67,0,0,1,.67.47.64.64,0,0,1,.06.18h0v.16s0,.06,0,.09L108.14,83H97a.67.67,0,0,1-.33.07.7.7,0,0,1-.72-.66ZM105.8,108h-8a.74.74,0,0,1-.34.08.7.7,0,0,1-.72-.67h0l-.22-7.88,9.07,0v0a.71.71,0,0,1,.21,0,.69.69,0,0,1,.71.6h.08Zm2-21.8a.82.82,0,0,1,0,.27l-1,10.45-9.35,0a.66.66,0,0,1-.4.13.73.73,0,0,1-.71-.93l-.3-10.58,10.7-.07a.79.79,0,0,1,.23,0,.54.54,0,0,1,.42.15.71.71,0,0,1,.39.49h0Zm11.11,13.94a.86.86,0,0,1-.09.39l-1.74,7.52c-2.53,0-5.25,0-8,0v0a.71.71,0,0,1-.26.06.69.69,0,0,1-.71-.63h0v-.09a.86.86,0,0,1,0-.28l.86-7.55,9,0h0a.92.92,0,0,1,.25,0,.69.69,0,0,1,.71.63h0Zm11.39-.07a.82.82,0,0,1-.21.53c-1.35,3.4-2.44,6.2-3,7.65-1.62-.08-3.91-.13-6.59-.17h0a.78.78,0,0,1-.23,0,.7.7,0,0,1-.71-.64h-.06l0-.21a.86.86,0,0,1,0-.23l1.77-7.64c3.35,0,6.13-.06,8-.11v0a1.3,1.3,0,0,1,.21,0,.7.7,0,0,1,.71.61h.09ZM135.9,86a1,1,0,0,1-.11.29c-1.41,3.56-2.95,7.43-4.35,11-1.87-.08-4.74-.15-8.23-.21a.69.69,0,0,1-.38.12.71.71,0,0,1-.73-.71h0v0a.78.78,0,0,1,.09-.4l2.48-10.74c4.47,0,8.08-.11,10.23-.17a.65.65,0,0,1,.29-.06.7.7,0,0,1,.72.65h.1Zm4.3-11.08a.9.9,0,0,1-.08.21c-.57,1.54-1.73,4.54-3.16,8.17-2-.11-5.79-.19-10.52-.25a.77.77,0,0,1-.38.11.71.71,0,0,1-.72-.7h0v0a.79.79,0,0,1,.1-.4l1.76-7.62c5-.09,9.12-.19,11.88-.29a.73.73,0,0,1,.42-.14.71.71,0,0,1,.73.73h.06C140.26,74.79,140.22,74.87,140.2,74.94Z"/><path class="cls-13" d="M57.33,59.1c1.93-.56,2.66-3.69,1.36-5.6s-3.85-2.34-6.12-.65S51.1,60.9,57.33,59.1Z"/><path class="cls-14" d="M56.3,58.07c1.59-.46,2.2-3,1.12-4.63s-3.17-1.93-5.06-.53S51.15,59.56,56.3,58.07Z"/><path class="cls-28" d="M81.31,73.74c.41-.09,13-.4,13.15-.27s.34.55,0,.65-12.91.27-13.15.27S81,73.83,81.31,73.74Z"/><path class="cls-28" d="M96.06,73.44c.14,0,4.92-.27,5-.24s.28.61,0,.71a47.26,47.26,0,0,1-5,.14C95.85,74,95.75,73.48,96.06,73.44Z"/><path class="cls-28" d="M110.28,83.87A36.26,36.26,0,0,1,117,83.6c0,.18.27.49-.68.67S110.1,85,110.28,83.87Z"/><path class="cls-28" d="M69.26,80.79c.08-.49.82-.27,1.14.54s1.22,9.15,1.22,9.56-1.13.63-1.18,0S69.17,81.38,69.26,80.79Z"/><path class="cls-28" d="M73.87,107.18c.11.32.45,1.32.2,1.49s-1.1.32-1.17-.9S73.73,106.76,73.87,107.18Z"/><path class="cls-16" d="M71.59,134.32c0-2.87,2.47-5.55,6.33-5.61,4.5-.07,6.45,1.91,6.45,5.13s-1.8,6.38-6.39,6.33C74.07,140.12,71.62,137.88,71.59,134.32Z"/><path class="cls-13" d="M73.19,134.35c0-2.15,1.85-4.17,4.75-4.21,3.37-.06,4.84,1.43,4.84,3.85s-1.35,4.79-4.8,4.75C75.05,138.71,73.2,137,73.19,134.35Z"/><path class="cls-14" d="M77.94,130.14c-2.9,0-4.77,2.06-4.75,4.21a4.27,4.27,0,0,0,1,2.81,5.66,5.66,0,0,0,2.78.69c3.45,0,4.8-2.33,4.8-4.75a3.87,3.87,0,0,0-.67-2.33A6.07,6.07,0,0,0,77.94,130.14Z"/><path class="cls-13" d="M76.49,134.41A1.38,1.38,0,0,1,78,133.1c1,0,1.51.44,1.51,1.2a1.38,1.38,0,0,1-1.5,1.48A1.35,1.35,0,0,1,76.49,134.41Z"/><path class="cls-16" d="M116.8,134.32c0-2.87,2.46-5.55,6.33-5.61,4.49-.07,6.44,1.91,6.44,5.13s-1.79,6.38-6.38,6.33C119.28,140.12,116.82,137.88,116.8,134.32Z"/><path class="cls-13" d="M118.39,134.35c0-2.15,1.85-4.17,4.75-4.21,3.38-.06,4.84,1.43,4.84,3.85s-1.35,4.79-4.79,4.75C120.25,138.71,118.41,137,118.39,134.35Z"/><path class="cls-14" d="M123.14,130.14c-2.9,0-4.77,2.06-4.75,4.21a4.32,4.32,0,0,0,1,2.81,5.69,5.69,0,0,0,2.78.69c3.45,0,4.8-2.33,4.8-4.75a3.87,3.87,0,0,0-.67-2.33A6,6,0,0,0,123.14,130.14Z"/><path class="cls-13" d="M121.69,134.41a1.39,1.39,0,0,1,1.48-1.31c1.06,0,1.51.44,1.51,1.2a1.37,1.37,0,0,1-1.49,1.48A1.36,1.36,0,0,1,121.69,134.41Z"/><path class="cls-1" d="M40.67,63.16a20.08,20.08,0,0,1-8.13,2.43c-6.1.52-11.27-1.58-15.72-5.65A24.66,24.66,0,0,1,10,50a16.47,16.47,0,0,1,5-18.62l.79-.63.35-.18h.22a8.77,8.77,0,0,0,3,.27,1.67,1.67,0,0,0,.3.08,24.58,24.58,0,0,0,5.28-.31,23.91,23.91,0,0,0,7.76-2.45,22.83,22.83,0,0,1,9.39,6.48,19.84,19.84,0,0,1,5,13.78,24.79,24.79,0,0,1-2.23,10.45,5.83,5.83,0,0,1-1,1.67,27.67,27.67,0,0,1-3,2.28C40.75,62.88,40.72,63.05,40.67,63.16ZM26.4,53.54l.49-.12a8.57,8.57,0,0,0,6.43-5.51,4.93,4.93,0,0,0-1.57-5.37c-.68-.52-1.08-.52-1.66.06a11,11,0,0,0-.93,1.12A20.43,20.43,0,0,1,24.88,48c-1,.74-2.08,1.38-3.13,2s-1,1.49,0,2.36a3.34,3.34,0,0,0,.65.4A7.24,7.24,0,0,0,26.4,53.54Zm11.53-13a.78.78,0,0,0-1,.2c-.29.3-.12.61.05.91a1.78,1.78,0,0,1,.17.4c.19.54.54.64,1,.38a2,2,0,0,1,.18.4,61.69,61.69,0,0,1,1,7.55,16.84,16.84,0,0,1-1.05,6.45,5.22,5.22,0,0,0-.64,2.44,1.71,1.71,0,0,0,2.07,1.49,6.51,6.51,0,0,0,2.71-1.68A9.76,9.76,0,0,0,45,53.53,23.79,23.79,0,0,0,45,46.79a28.58,28.58,0,0,0-1.11-4.69,15.49,15.49,0,0,0-2.51-4.77A1.83,1.83,0,0,0,38,38.52C37.94,39.19,38.22,39.88,37.93,40.55ZM10.87,48A2.72,2.72,0,0,0,12,49.21c1.2.65,2.19.06,2.14-1.3A4.88,4.88,0,0,0,14,46.59a10.41,10.41,0,0,1,0-6,6.31,6.31,0,0,0,.18-2.45,1.23,1.23,0,0,0-.89-1,1.22,1.22,0,0,0-1.28.33,5.08,5.08,0,0,0-1,1.45,11.66,11.66,0,0,0-1,5.3A7.77,7.77,0,0,0,10.87,48ZM20,55a1.47,1.47,0,0,0,.52-2A1.48,1.48,0,1,0,20,55ZM33,39.8a1.41,1.41,0,0,0-.52,2,1.46,1.46,0,0,0,2,.51A1.45,1.45,0,1,0,33,39.8ZM13.71,36.24a1.41,1.41,0,0,0,1.92.5,1.39,1.39,0,0,0,.5-1.93,1.41,1.41,0,0,0-2-.52A1.43,1.43,0,0,0,13.71,36.24Zm5.92,20.18c-.2-.21-.45-.45-.83-.21a1.57,1.57,0,0,0-.17,1.7c.16.26.37.39.68.2A1.31,1.31,0,0,0,19.63,56.42ZM36,41.89c-.55.35-.59.82-.23,1.4.19.32.4.64.85.42a1.41,1.41,0,0,0,.21-1.52C36.55,41.9,36.24,41.73,36,41.89ZM20.6,56.75c.14.27.28.44.5.47a.28.28,0,0,0,.34-.22,2.45,2.45,0,0,0,0-1.42.55.55,0,0,0-.64-.38c-.33,0-.4.29-.43.54A1.91,1.91,0,0,0,20.6,56.75Zm1.44-1c.13.24.29.43.6.24a1.19,1.19,0,0,0,.29-1.38c-.19-.27-.45-.45-.8-.23S21.7,55.15,22,55.71ZM34.61,44.37c.18.3.36.47.65.28a.92.92,0,0,0,.13-1.15c-.17-.26-.42-.42-.69-.21C34.28,43.62,34.47,44,34.61,44.37Z"/><path class="cls-17" d="M19.75,10.64a1.58,1.58,0,0,1-.89-2.52c.43-.73.43-.74-.43-.86a4.88,4.88,0,0,1-2.05-.57,1.28,1.28,0,0,1-.65-1.44c.2-.58.59-.81,1.36-.76a7.67,7.67,0,0,1,2.47.74c.16.06.36.26.51.07s0-.32-.06-.48c-.33-.87-.66-1.73-1-2.6A2.36,2.36,0,0,1,18.85.74c.22-.75.72-.94,1.4-.52a4.78,4.78,0,0,1,1.64,2.13c.25.49.37.43.68.07.75-.86,1.59-1.09,2.2-.66a2.29,2.29,0,0,1,.8,3l-.42.77A6.44,6.44,0,0,1,27.8,6c.34.18.66.37.68.76s-.33.62-.66.77A6.35,6.35,0,0,1,25,8.24c-.49,0-.54.23-.37.58a6.2,6.2,0,0,1,.49,1.3A.86.86,0,0,1,25,11c-.33-.08-.68.16-1-.1a7,7,0,0,1-1.7-1.64c-.32-.47-.61-.34-.83,0A4.46,4.46,0,0,1,19.75,10.64ZM21,3a2.54,2.54,0,0,0-.2-.33c-.12-.14-.15-.43-.44-.35s-.21.31-.25.52c-.15.8.41,1.27.81,1.81a.34.34,0,0,0,.49.11c.23-.14.17-.32.11-.5A4.63,4.63,0,0,0,21,3Zm2.32,1.2A1.61,1.61,0,0,0,24,3.42a.6.6,0,0,0-.21-.78c-.26-.16-.49,0-.66.21a3.46,3.46,0,0,0-.46.67c-.13.21-.28.46,0,.67A.48.48,0,0,0,23.28,4.19ZM18.55,5.87a1.13,1.13,0,0,0-1.41-.17.26.26,0,0,0-.05.34,1.76,1.76,0,0,0,1.34.33C18.68,6.24,18.7,6.07,18.55,5.87Z"/><path class="cls-11" d="M40.67,63.16c0-.11.08-.28.17-.33a27.67,27.67,0,0,0,3-2.28,2.9,2.9,0,0,0-.37,1.07c-.73.36-1.29,1-2,1.38-.2.06-.36.14-.31.39a8.27,8.27,0,0,0,.64,2.35c1.38,4.6,5.25,6.22,9,4.54.65-.3.64-.32.15-.84a2.82,2.82,0,0,1-1-2.24,1.83,1.83,0,0,1,1.62-1.68,1.65,1.65,0,0,1,1.75,1.33,2.6,2.6,0,0,1-.51,2.45c-.41.51-.2.66.25.89,2.14,1.07,4.38,1.89,6.58,2.82A28.84,28.84,0,0,1,66,76.32a6.64,6.64,0,0,1,2.56,3.3,4,4,0,0,1-1,4.14,4,4,0,0,1-4.41.3,2.15,2.15,0,0,1-1.2-2.13A1.05,1.05,0,0,1,63,80.81a1.62,1.62,0,0,1,1.53,1c0,.12,0,.22-.1.26s-.14,0-.21-.08,0-.08-.06-.11c-.47-.64-1.19-.89-1.61-.56a1.42,1.42,0,0,0,.1,1.75,3.16,3.16,0,0,0,3.2.89A2.62,2.62,0,0,0,68,81.85a4.18,4.18,0,0,0-1.2-3.94,15.15,15.15,0,0,0-5.08-3.28c-2.53-1.12-5.1-2.15-7.65-3.22-.68-.28-1.3-.75-2-1s-1.27.56-2,.77A6.76,6.76,0,0,1,41.74,67,23.16,23.16,0,0,1,40.67,63.16Zm10.25,5.25a3.42,3.42,0,0,0,.72.82c.15.14.28.21.47,0a2.42,2.42,0,0,0,.53-2.46,1,1,0,0,0-1.46-.47C50.5,66.73,50.39,67.51,50.92,68.41Z"/><path class="cls-18" d="M32.68,28.17a23.91,23.91,0,0,1-7.76,2.45,24.58,24.58,0,0,1-5.28.31,1.67,1.67,0,0,1-.3-.08c.05-.27.29-.34.49-.45.74-.43,1.51-.82,2.25-1.25q2.3-1.3,4.62-2.57a2.33,2.33,0,0,0,1.09,1.08,1.85,1.85,0,0,0,1.93-.39c.46-.3.27-.73.2-1.14a5,5,0,0,1-.21-1.22c.46-.16.76-.81,1.39-.46C31.68,25.67,32.21,26.91,32.68,28.17Z"/><path class="cls-18" d="M16.49,27.36a6.8,6.8,0,0,0,1.36-.65c2.2-1.28,4.4-2.54,6.6-3.8a6.68,6.68,0,0,1,.87-.37L26,25,19,28.91l-.12,0a11.08,11.08,0,0,0-2.59,1.63H16.1L16,30.46A14.17,14.17,0,0,1,16.49,27.36Z"/><path class="cls-1" d="M41.49,63c.7-.4,1.26-1,2-1.38a19.56,19.56,0,0,0,2.9,1.53c.54.23.64.56.35,1a7,7,0,0,1-3.06,2.74c-.81.38-1.32-.06-1.56-1.22C41.9,64.81,41.7,63.91,41.49,63Z"/><path class="cls-18" d="M19.75,10.64a4.46,4.46,0,0,0,1.66-1.39c.22-.33.51-.46.83,0a7,7,0,0,0,1.7,1.64c.35.26.7,0,1,.1a2.17,2.17,0,0,1,.35.88c-.15.18-.3.37-.59.33-.24-.45-.6-.35-.95-.17a.57.57,0,0,0-.26.88l-.29.22-1.81.92-.06-.13c.31-.66-.16-1.18-.37-1.73-.1-.27-.27,0-.35.11a7.39,7.39,0,0,0-.85,2.51,1.43,1.43,0,0,1-.14.2c-.28.08-.57.36-.82,0Z"/><path class="cls-26" d="M3.19,27.22a8.65,8.65,0,0,1-1.36-5.3c0-.4-.07-1,.48-1s.48.59.56,1a16.19,16.19,0,0,0,1.56,4.32c.54,1,1.11,2,1.67,3.05.16.28.27.56,0,.8s-.54,0-.77-.17A12,12,0,0,1,3.19,27.22Z"/><path class="cls-26" d="M8.81,27.51A16.83,16.83,0,0,1,6.9,21.28a28.86,28.86,0,0,1-.22-3.22c0-.29,0-.57.4-.59s.44.21.52.51c.78,3.07,1.31,6.19,2,9.29.05.22.14.5-.17.59S8.89,27.62,8.81,27.51Z"/><path class="cls-18" d="M29.27,20.3a8.29,8.29,0,0,1,1,2.35l-1.09.65-.07-.11-.95-2.32A2.73,2.73,0,0,1,29.27,20.3Z"/><path class="cls-18" d="M28.07,17.54c.18.41.36.81.53,1.22l-1.06.58c-.48-.74-.7-1.6-1.12-2.37a3,3,0,0,1,1.08-.53l.46.86C28,17.4,27.89,17.53,28.07,17.54Z"/><path class="cls-29" d="M9.22,56a1.74,1.74,0,0,0-1.58-.33.92.92,0,0,0-.32,1.11,1.13,1.13,0,0,0,1.55.36A.83.83,0,0,0,9.22,56Z"/><path class="cls-26" d="M8.18,67.31A1.75,1.75,0,0,0,6.6,67a.92.92,0,0,0-.32,1.11,1.12,1.12,0,0,0,1.54.36A.85.85,0,0,0,8.18,67.31Z"/><path class="cls-30" d="M28.64,77.27a1.7,1.7,0,0,0-1.57-.33.92.92,0,0,0-.33,1.11,1.13,1.13,0,0,0,1.55.35A.82.82,0,0,0,28.64,77.27Z"/><path class="cls-26" d="M57.79,30.31A1.72,1.72,0,0,0,56.22,30a.93.93,0,0,0-.33,1.11,1.12,1.12,0,0,0,1.55.36A.83.83,0,0,0,57.79,30.31Z"/><path class="cls-23" d="M23.48,14.29c-.16.05-.29.25-.5.12.44-.35.63-.75.25-1.27l.29-.22,1.21-.71c.29,0,.44-.15.59-.33.1,0,.11.13.09.23,0,.26-.53.14-.43.49.14.51.46.42.79.18.05.11.1.21.14.32a1.69,1.69,0,0,0-.74.32A8,8,0,0,0,23.48,14.29Z"/><path class="cls-17" d="M29.18,23.3l1.09-.65a8.63,8.63,0,0,1,.83,1.8c-.63-.35-.93.3-1.39.46l-.08-.11Z"/><path class="cls-17" d="M27.54,19.34l1.06-.58a6.59,6.59,0,0,1,.67,1.54,2.73,2.73,0,0,0-1.11.57l0-.05a10.76,10.76,0,0,0-.66-1.37Z"/><path class="cls-18" d="M25.17,13.42a1.69,1.69,0,0,1,.74-.32l.8,1.54c0,.6-.55.61-.85.9l-.07-.12A9.27,9.27,0,0,0,25.17,13.42Z"/><path class="cls-17" d="M25.86,15.54c.3-.29.89-.3.85-.9a6.89,6.89,0,0,1,.79,1.8,3,3,0,0,0-1.08.53l-.07-.11A5.25,5.25,0,0,0,25.86,15.54Z"/><path class="cls-17" d="M19.38,16.33l-.78.44-.12-.17c.12-.55.23-1.09.35-1.63.25.41.54.13.82,0,.14.36-.1.74,0,1.1Z"/><path class="cls-17" d="M25.77,12.78c-.33.24-.65.33-.79-.18-.1-.35.4-.23.43-.49Z"/><path class="cls-31" d="M28.07,17.54c-.18,0-.11-.14-.11-.24C28.12,17.33,28.15,17.41,28.07,17.54Z"/><path class="cls-18" d="M23.48,14.29c-.16.05-.29.25-.5.12L22,15l-.5.37a.78.78,0,0,0-.14.53,1.1,1.1,0,0,1-.87,1.22c-.58.13-.84-.34-1.07-.78l-.78.44h0l-.12-.17a.36.36,0,0,0,0,.41c-.07.3-.14.6-.2.9a.33.33,0,0,0-.1.48,2,2,0,0,1-.05.24c-.2.12-.27.25-.09.44h0a2.44,2.44,0,0,1,0,.27l.91-.34A1.93,1.93,0,0,1,20,18.49c1.23-.79,2.56-1.37,3.85-2l.08-.11A9.07,9.07,0,0,1,23.48,14.29Z"/><path class="cls-31" d="M16,30.46l.14.12-.35.18Z"/><path class="cls-32" d="M37.93,40.55c.29-.67,0-1.36,0-2a1.83,1.83,0,0,1,3.35-1.19,15.49,15.49,0,0,1,2.51,4.77A28.58,28.58,0,0,1,45,46.79,23.79,23.79,0,0,1,45,53.53a9.76,9.76,0,0,1-2.57,5.56,6.51,6.51,0,0,1-2.71,1.68,1.71,1.71,0,0,1-2.07-1.49,5.22,5.22,0,0,1,.64-2.44,16.84,16.84,0,0,0,1.05-6.45,61.69,61.69,0,0,0-1-7.55,2,2,0,0,0-.18-.4A2.14,2.14,0,0,0,37.93,40.55Z"/><path class="cls-6" d="M26.4,53.54a7.24,7.24,0,0,1-4-.73,3.34,3.34,0,0,1-.65-.4c-1-.87-1-1.72,0-2.36s2.12-1.31,3.13-2a20.43,20.43,0,0,0,4.28-4.28,11,11,0,0,1,.93-1.12c.58-.58,1-.58,1.66-.06a4.93,4.93,0,0,1,1.57,5.37A7.11,7.11,0,0,0,26.4,53.54Z"/><path class="cls-7" d="M10.87,48A7.77,7.77,0,0,1,10,44.19a11.66,11.66,0,0,1,1-5.3,5.08,5.08,0,0,1,1-1.45,1.22,1.22,0,0,1,1.28-.33,1.23,1.23,0,0,1,.89,1A6.31,6.31,0,0,1,14,40.61a10.41,10.41,0,0,0,0,6,4.88,4.88,0,0,1,.17,1.32c0,1.36-.94,2-2.14,1.3A2.72,2.72,0,0,1,10.87,48Z"/><path class="cls-17" d="M16.32,30.58A11.08,11.08,0,0,1,18.91,29l.12,0L26,25l0,.05a6.43,6.43,0,0,0,.69,1.45l0,0q-2.32,1.26-4.62,2.57c-.74.43-1.51.82-2.25,1.25-.2.11-.44.18-.49.45A8.77,8.77,0,0,1,16.32,30.58Z"/><path class="cls-31" d="M26.4,53.54a7.11,7.11,0,0,1,6.92-5.63,8.57,8.57,0,0,1-6.43,5.51Z"/><path class="cls-6" d="M20,55a1.46,1.46,0,1,1,.52-2A1.49,1.49,0,0,1,20,55Z"/><path class="cls-6" d="M33,39.8a1.45,1.45,0,1,1,1.51,2.48,1.46,1.46,0,0,1-2-.51A1.41,1.41,0,0,1,33,39.8Z"/><path class="cls-7" d="M13.71,36.24a1.43,1.43,0,0,1,.45-2,1.41,1.41,0,0,1,2,.52,1.39,1.39,0,0,1-.5,1.93A1.41,1.41,0,0,1,13.71,36.24Z"/><path class="cls-33" d="M37.93,40.55a2.14,2.14,0,0,1,.22,1.89c-.48.26-.83.16-1-.38a1.78,1.78,0,0,0-.17-.4c-.17-.3-.34-.61-.05-.91A.78.78,0,0,1,37.93,40.55Z"/><path class="cls-33" d="M19.63,56.42a1.31,1.31,0,0,1-.32,1.69c-.31.19-.52.06-.68-.2a1.57,1.57,0,0,1,.17-1.7C19.18,56,19.43,56.21,19.63,56.42Z"/><path class="cls-33" d="M36,41.89c.28-.16.59,0,.83.3a1.41,1.41,0,0,1-.21,1.52c-.45.22-.66-.1-.85-.42C35.37,42.71,35.41,42.24,36,41.89Z"/><path class="cls-33" d="M20.6,56.75a1.91,1.91,0,0,1-.18-1c0-.25.1-.5.43-.54a.55.55,0,0,1,.64.38,2.45,2.45,0,0,1,0,1.42.28.28,0,0,1-.34.22C20.88,57.19,20.74,57,20.6,56.75Z"/><path class="cls-33" d="M22,55.71c-.34-.56-.3-1.13.09-1.37s.61,0,.8.23A1.19,1.19,0,0,1,22.64,56C22.33,56.14,22.17,56,22,55.71Z"/><path class="cls-33" d="M34.61,44.37c-.14-.33-.33-.75.09-1.08.27-.21.52,0,.69.21a.92.92,0,0,1-.13,1.15C35,44.84,34.79,44.67,34.61,44.37Z"/><path class="cls-24" d="M21,3a4.63,4.63,0,0,1,.52,1.26c.06.18.12.36-.11.5a.34.34,0,0,1-.49-.11c-.4-.54-1-1-.81-1.81,0-.21,0-.44.25-.52s.32.21.44.35A2.54,2.54,0,0,1,21,3Z"/><path class="cls-24" d="M23.28,4.19a.48.48,0,0,1-.63,0c-.26-.21-.11-.46,0-.67a3.46,3.46,0,0,1,.46-.67c.17-.17.4-.37.66-.21a.6.6,0,0,1,.21.78A1.61,1.61,0,0,1,23.28,4.19Z"/><path class="cls-24" d="M18.55,5.87c.15.2.13.37-.12.5A1.76,1.76,0,0,1,17.09,6a.26.26,0,0,1,.05-.34A1.13,1.13,0,0,1,18.55,5.87Z"/><path class="cls-34" d="M29.63,24.8l.08.11a5,5,0,0,0,.21,1.22c.07.41.26.84-.2,1.14a1.85,1.85,0,0,1-1.93.39,2.33,2.33,0,0,1-1.09-1.08l0,0A32.48,32.48,0,0,0,29.63,24.8Z"/><path class="cls-18" d="M24.93,20.68c-2.15,1.24-4.36,2.37-6.56,3.53-.29.16-.58.34-.87.51s-.53.06-.47-.29a10.51,10.51,0,0,1,.57-2.58c.29-.66,1.11-.92,1.81-1.14a4.41,4.41,0,0,0,1-.51,25.35,25.35,0,0,1,2.65-1.46c.42-.2.81-.46,1.24-.63C24.5,19,24.72,19.82,24.93,20.68Z"/><path class="cls-34" d="M28.16,20.87c.32.77.63,1.54.95,2.32L26,25.09,26,25l-.63-2.5a.36.36,0,0,1,.07-.1l2.74-1.62Z"/><path class="cls-34" d="M24.93,20.68c-.21-.86-.43-1.71-.64-2.57a.33.33,0,0,1,.06-.1,17.25,17.25,0,0,0,2-1.15l.07.11c.42.77.64,1.63,1.12,2.37l-.07.11A28.15,28.15,0,0,0,25,20.79Z"/><path class="cls-23" d="M25,20.79a28.15,28.15,0,0,1,2.48-1.34,10.76,10.76,0,0,1,.66,1.37l-2.74,1.62A15.26,15.26,0,0,1,25,20.79Z"/><path class="cls-23" d="M26.35,16.86a17.25,17.25,0,0,1-2,1.15c-.16-.52-.32-1-.47-1.55l.08-.11,1.83-.93.07.12A5.25,5.25,0,0,1,26.35,16.86Z"/><path class="cls-17" d="M25,20.79l-.06-.11c-2.15,1.24-4.36,2.37-6.56,3.53-.29.16-.58.34-.87.51s-.53.06-.47-.29a10.51,10.51,0,0,1,.57-2.58c.29-.66,1.11-.92,1.81-1.14a4.41,4.41,0,0,0,1-.51,25.35,25.35,0,0,1,2.65-1.46c.42-.2.81-.46,1.24-.63a.33.33,0,0,1,.06-.1c-.16-.52-.32-1-.47-1.55-1.29.66-2.62,1.24-3.85,2h0a1.93,1.93,0,0,0-1.11.51l-.91.34a1.17,1.17,0,0,0-.16.34c-.23,1.5-.83,2.92-1,4.44-.11,1.08-.24,2.16-.37,3.24a6.8,6.8,0,0,0,1.36-.65c2.2-1.28,4.4-2.54,6.6-3.8a6.68,6.68,0,0,1,.87-.37.36.36,0,0,1,.07-.1A15.26,15.26,0,0,1,25,20.79Z"/><path class="cls-35" d="M19.79,14.82a7.39,7.39,0,0,1,.85-2.51c.08-.13.25-.38.35-.11.21.55.68,1.07.37,1.73Z"/><path class="cls-17" d="M23.23,13.14c.38.52.19.92-.25,1.27L22,15c-.15-.17-.3,0-.45,0-.25-.29,0-.64-.09-.94Z"/><path class="cls-36" d="M21.42,14.06c.14.3-.16.65.09.94l-.19.18a7.84,7.84,0,0,1-1.64.94c-.13-.36.11-.74,0-1.1a1.43,1.43,0,0,0,.14-.2l1.57-.89Z"/><path class="cls-34" d="M24.73,12.21l-1.21.71a.57.57,0,0,1,.26-.88C24.13,11.86,24.49,11.76,24.73,12.21Z"/><path class="cls-34" d="M25.79,15.42,24,16.35a9.07,9.07,0,0,1-.48-2.06,8,8,0,0,1,1.69-.87A9.27,9.27,0,0,1,25.79,15.42Z"/><path class="cls-35" d="M19.68,16.12a7.84,7.84,0,0,0,1.64-.94l.14.18a.78.78,0,0,0-.14.53,1.1,1.1,0,0,1-.87,1.22c-.58.13-.84-.34-1.07-.78Z"/><path class="cls-17" d="M21.46,15.36l-.14-.18.19-.18c.15,0,.3-.18.45,0Z"/><path class="cls-23" d="M26,25.09l3.14-1.9.07.11.45,1.5a32.48,32.48,0,0,1-3,1.74A6.43,6.43,0,0,1,26,25.09Z"/><path class="cls-30" d="M2.31,42.37A1.23,1.23,0,0,0,.61,42a1.44,1.44,0,0,0-.36,2,1.18,1.18,0,0,0,1.7.38A1.51,1.51,0,0,0,2.31,42.37Z"/><path class="cls-26" d="M2,48.88a1.14,1.14,0,0,0-1-.66c-.51,0-.53.46-.62.82a3.94,3.94,0,0,0-.14.49.91.91,0,0,0,.53,1,.91.91,0,0,0,1.15-.18C2.42,49.9,2.22,49.38,2,48.88Z"/><path class="cls-37" d="M84,41.37a2.66,2.66,0,0,1-.3,1.73c-.38.12-.57-.05-.57-.58,0-.13,0-.26,0-.39,0-.31-.08-.62.18-.82S83.75,41.08,84,41.37Z"/><path class="cls-37" d="M82.32,42c.21-.12.4.07.52.36a1.65,1.65,0,0,1-.35,1.35c-.33.17-.42-.15-.51-.45A1,1,0,0,1,82.32,42Z"/><path class="cls-37" d="M81.1,44.1c0-.32-.13-.72.2-1s.35,0,.43.26a1.07,1.07,0,0,1-.24,1C81.27,44.56,81.18,44.39,81.1,44.1Z"/><path class="cls-37" d="M73.26,46.85a2.66,2.66,0,0,1-.3,1.73c-.37.12-.57,0-.56-.58a2.55,2.55,0,0,0,0-.39c0-.31-.08-.62.18-.82S73.06,46.56,73.26,46.85Z"/><path class="cls-37" d="M71.64,47.51c.2-.12.39.06.51.36a1.66,1.66,0,0,1-.35,1.35c-.32.17-.42-.15-.51-.46A1,1,0,0,1,71.64,47.51Z"/><path class="cls-37" d="M70.41,49.58c0-.32-.12-.72.21-1s.35,0,.43.26a1.1,1.1,0,0,1-.24,1C70.59,50,70.49,49.87,70.41,49.58Z"/><path class="cls-25" d="M72.26,27.26a.93.93,0,0,1-.63,1.11.89.89,0,0,1-1.12-.51.93.93,0,0,1,1.75-.6Z"/><path class="cls-38" d="M19.8,75.34c-.43-1.49.25-2.22,1.89-2.18q.78,0,1.56,0a1.1,1.1,0,0,0,1.13-.74c.09-.24,0-.67.49-.48a.63.63,0,0,1,.26.85,1.41,1.41,0,0,1-1.19,1.06c-.64.07-1.29.16-1.93.17C21,74,20.15,74.17,19.8,75.34Z"/><path class="cls-30" d="M53.26,25.79c-1.64-2-1.71-3.25-.33-3.8.44-.17.87-.37,1.29-.57s.59-.65.29-1.47c-.13-.37-.55-1,0-.85s.78.63,1,1.11c.31.85.42,1.62-.06,1.95a10.54,10.54,0,0,1-1.44.95C53.15,23.48,52.53,24,53.26,25.79Z"/><path class="cls-39" d="M5,73.74c-1.56,1.15-3.11,1.78-4.25,3-.11.12-.26.22-.41.09s-.08-.45,0-.64A5.43,5.43,0,0,1,5,73.74Z"/><path class="cls-40" d="M12.46,70.86a.87.87,0,0,1,.91.8.85.85,0,0,1-.77,1,.81.81,0,0,1-.91-.77C11.61,71.36,12,71,12.46,70.86Z"/><path class="cls-41" d="M16.8,72.17a.28.28,0,0,1,.31.29,2.32,2.32,0,0,1-.74,2,.37.37,0,0,1-.61-.06A3.84,3.84,0,0,1,16.8,72.17Z"/><path class="cls-42" d="M11,61.4a.61.61,0,0,1,.54-.66.55.55,0,0,1,.68.49.57.57,0,0,1-.52.67A.64.64,0,0,1,11,61.4Z"/><path class="cls-43" d="M9.05,74c0,.36-.08.57-.37.58A.57.57,0,0,1,8,74.05c0-.26.2-.41.46-.43A.58.58,0,0,1,9.05,74Z"/></svg>