<svg xmlns="http://www.w3.org/2000/svg" viewBox="0 0 156.51 100"><defs><style>.cls-1{fill:#ba97bc;}.cls-2{fill:#4e4f4e;}.cls-3{fill:#cf6179;}.cls-4{fill:#816ea5;}.cls-5{fill:#c7708f;}.cls-6{fill:#7cbd95;}.cls-7{fill:#e18abf;}.cls-8{fill:#99699b;}.cls-9{fill:#110505;}.cls-10{fill:#fdfdfd;}.cls-11{fill:#cd689f;}.cls-12{fill:#c74767;}.cls-13{fill:#89caa4;}.cls-14{fill:#e18945;}.cls-15{fill:#cae5f3;}.cls-16{fill:#b87448;}.cls-17{fill:#eaab3c;}.cls-18{fill:#c9e9fa;}.cls-19{fill:#f3f2f4;}.cls-20{fill:#f3d55b;}.cls-21{fill:#e9aa4e;}.cls-22{fill:#fbf5d5;}.cls-23{fill:#d48bce;}.cls-24{fill:#c798be;}.cls-25{fill:#986a9a;}.cls-26{opacity:0.8;}.cls-27{fill:#f68624;}.cls-28{fill:#dc9657;}.cls-29{fill:#f2d45b;}.cls-30{fill:#8fc9c1;}.cls-31{fill:#8d77b2;}.cls-32{fill:#aed7e8;}.cls-33{fill:#92cac2;}.cls-34{fill:#72b3e4;}.cls-35{fill:#c8687c;}.cls-36{fill:#d5bed6;}.cls-37{fill:#8874ab;}.cls-38{fill:#d26d83;}.cls-39{fill:#a08fbe;}.cls-40{fill:#e4a395;}</style></defs><title>02 Оформите заказ</title><g id="Слой_4" data-name="Слой 4"><path class="cls-1" d="M52.67,59a21.09,21.09,0,0,1-8.41,2.51C38,62,32.6,59.83,28,55.62a25.52,25.52,0,0,1-7-10.27,17,17,0,0,1,5.12-19.27l.83-.65.36-.18h.23a9.1,9.1,0,0,0,3.12.28,1.55,1.55,0,0,0,.31.07,24.37,24.37,0,0,0,5.46-.32,24.44,24.44,0,0,0,8-2.53,23.59,23.59,0,0,1,9.72,6.71,20.56,20.56,0,0,1,5.19,14.25A25.73,25.73,0,0,1,57,54.53a6.18,6.18,0,0,1-1,1.72,27.46,27.46,0,0,1-3.12,2.36C52.75,58.66,52.72,58.84,52.67,59ZM37.91,49l.5-.13a8.87,8.87,0,0,0,6.66-5.69,5.1,5.1,0,0,0-1.63-5.56c-.7-.53-1.12-.54-1.72.07a10.63,10.63,0,0,0-1,1.15,20.91,20.91,0,0,1-4.43,4.43c-1,.77-2.15,1.42-3.23,2.12s-1,1.54,0,2.44a3.7,3.7,0,0,0,.66.42A7.59,7.59,0,0,0,37.91,49ZM49.83,35.56a.79.79,0,0,0-1,.2c-.3.32-.13.64,0,1a3,3,0,0,1,.18.41c.19.56.55.67,1.05.4a1.65,1.65,0,0,1,.18.41,63.76,63.76,0,0,1,1.07,7.81,17.57,17.57,0,0,1-1.09,6.67,5.35,5.35,0,0,0-.66,2.53,1.76,1.76,0,0,0,2.13,1.54,6.61,6.61,0,0,0,2.8-1.74A10,10,0,0,0,57.16,49a24.31,24.31,0,0,0-.07-7A29.6,29.6,0,0,0,56,37.16a16,16,0,0,0-2.6-4.93,1.89,1.89,0,0,0-3.47,1.23C49.85,34.16,50.13,34.87,49.83,35.56Zm-28,7.74A2.82,2.82,0,0,0,23,44.52c1.25.67,2.27.06,2.22-1.35A5.18,5.18,0,0,0,25,41.81a10.87,10.87,0,0,1,0-6.19,6.16,6.16,0,0,0,.19-2.53A1.27,1.27,0,0,0,24.33,32a1.25,1.25,0,0,0-1.33.34,5.34,5.34,0,0,0-1,1.5,12.27,12.27,0,0,0-1,5.48A8.08,8.08,0,0,0,21.84,43.3Zm9.42,7.19a1.52,1.52,0,0,0,.54-2.06A1.54,1.54,0,0,0,29.15,50,1.53,1.53,0,0,0,31.26,50.49Zm13.49-15.7a1.45,1.45,0,0,0-.54,2,1.52,1.52,0,0,0,2.1.53,1.5,1.5,0,1,0-1.56-2.56Zm-20-3.69a1.47,1.47,0,0,0,2,.51,1.44,1.44,0,0,0,.51-2,1.47,1.47,0,0,0-2-.54A1.5,1.5,0,0,0,24.77,31.1ZM30.9,52c-.21-.22-.46-.47-.86-.22a1.61,1.61,0,0,0-.17,1.76c.16.27.38.41.7.21A1.35,1.35,0,0,0,30.9,52ZM47.8,37c-.57.35-.62.84-.24,1.45.2.33.41.66.87.43a1.46,1.46,0,0,0,.23-1.57C48.41,37,48.08,36.78,47.8,37ZM31.9,52.33c.15.27.3.44.52.48a.3.3,0,0,0,.36-.23,2.5,2.5,0,0,0,0-1.46.57.57,0,0,0-.66-.4c-.34,0-.41.3-.45.56A2.17,2.17,0,0,0,31.9,52.33Zm1.49-1.09c.14.25.3.45.62.25a1.24,1.24,0,0,0,.31-1.42.57.57,0,0,0-.84-.24C33.09,50.08,33.05,50.67,33.39,51.24Zm13-11.73c.19.32.37.48.67.3a1,1,0,0,0,.14-1.2c-.18-.26-.44-.43-.71-.22C46.05,38.74,46.25,39.17,46.4,39.51Z"/><path class="cls-2" d="M52.67,59c0-.12.08-.3.17-.35A27.46,27.46,0,0,0,56,56.25a3.39,3.39,0,0,0-.39,1.12c-.75.37-1.33,1-2.06,1.42-.2.06-.37.14-.31.41a8.68,8.68,0,0,0,.66,2.43c1.42,4.76,5.43,6.43,9.28,4.69.68-.31.66-.33.15-.87a3,3,0,0,1-1-2.31,1.91,1.91,0,0,1,1.67-1.75,1.7,1.7,0,0,1,1.81,1.38,2.65,2.65,0,0,1-.52,2.53c-.43.53-.21.69.26.93,2.21,1.1,4.53,2,6.8,2.91a30.21,30.21,0,0,1,6.54,3.43A6.87,6.87,0,0,1,81.48,76a4.18,4.18,0,0,1-1,4.29,4.1,4.1,0,0,1-4.56.31,2.23,2.23,0,0,1-1.25-2.21,1.11,1.11,0,0,1,1.16-1.16,1.66,1.66,0,0,1,1.58,1.07c0,.13,0,.23-.1.27s-.15,0-.21-.09,0-.07-.07-.11c-.48-.66-1.23-.92-1.66-.57a1.45,1.45,0,0,0,.1,1.8,3.25,3.25,0,0,0,3.31.92A2.73,2.73,0,0,0,81,78.29a4.31,4.31,0,0,0-1.25-4.08,15.55,15.55,0,0,0-5.25-3.39c-2.62-1.16-5.28-2.22-7.92-3.33-.7-.29-1.34-.78-2-1s-1.32.58-2,.8a7,7,0,0,1-8.7-4.37A22.85,22.85,0,0,1,52.67,59Zm10.61,5.42a3.26,3.26,0,0,0,.74.85c.15.15.28.22.49,0a2.52,2.52,0,0,0,.54-2.54,1,1,0,0,0-1.51-.48C62.83,62.65,62.72,63.45,63.28,64.38Z"/><path class="cls-1" d="M53.51,58.79c.73-.41,1.31-1,2.06-1.42a22.51,22.51,0,0,0,3,1.57c.56.24.67.58.37,1.08a7.38,7.38,0,0,1-3.17,2.84c-.83.39-1.36-.07-1.61-1.27C54,60.66,53.73,59.72,53.51,58.79Z"/><path class="cls-3" d="M13.89,21.77a9,9,0,0,1-1.41-5.49c0-.41-.06-1,.5-1.06s.5.61.58,1a16.45,16.45,0,0,0,1.62,4.46c.55,1.07,1.14,2.11,1.73,3.16.16.29.27.58,0,.83s-.56,0-.79-.18A12.31,12.31,0,0,1,13.89,21.77Z"/><path class="cls-3" d="M19.71,22.07a17.41,17.41,0,0,1-2-6.44,28.67,28.67,0,0,1-.22-3.34c0-.3,0-.59.41-.61s.45.22.53.53c.81,3.18,1.36,6.41,2.06,9.61,0,.22.13.52-.18.62S19.78,22.18,19.71,22.07Z"/><path class="cls-4" d="M19.76,52.71a1.16,1.16,0,0,1-1.6-.37,1,1,0,0,1,.34-1.14,1.76,1.76,0,0,1,1.63.34A.86.86,0,0,1,19.76,52.71Z"/><path class="cls-5" d="M13,37.44a1.55,1.55,0,0,1-.37,2,1.21,1.21,0,0,1-1.76-.39A1.49,1.49,0,0,1,11.22,37,1.28,1.28,0,0,1,13,37.44Zm-.21.16a1,1,0,0,0-1.37-.39,1.46,1.46,0,0,0-.29,1.72,1.07,1.07,0,0,0,1.38.35A1.48,1.48,0,0,0,12.77,37.6Z"/><path class="cls-6" d="M12.69,44.18c.19.52.41,1.06-.1,1.55a.93.93,0,0,1-1.19.18.92.92,0,0,1-.55-1.06c0-.17.1-.34.14-.51.1-.37.12-.84.64-.85A1.2,1.2,0,0,1,12.69,44.18Zm-.32.16c-.2-.23-.37-.68-.9-.52a2.08,2.08,0,0,0-.28,1.59.68.68,0,0,0,1,.19A.81.81,0,0,0,12.37,44.34Z"/><path class="cls-7" d="M27.11,25.12l.14.13-.36.18Z"/><path class="cls-8" d="M49.83,35.56c.3-.69,0-1.4.05-2.1a1.89,1.89,0,0,1,3.47-1.23A16,16,0,0,1,56,37.16,29.6,29.6,0,0,1,57.09,42a24.31,24.31,0,0,1,.07,7,10,10,0,0,1-2.67,5.75,6.61,6.61,0,0,1-2.8,1.74,1.76,1.76,0,0,1-2.13-1.54,5.35,5.35,0,0,1,.66-2.53,17.57,17.57,0,0,0,1.09-6.67,63.76,63.76,0,0,0-1.07-7.81,1.65,1.65,0,0,0-.18-.41A2.23,2.23,0,0,0,49.83,35.56Z"/><path class="cls-9" d="M37.91,49a7.59,7.59,0,0,1-4.14-.75,3.7,3.7,0,0,1-.66-.42c-1-.9-1-1.78,0-2.44s2.19-1.35,3.23-2.12a20.91,20.91,0,0,0,4.43-4.43,10.63,10.63,0,0,1,1-1.15c.6-.61,1-.6,1.72-.07a5.1,5.1,0,0,1,1.63,5.56A7.32,7.32,0,0,0,37.91,49Z"/><path class="cls-10" d="M21.84,43.3a8.08,8.08,0,0,1-.92-4,12.27,12.27,0,0,1,1-5.48,5.34,5.34,0,0,1,1-1.5A1.25,1.25,0,0,1,24.33,32a1.27,1.27,0,0,1,.92,1.08,6.16,6.16,0,0,1-.19,2.53,10.87,10.87,0,0,0,0,6.19,5.18,5.18,0,0,1,.18,1.36c.05,1.41-1,2-2.22,1.35A2.82,2.82,0,0,1,21.84,43.3Z"/><path class="cls-7" d="M37.91,49a7.32,7.32,0,0,1,7.16-5.82,8.87,8.87,0,0,1-6.66,5.69Z"/><path class="cls-9" d="M31.26,50.49a1.51,1.51,0,1,1-1.52-2.61,1.55,1.55,0,0,1,2.06.55A1.52,1.52,0,0,1,31.26,50.49Z"/><path class="cls-9" d="M44.75,34.79a1.5,1.5,0,1,1,1.56,2.56,1.52,1.52,0,0,1-2.1-.53A1.45,1.45,0,0,1,44.75,34.79Z"/><path class="cls-10" d="M24.77,31.1a1.5,1.5,0,0,1,.47-2,1.47,1.47,0,0,1,2,.54,1.44,1.44,0,0,1-.51,2A1.47,1.47,0,0,1,24.77,31.1Z"/><path class="cls-11" d="M49.83,35.56a2.23,2.23,0,0,1,.23,2c-.5.27-.86.16-1.05-.4a3,3,0,0,0-.18-.41c-.18-.31-.35-.63,0-1A.79.79,0,0,1,49.83,35.56Z"/><path class="cls-11" d="M30.9,52a1.35,1.35,0,0,1-.33,1.75c-.32.2-.54.06-.7-.21A1.61,1.61,0,0,1,30,51.76C30.44,51.51,30.69,51.76,30.9,52Z"/><path class="cls-11" d="M47.8,37c.28-.17.61,0,.86.31a1.46,1.46,0,0,1-.23,1.57c-.46.23-.67-.1-.87-.43C47.18,37.79,47.23,37.3,47.8,37Z"/><path class="cls-11" d="M31.9,52.33a2.17,2.17,0,0,1-.19-1c0-.26.11-.52.45-.56a.57.57,0,0,1,.66.4,2.5,2.5,0,0,1,0,1.46.3.3,0,0,1-.36.23C32.2,52.77,32.05,52.6,31.9,52.33Z"/><path class="cls-11" d="M33.39,51.24c-.34-.57-.3-1.16.09-1.41a.57.57,0,0,1,.84.24A1.24,1.24,0,0,1,34,51.49C33.69,51.69,33.53,51.49,33.39,51.24Z"/><path class="cls-11" d="M46.4,39.51c-.15-.34-.35-.77.1-1.12.27-.21.53,0,.71.22a1,1,0,0,1-.14,1.2C46.77,40,46.59,39.83,46.4,39.51Z"/><path class="cls-12" d="M12.77,37.6a1.48,1.48,0,0,1-.28,1.68,1.07,1.07,0,0,1-1.38-.35,1.46,1.46,0,0,1,.29-1.72A1,1,0,0,1,12.77,37.6Z"/><path class="cls-13" d="M12.37,44.34a.81.81,0,0,1-.16,1.26.68.68,0,0,1-1-.19,2.08,2.08,0,0,1,.28-1.59C12,43.66,12.17,44.11,12.37,44.34Z"/><path class="cls-14" d="M46.36,23.68a11.4,11.4,0,0,1-3.12,1.9c-1.2.44-2.37.94-3.61,1.26a35.33,35.33,0,0,1-5.94,1,45.69,45.69,0,0,1-7.49,0,2,2,0,0,1-1-.27,29.07,29.07,0,0,1,1.24-4.08c.91-2.81,1.88-5.59,2.89-8.36.82-2.25,1.61-4.5,2.55-6.69a2.33,2.33,0,0,1,.45-.74,9.29,9.29,0,0,1,2.22-.37l.61.75,0,0a29,29,0,0,1,3.31,4.2c2.44,3.4,4.81,6.84,7.19,10.26C46,23,46.15,23.32,46.36,23.68ZM29,23.25a.61.61,0,0,0,.82.39.94.94,0,0,0,.75-.78.84.84,0,0,0-.45-.91l-.44-.23a13,13,0,0,0,.51-2.52.86.86,0,0,0-.65-1c-.53-.13-.77.2-.9.62-.5,1.58-1,3.16-1.45,4.76a1.06,1.06,0,0,0,.32,1,.35.35,0,0,0,.52,0,2.43,2.43,0,0,0,.85-1.19Zm6-10.69a1.64,1.64,0,0,0,1,2,12.51,12.51,0,0,0,.6,1.22c.3.49.36,1.14.93,1.47a2.74,2.74,0,0,0,.69,1.08c-.08.54.37.89.5,1.36a.87.87,0,0,0-.37,1.12,1,1,0,0,0,1.38.53,3.85,3.85,0,0,0,.65.83c.36.26.55.81,1.14.72a3.18,3.18,0,0,0,.16.32,1.11,1.11,0,0,0,1.71.34,1,1,0,0,0,.09-1.52c-.11-.15-.24-.29-.36-.43-.37-.75-.7-1.52-1.13-2.23a15.15,15.15,0,0,0-1.91-2.46l-.43-.56a11.87,11.87,0,0,0-2.19-3.33c-.23-.43-.37-.94-.91-1.13-.06-.1-.09-.25-.18-.3-.45-.27-.87-.88-1.44-.48S34.89,12.08,35.05,12.56Zm.49,13.59a1.19,1.19,0,0,0,.59-1.8,1.39,1.39,0,0,0-1.83-.67,1.29,1.29,0,0,0-.53,1.84A1.17,1.17,0,0,0,35.54,26.15Zm-2.93-9.63A1.49,1.49,0,0,0,30.83,16a1.36,1.36,0,0,0-.47,1.84,1.18,1.18,0,0,0,1.67.47A1.33,1.33,0,0,0,32.61,16.52ZM34,10.28a1,1,0,0,0-1.39-.43,1.05,1.05,0,0,0-.55,1.37,1.34,1.34,0,0,0,1.43.58A1.07,1.07,0,0,0,34,10.28Zm-.87,10.49a1.11,1.11,0,0,0-1.42-.51,1.12,1.12,0,0,0-.53,1.41,1,1,0,0,0,1.35.46A1.08,1.08,0,0,0,33.14,20.77Zm2.55-2.37c.71-.38.92-.87.52-1.44a1.12,1.12,0,0,0-1.29-.41c-.48.15-.65.92-.41,1.44S35.17,18.73,35.69,18.4Zm-4.51,7.84c.61-.31.78-.72.5-1.28a.84.84,0,0,0-1.24-.45,1.09,1.09,0,0,0-.54,1.33A.89.89,0,0,0,31.18,26.24ZM36.76,20a1.13,1.13,0,0,0-1.27-.42A1.1,1.1,0,0,0,35,20.9a.91.91,0,0,0,1.33.43A1,1,0,0,0,36.76,20Zm1.73,3.56A1,1,0,0,0,38,24.84a.93.93,0,0,0,1.26.35.79.79,0,0,0,.37-1.2C39.41,23.48,39.08,23.15,38.49,23.52Zm-6.28-8.46a.85.85,0,0,0,1.22.39,1,1,0,0,0,.43-1.3.9.9,0,0,0-1.29-.36A.82.82,0,0,0,32.21,15.06Z"/><path class="cls-15" d="M34.59,7.36a9.29,9.29,0,0,0-2.22.37,2.13,2.13,0,0,0-.76-.63,6.69,6.69,0,0,1-3.08-3.24,2.57,2.57,0,0,1-.19-1.27c.06-.71.91-1,1.74-.59a2.47,2.47,0,0,1,1.11.89c.09.17.17.4.41.32s.22-.35.19-.55a2.27,2.27,0,0,1,.8-2.27c.74-.61,1.29-.51,1.74.33a3.89,3.89,0,0,1,.5,1.72c0,.46.23.54.61.34.59-.31,1.25-.51,1.75,0s.31,1.26.05,1.9a4.53,4.53,0,0,1-1.85,2.07A8.41,8.41,0,0,0,34.59,7.36Z"/><path class="cls-16" d="M38.8,19.72c-.13-.47-.58-.82-.5-1.36.6,0,1.28.17,1.62-.55a6.2,6.2,0,0,0,.24-.87,15.15,15.15,0,0,1,1.91,2.46c.43.71.76,1.48,1.13,2.23-1.27.2-1.42.33-1.6,1.29-.59.09-.78-.46-1.14-.72a3.85,3.85,0,0,1-.65-.83c.38-.41.77-.83.36-1.43A.93.93,0,0,0,38.8,19.72Z"/><path class="cls-17" d="M28.92,23.35a2.43,2.43,0,0,1-.85,1.19.35.35,0,0,1-.52,0,1.06,1.06,0,0,1-.32-1c.45-1.6.95-3.18,1.45-4.76.13-.42.37-.75.9-.62a.86.86,0,0,1,.65,1,13,13,0,0,1-.51,2.52l-.23.15c-.55-.4-.57.26-.73.44A.68.68,0,0,0,28.92,23.35Z"/><path class="cls-16" d="M37.54,13.05a11.87,11.87,0,0,1,2.19,3.33,1.55,1.55,0,0,0-2.12.9c-.57-.33-.63-1-.93-1.47a12.51,12.51,0,0,1-.6-1.22C37.29,14.27,37.5,14.06,37.54,13.05Z"/><path class="cls-18" d="M35.54,26.15a1.17,1.17,0,0,1-1.77-.63,1.29,1.29,0,0,1,.53-1.84,1.39,1.39,0,0,1,1.83.67A1.19,1.19,0,0,1,35.54,26.15Z"/><path class="cls-18" d="M32.61,16.52A1.33,1.33,0,0,1,32,18.31a1.18,1.18,0,0,1-1.67-.47A1.36,1.36,0,0,1,30.83,16,1.49,1.49,0,0,1,32.61,16.52Z"/><path class="cls-18" d="M37.61,17.28a1.55,1.55,0,0,1,2.12-.9l.43.56a6.2,6.2,0,0,1-.24.87c-.34.72-1,.53-1.62.55A2.74,2.74,0,0,1,37.61,17.28Z"/><path class="cls-18" d="M41.6,22.92c.18-1,.33-1.09,1.6-1.29.12.14.25.28.36.43a1,1,0,0,1-.09,1.52,1.11,1.11,0,0,1-1.71-.34A3.18,3.18,0,0,1,41.6,22.92Z"/><path class="cls-18" d="M34,10.28a1.07,1.07,0,0,1-.51,1.52,1.34,1.34,0,0,1-1.43-.58,1.05,1.05,0,0,1,.55-1.37A1,1,0,0,1,34,10.28Z"/><path class="cls-18" d="M33.14,20.77a1.08,1.08,0,0,1-.6,1.36,1,1,0,0,1-1.35-.46,1.12,1.12,0,0,1,.53-1.41A1.11,1.11,0,0,1,33.14,20.77Z"/><path class="cls-18" d="M35.69,18.4c-.52.33-.91.17-1.18-.41s-.07-1.29.41-1.44a1.12,1.12,0,0,1,1.29.41C36.61,17.53,36.4,18,35.69,18.4Z"/><path class="cls-18" d="M31.18,26.24a.89.89,0,0,1-1.28-.4,1.09,1.09,0,0,1,.54-1.33.84.84,0,0,1,1.24.45C32,25.52,31.79,25.93,31.18,26.24Z"/><path class="cls-18" d="M36.76,20a1,1,0,0,1-.41,1.37A.91.91,0,0,1,35,20.9a1.1,1.1,0,0,1,.47-1.36A1.13,1.13,0,0,1,36.76,20Z"/><path class="cls-18" d="M38.8,19.72a.93.93,0,0,1,1.37.22c.41.6,0,1-.36,1.43a1,1,0,0,1-1.38-.53A.87.87,0,0,1,38.8,19.72Z"/><path class="cls-18" d="M38.49,23.52c.59-.37.92,0,1.18.47a.79.79,0,0,1-.37,1.2A.93.93,0,0,1,38,24.84,1,1,0,0,1,38.49,23.52Z"/><path class="cls-18" d="M32.21,15.06a.82.82,0,0,1,.36-1.27.9.9,0,0,1,1.29.36,1,1,0,0,1-.43,1.3A.85.85,0,0,1,32.21,15.06Z"/><path class="cls-16" d="M36.63,11.92a1.74,1.74,0,0,0-1.59.64c-.15-.48-.58-1,0-1.42s1,.21,1.44.48C36.54,11.67,36.57,11.82,36.63,11.92Z"/><path class="cls-18" d="M36.63,11.92a1.74,1.74,0,0,0-1.59.64,1.66,1.66,0,0,0,0,.89,1,1,0,0,0-.11.7c.08.17.41.21.77.19a3.41,3.41,0,0,0,.37.25c1.21-.32,1.42-.53,1.46-1.54C37.31,12.62,37.17,12.11,36.63,11.92Zm-1,.56,0,0Z"/><path class="cls-18" d="M30.52,22a1.15,1.15,0,0,1-.38,1.54,1.11,1.11,0,0,1-1.51-.25,1.19,1.19,0,0,1,.31-1.57A1.17,1.17,0,0,1,30.52,22Z"/><path class="cls-19" d="M33.82,2.23a4.82,4.82,0,0,1,0,1.42c0,.19,0,.39-.29.43a.34.34,0,0,1-.43-.3c-.18-.67-.53-1.34-.07-2,.11-.19.17-.43.44-.4s.23.32.28.51A2.18,2.18,0,0,1,33.82,2.23Z"/><path class="cls-19" d="M35.57,4.3a.51.51,0,0,1-.6-.25c-.17-.3.07-.48.28-.64A3.84,3.84,0,0,1,36,3c.23-.1.53-.2.72.06a.62.62,0,0,1-.11.83A1.73,1.73,0,0,1,35.57,4.3Z"/><path class="cls-19" d="M30.38,4.06c.07.24,0,.4-.3.43a1.8,1.8,0,0,1-1.16-.84.26.26,0,0,1,.18-.3A1.14,1.14,0,0,1,30.38,4.06Z"/></g><g id="Слой_5" data-name="Слой 5"><path class="cls-2" d="M67.89,53.81c.12,0,.26-.15.36-.13a28.38,28.38,0,0,0,3.89.42,3.15,3.15,0,0,0-1,.55c-.81-.25-1.67-.18-2.48-.38-.19-.09-.37-.15-.51.08a8.61,8.61,0,0,0-1.18,2.22C64.7,61,66.47,65,70.47,66.35c.7.24.71.22.7-.52A3,3,0,0,1,72,63.44a1.9,1.9,0,0,1,2.41-.12,1.7,1.7,0,0,1,.38,2.24,2.72,2.72,0,0,1-2.12,1.49c-.68.09-.63.35-.45.85.86,2.32,2,4.52,3,6.78a30.53,30.53,0,0,1,2.41,7A6.83,6.83,0,0,1,77.2,86a4.16,4.16,0,0,1-3.69,2.41A4.08,4.08,0,0,1,70,85.47,2.22,2.22,0,0,1,70.59,83,1.09,1.09,0,0,1,72.22,83a1.65,1.65,0,0,1,.42,1.86c-.06.12-.15.18-.26.14s-.07-.14-.09-.22,0-.08,0-.12c.1-.82-.27-1.52-.82-1.56s-1.15.7-1.16,1.38a3.26,3.26,0,0,0,1.77,2.94,2.72,2.72,0,0,0,3.15-.08,4.33,4.33,0,0,0,1.89-3.82,15.55,15.55,0,0,0-1.5-6.07c-1.11-2.64-2.32-5.23-3.48-7.85-.32-.7-.45-1.49-.82-2.13s-1.35-.49-2-.82A7,7,0,0,1,66,57.46,24.83,24.83,0,0,1,67.89,53.81ZM71.9,65a3.53,3.53,0,0,0-.05,1.13c0,.22.06.36.34.35A2.53,2.53,0,0,0,74.34,65a1,1,0,0,0-.77-1.38C72.76,63.47,72.13,64,71.9,65Z"/><path class="cls-20" d="M68.62,54.27c.81.2,1.67.13,2.48.38a21.59,21.59,0,0,0,1.1,3.2c.24.56.09.88-.47,1a7.28,7.28,0,0,1-4.26-.1c-.87-.28-.94-1-.3-2Z"/><path class="cls-21" d="M81.87,34.83c.69-.3,1-1,1.47-1.49a1.89,1.89,0,0,1,3.37,1.48,16.26,16.26,0,0,1-1.49,5.37,29.55,29.55,0,0,1-2.5,4.32A24.3,24.3,0,0,1,78,49.64,10.06,10.06,0,0,1,72.11,52a6.66,6.66,0,0,1-3.23-.66,1.76,1.76,0,0,1-.5-2.58,5.39,5.39,0,0,1,2.21-1.39A17.65,17.65,0,0,0,76,43.26a65.62,65.62,0,0,0,4.58-6.42,1.9,1.9,0,0,0,.15-.42A2.24,2.24,0,0,0,81.87,34.83Z"/><path class="cls-22" d="M56.18,21.28a8,8,0,0,1,2-3.52,12.25,12.25,0,0,1,4.52-3.27,5.16,5.16,0,0,1,1.78-.38,1.23,1.23,0,0,1,1.19.65,1.25,1.25,0,0,1-.07,1.43,6.23,6.23,0,0,1-1.87,1.71,10.85,10.85,0,0,0-4.26,4.49,4.82,4.82,0,0,1-.8,1.11A1.38,1.38,0,0,1,56.18,23,2.75,2.75,0,0,1,56.18,21.28Z"/><path class="cls-20" d="M79.56,12.52c-7.12-4.08-15.69-.63-18.31,1.42h0a18,18,0,0,0-7.15,8.22,25.43,25.43,0,0,0-1.9,12.31c.47,6.23,2.87,11.48,7.84,15.41a20.78,20.78,0,0,0,7.84,3.93c.12,0,.26-.15.36-.13a28.38,28.38,0,0,0,3.89.42,6.16,6.16,0,0,0,1.94-.54,25.43,25.43,0,0,0,9.09-6.3,20.46,20.46,0,0,0,6-13.93S90.37,18.73,79.56,12.52ZM76.91,31.9a1.45,1.45,0,0,1,1.78-1.11,1.48,1.48,0,0,1,1.19,1.75,1.52,1.52,0,1,1-3-.64Zm2.93,3.36c0,.44-.87,1.1-1.24,1s-.42-.53-.34-.91c.14-.7.51-1,1.17-.89C79.75,34.53,79.87,34.88,79.84,35.26Zm-3.19.1c.13-.35.28-.8.84-.75.35,0,.42.33.37.65s-.56.85-.92.78S76.57,35.72,76.65,35.36ZM73,31l.74-.11L73,31c-.52.09-1,.17-1.56.22C72,31.17,72.49,31.09,73,31Zm-4.69.33c-.52,0-1-.07-1.57-.13-1.29-.16-2.54-.45-3.81-.68a1.41,1.41,0,0,0-1.34.29,1.41,1.41,0,0,1,1.34-.29c1.27.23,2.52.52,3.81.68C67.27,31.26,67.8,31.31,68.32,31.33Zm-11.5,2.49a1.35,1.35,0,0,1-1.43,1c-.38-.09-.44-.33-.37-.64.11-.57.89-1.25,1.33-1.16S56.82,33.51,56.82,33.82Zm-.64-12.54a8,8,0,0,1,2-3.52,12.59,12.59,0,0,1,4.1-3.07l2.88,2a6.65,6.65,0,0,1-1.43,1.22,10.85,10.85,0,0,0-4.26,4.49,4.82,4.82,0,0,1-.8,1.11A1.38,1.38,0,0,1,56.18,23,2.75,2.75,0,0,1,56.18,21.28Zm5.39,9.58a1.42,1.42,0,0,0-.29.73A1.42,1.42,0,0,1,61.57,30.86Zm-4.65.3a1.53,1.53,0,0,1,3,.69A1.51,1.51,0,0,1,58.11,33,1.54,1.54,0,0,1,56.92,31.16Zm1.9,3.34a2.51,2.51,0,0,1-1,1,.3.3,0,0,1-.41-.07.8.8,0,0,1,0-.72,2,2,0,0,1,.59-.89c.2-.16.43-.31.7-.1A.57.57,0,0,1,58.82,34.5Zm1.8.27a1.23,1.23,0,0,1-1.2.82c-.36-.07-.35-.33-.28-.61.14-.65.58-1,1-1S60.67,34.42,60.62,34.77Zm2.56.95a6.74,6.74,0,0,1-1.71-2.65l-.12-.38.12.38a6.74,6.74,0,0,0,1.71,2.65c.25.25.51.49.79.73l.22.12L64,36.45C63.69,36.21,63.43,36,63.18,35.72Zm3,1.78a8.46,8.46,0,0,0,5.91.07A8.46,8.46,0,0,1,66.14,37.5Zm20.57-2.68a16.26,16.26,0,0,1-1.49,5.37,29.55,29.55,0,0,1-2.5,4.32A24.3,24.3,0,0,1,78,49.64,10.06,10.06,0,0,1,72.11,52a6.66,6.66,0,0,1-3.23-.66,1.76,1.76,0,0,1-.5-2.58,5.39,5.39,0,0,1,2.21-1.39A17.65,17.65,0,0,0,76,43.26a65.62,65.62,0,0,0,4.58-6.42,1.9,1.9,0,0,0,.15-.42c-.55-.15-.74-.47-.5-1a3.16,3.16,0,0,0,.16-.43c.08-.35.17-.7.61-.72a.81.81,0,0,1,.91.57c.69-.3,1-1,1.47-1.49a1.89,1.89,0,0,1,3.37,1.48Z"/><path class="cls-9" d="M58.11,33a1.51,1.51,0,1,1,1.79-1.13A1.51,1.51,0,0,1,58.11,33Z"/><path class="cls-9" d="M78.69,30.79a1.5,1.5,0,1,1-.62,2.94,1.52,1.52,0,0,1-1.16-1.83A1.45,1.45,0,0,1,78.69,30.79Z"/><path class="cls-22" d="M66.67,14.41a1.49,1.49,0,0,1,1.72-1.15,1.46,1.46,0,0,1,1.12,1.79,1.43,1.43,0,0,1-1.74,1.1A1.47,1.47,0,0,1,66.67,14.41Z"/><path class="cls-23" d="M81.87,34.83a2.24,2.24,0,0,1-1.18,1.59c-.55-.15-.74-.47-.5-1a3.16,3.16,0,0,0,.16-.43c.08-.35.17-.7.61-.72A.81.81,0,0,1,81.87,34.83Z"/><path class="cls-23" d="M56.82,33.82a1.35,1.35,0,0,1-1.43,1c-.38-.09-.44-.33-.37-.64.11-.57.89-1.25,1.33-1.16S56.82,33.51,56.82,33.82Z"/><path class="cls-23" d="M79.43,34.45c.32.08.44.43.41.81s-.87,1.1-1.24,1-.42-.53-.34-.91C78.4,34.64,78.77,34.32,79.43,34.45Z"/><path class="cls-23" d="M57.31,34.75a2,2,0,0,1,.59-.89c.2-.16.43-.31.7-.1a.57.57,0,0,1,.22.74,2.51,2.51,0,0,1-1,1,.3.3,0,0,1-.41-.07A.8.8,0,0,1,57.31,34.75Z"/><path class="cls-23" d="M59.14,35c.14-.65.58-1,1-1s.49.4.44.75a1.23,1.23,0,0,1-1.2.82C59.06,35.52,59.07,35.26,59.14,35Z"/><path class="cls-23" d="M76.65,35.36c.13-.35.28-.8.84-.75.35,0,.42.33.37.65s-.56.85-.92.78S76.57,35.72,76.65,35.36Z"/><path class="cls-9" d="M67.08,38.24a4.41,4.41,0,0,1-3.29-3.75c0-.16,0-.36.19-.39s.24.18.3.33a7.2,7.2,0,0,0,1,1.85,2.87,2.87,0,0,0,4.6.06,10,10,0,0,0,.83-1.21c.1-.16.15-.42.39-.34s.12.32.09.5A3.84,3.84,0,0,1,67.08,38.24Z"/><path class="cls-24" d="M73,95a1.41,1.41,0,0,0,1.41,1.4h76a1.41,1.41,0,0,0,1.41-1.4l.63-43.69a2.44,2.44,0,0,0-2.58-2.17l-74.3-1.92A3.54,3.54,0,0,0,72,50.81Z"/><path class="cls-2" d="M74.43,93.62A1.34,1.34,0,0,0,75.76,95h72.89A1.34,1.34,0,0,0,150,93.62L150.57,54a3.27,3.27,0,0,0-3.43-3.2L75.93,48.85a2.49,2.49,0,0,0-2.56,2.55Z"/><rect class="cls-25" x="66.88" y="96.16" width="89.64" height="3.84" rx="1.17" transform="translate(223.39 196.16) rotate(-180)"/><path class="cls-10" d="M133.73,27.87l-45.61-.28a2.61,2.61,0,0,0-2.62,2.74l3.14,64.79h50.75l2.82-57.89Z"/><path class="cls-18" d="M135.63,37a2.62,2.62,0,0,1-2.51-2.82L133.6,28l8.62,9.24Z"/><path class="cls-18" d="M95.77,69l36.72-.63c.77,0,1.41.46,1.4,1h0c0,.55-.58,1-1.32,1l-36.7.76a1.31,1.31,0,0,1-1.4-.9l0-.13C94.35,69.56,95,69,95.77,69Z"/><path class="cls-18" d="M95.33,75.44h0a.64.64,0,0,0,.51.22l25.2-.23c.31,0,.57-.2.57-.43V73.75c0-.24-.27-.44-.6-.44l-24.5.52C95.43,73.85,94.78,74.74,95.33,75.44Z"/><path class="cls-18" d="M95.65,80.25l36.72-.62c.77,0,1.41.45,1.4,1h0c0,.55-.59,1-1.32,1l-36.7.75a1.31,1.31,0,0,1-1.4-.9l0-.13C94.23,80.8,94.84,80.27,95.65,80.25Z"/><path class="cls-18" d="M95.21,86.69h0a.65.65,0,0,0,.51.21l25.19-.23a.53.53,0,0,0,.58-.43V85c0-.25-.27-.45-.6-.44l-24.49.51C95.31,85.09,94.65,86,95.21,86.69Z"/><g class="cls-26"><path class="cls-27" d="M124.78,42.52a.7.7,0,0,0-.56-.23L104,42.72l-.51-1.63a.51.51,0,0,0-.52-.36l-2.79.07a.53.53,0,0,0-.54.51.5.5,0,0,0,.54.49l2.38-.06,4.3,13.75a.57.57,0,0,0,.54.39l14.22.19a.54.54,0,0,0,.61-.52.56.56,0,0,0-.61-.53l-13.81-.15-1.1-3.57,15.17,0a.69.69,0,0,0,.67-.48l2.4-7.75A.59.59,0,0,0,124.78,42.52Z"/><path class="cls-27" d="M109.43,56.71a2.05,2.05,0,0,0-2.12,2,2.16,2.16,0,0,0,2.12,2.12,2.05,2.05,0,0,0,2.14-2A2.16,2.16,0,0,0,109.43,56.71Zm0,3a1,1,0,0,1-1-1,1,1,0,0,1,1-.94,1,1,0,0,1,1,1A1,1,0,0,1,109.43,59.75Z"/><path class="cls-27" d="M118.91,56.86a2.12,2.12,0,0,0-2.22,2.08,2.24,2.24,0,0,0,2.22,2.17A2.13,2.13,0,0,0,121.16,59,2.24,2.24,0,0,0,118.91,56.86Zm0,3.12a1.06,1.06,0,0,1-1-1,1,1,0,0,1,1-1,1.05,1.05,0,0,1,1,1A1,1,0,0,1,118.91,60Z"/></g><path class="cls-27" d="M113.18,66a17.4,17.4,0,1,1,17.4-17.4A17.41,17.41,0,0,1,113.18,66Zm0-33.93a16.53,16.53,0,1,0,16.53,16.53A16.55,16.55,0,0,0,113.18,32Z"/><path class="cls-10" d="M113.78,49.42a.76.76,0,0,1-.66-.26l-2.37-3a.58.58,0,0,1,.27-.87.86.86,0,0,1,1.07.16l1.64,2.11L115.89,44a.9.9,0,0,1,1-.32.55.55,0,0,1,.34.82l-2.79,4.58a.86.86,0,0,1-.67.37Z"/><path class="cls-28" d="M80.65,64.7a.26.26,0,0,1-.27-.26A18.46,18.46,0,0,1,81,59.51c.93-3.37,2.79-5.36,5.38-5.77a4.08,4.08,0,0,1,3.36.89c3.14,2.58,3.44,9.5,3.45,9.79a.27.27,0,0,1-.26.28.26.26,0,0,1-.28-.26c0-.07-.3-7-3.25-9.39a3.54,3.54,0,0,0-2.94-.77c-5.76.9-5.54,10-5.54,10.15a.27.27,0,0,1-.26.27Z"/><path class="cls-29" d="M69.25,94.33,73.9,62.27,91.37,62,97,96.11H70.76A1.55,1.55,0,0,1,69.25,94.33Z"/><path class="cls-28" d="M94.76,62.27,91.37,62,97,96.11h3.36a1.09,1.09,0,0,0,1.06-1.32Z"/><path class="cls-28" d="M89.17,64.63a.26.26,0,0,1-.27-.26c0-.07-.31-7-3.25-9.39a3.59,3.59,0,0,0-2.94-.78c-5.75.91-5.55,10.06-5.54,10.15a.28.28,0,0,1-.27.28.25.25,0,0,1-.27-.26,18.09,18.09,0,0,1,.62-4.94c.93-3.36,2.79-5.35,5.38-5.76a4.08,4.08,0,0,1,3.36.89c3.14,2.58,3.43,9.5,3.45,9.79a.28.28,0,0,1-.26.28Z"/><path class="cls-30" d="M32.25,97.91c-.31-.77-.79-1.56.08-2.28a1.17,1.17,0,0,1,1.55-.07c1,.76.49,1.6.1,2.43Z"/><path class="cls-31" d="M51.6,70.12c-1,5.07-7.8,8.58-12.68,8.86-.44,0-1-.11-1-.6,0-.79.75-.77,1.28-.85a18.11,18.11,0,0,0,10.44-5.26C50.33,71.59,51,70.84,51.6,70.12Z"/><path class="cls-32" d="M18.23,81.17c-.12,1.49,0,3.1-1.38,3.06-1.17,0-.86-1.62-.76-2.56a8.43,8.43,0,0,0-1.15-4.51c-.34-.76-.91-1.83,0-2.28s1.6.54,2,1.3A10.32,10.32,0,0,1,18.23,81.17Z"/><path class="cls-3" d="M46.77,69.88a16,16,0,0,1-6.86,3.19c-.61.1-1.44.29-1.66-.52s.66-1,1.22-1.13c2.37-.72,4.75-1.39,7.12-2.09Z"/><path class="cls-33" d="M.56,62.94c.8-.23,1.65-.49,2.12.39A1.61,1.61,0,0,1,2,65.55c-.56.4-1.3.61-1.69-.06A2.06,2.06,0,0,1,.56,62.94Z"/><path class="cls-34" d="M30,86.11c.8.18,1.38.63,1.38,1.45a1.45,1.45,0,1,1-2.89.07C28.46,86.7,29.12,86.26,30,86.11Z"/><path class="cls-35" d="M9.5,65.13c.74-.22,1.39-.23,1.77.42a1.11,1.11,0,0,1-.41,1.65,1.11,1.11,0,0,1-1.65-.39A1.34,1.34,0,0,1,9.5,65.13Z"/><path class="cls-36" d="M10.11,51.45c.78-1.84,2.25-2.54,4.57-2.81C13.28,50.36,11.39,50.44,10.11,51.45Z"/><path class="cls-37" d="M37.65,86.67c.75.13,1.27.53,1.25,1.26a1.14,1.14,0,0,1-1.28,1.14A1.08,1.08,0,0,1,36.53,88C36.48,87.19,37,86.82,37.65,86.67Z"/><path class="cls-38" d="M53.21,92.33a1.14,1.14,0,0,1,1,1.19c0,.72-.39,1.34-1.15,1.25a1.21,1.21,0,0,1-1-1.41A1.15,1.15,0,0,1,53.21,92.33Z"/><path class="cls-39" d="M31.09,79.27c.61.18,1,.47.87,1.07a.85.85,0,0,1-.88.76c-.61,0-.77-.53-.75-1.06S30.73,79.36,31.09,79.27Z"/><path class="cls-40" d="M18,58.64c0,.27-.09.64-.5.7s-.76-.27-.8-.72.2-.83.71-.8S18,58.16,18,58.64Z"/></g></svg>