<svg id="Слой_5" data-name="Слой 5" xmlns="http://www.w3.org/2000/svg" viewBox="0 0 143.28 130"><defs><style>.cls-1{fill:#db9557;}.cls-2{fill:#b996bb;}.cls-3{fill:#98699a;}.cls-4{fill:#fbf6d8;}.cls-5{fill:#110505;}.cls-6{fill:#fbf5d5;}.cls-7{fill:#da99b7;}.cls-8{fill:#d995be;}.cls-9{fill:#dda1ab;}.cls-10{fill:#4e4f4e;}.cls-11{fill:#f2d45b;}.cls-12{fill:#e8a94e;}.cls-13{fill:#faf4d4;}.cls-14{fill:#d38acd;}.cls-15{fill:#ce6179;}.cls-16{fill:#806ea4;}.cls-17{fill:#c6708e;}.cls-18{fill:#7cbc94;}.cls-19{fill:#e089be;}.cls-20{fill:#fcfcfc;}.cls-21{fill:#cc689e;}.cls-22{fill:#c64767;}.cls-23{fill:#88c9a3;}.cls-24{fill:#e08845;}.cls-25{fill:#c9e4f2;}.cls-26{fill:#b77448;}.cls-27{fill:#e9aa3c;}.cls-28{fill:#c8e8f9;}.cls-29{fill:#f2f1f3;}.cls-30{fill:#f1d35b;}.cls-31{fill:#8ec8c0;}.cls-32{fill:#8c77b1;}.cls-33{fill:#add6e7;}.cls-34{fill:#91c9c1;}.cls-35{fill:#72b2e3;}.cls-36{fill:#c7687c;}.cls-37{fill:#d4bdd5;}.cls-38{fill:#8774aa;}.cls-39{fill:#d16d82;}.cls-40{fill:#9f8ebd;}.cls-41{fill:#e3a294;}.cls-42{fill:#dd8836;}.cls-43{fill:#dd8a3a;}.cls-44{fill:#dd8938;}.cls-45{fill:#de8c3d;}</style></defs><title>05 Доставит шарики</title><path class="cls-1" d="M93.5,75a.48.48,0,0,1-.47-.46,32,32,0,0,1,1.09-8.65c1.62-5.89,4.88-9.39,9.42-10.1a7.16,7.16,0,0,1,5.9,1.56c5.49,4.52,6,16.64,6,17.15a.47.47,0,0,1-.46.5.49.49,0,0,1-.49-.46c0-.12-.52-12.21-5.69-16.46a6.24,6.24,0,0,0-5.14-1.35C93.6,58.3,94,74.33,94,74.49a.49.49,0,0,1-.46.49Z"/><path class="cls-2" d="M111.66,62c7.78,4.21,21,3.77,27.76-6.38,3.77-5.68,5.17-11.66,2.42-18.11C137.79,28,127.61,24.3,118.5,29.31c-7.48,4.11-12.19,10.32-12.43,19.26A21.24,21.24,0,0,0,109,59.06a1,1,0,0,0,.33.8A15.75,15.75,0,0,0,111.66,62Z"/><path class="cls-2" d="M108.92,65.16c1.34-.69,1-2.36,1.89-3.28,0-.92-.76-1.25-1.24-1.81a2.81,2.81,0,0,0-3.39,1.27C107,62.71,108.3,63.67,108.92,65.16Z"/><path class="cls-3" d="M108.92,65.16c.08-1.94-1.17-2.93-2.7-3.71-.27-.3-.47-.31-.54.14C106,63.51,107.25,64.51,108.92,65.16Z"/><path class="cls-3" d="M109.32,60.25q.2,0,.18-.15a.24.24,0,0,0-.08-.14c-1.66-.4-2.87.5-4.07,1.42l.33.21.54-.14"/><path class="cls-3" d="M114.66,61.56c1.85,1.24,4,1.29,6,1.25a24.83,24.83,0,0,0,11.29-3,7.06,7.06,0,0,0,2-1.49c.57-.67,1.44-1.33.72-2.51s-1.52-1-2.51-.83c-2.84.56-5.69,1.06-8.52,1.69a14.82,14.82,0,0,1-8.55-.22c-1.25-.46-2.79-.7-3.44.36s.2,2.5,1.2,3.43A18.63,18.63,0,0,0,114.66,61.56Z"/><path class="cls-4" d="M121.11,29.91a1.81,1.81,0,0,0-.21,1.93,1.3,1.3,0,0,0,1.67.44,15.07,15.07,0,0,1,7.77-.43c.78.11,1.78.07,2.08-.93s-.62-1.42-1.33-1.8c-3-1.61-6-1.23-9,0A4,4,0,0,0,121.11,29.91Z"/><path class="cls-5" d="M122.18,40.74c-1.19,1.45-.69,2.79.39,4,1.25,1.36,2.74,1.6,4.81.45-1.6-.28-2.93,0-3.95-1A5,5,0,0,1,122.18,40.74Z"/><path class="cls-6" d="M133.54,33.45a1.3,1.3,0,0,0,1.84-.36,1.28,1.28,0,0,0-.37-1.83,1.25,1.25,0,0,0-1.83.34A1.41,1.41,0,0,0,133.54,33.45Z"/><path class="cls-5" d="M121.84,37c-1.51.13-2.33,1.21-3.28.34s0-1.75.12-2.78a1.89,1.89,0,0,0-1.32,2.13,1.79,1.79,0,0,0,1.29,1.71C119.85,38.81,120.68,38.21,121.84,37Z"/><path class="cls-7" d="M117,40a1.87,1.87,0,0,0,2.3.46C118.69,39.52,118,39.73,117,40Z"/><path class="cls-5" d="M130.89,45.48c.19.74-.28,1.11-.53,1.56h0c.19,2.71,1.89,1.19,3.44,1a2.79,2.79,0,0,1-2.61,1.41,1.75,1.75,0,0,1-1.59-1.83A1.7,1.7,0,0,1,130.89,45.48Z"/><path class="cls-8" d="M127.93,49.78a1.82,1.82,0,0,0,2.19.27C129.38,49.12,128.79,49.46,127.93,49.78Z"/><path class="cls-9" d="M129.12,51.53c1.12.36,1.71.39,2.22-.41C130.55,50.61,130,51,129.12,51.53Z"/><path class="cls-10" d="M90.88,86.69a4.26,4.26,0,0,0,5.7-.17c2.38-2.17,3.49-5.09,4.27-8.14.63-1.74,1.32-3.47,1.85-5.24.36-1.22.68-1.94,2.23-1.34a2,2,0,0,0,2.7-1.2,1.83,1.83,0,0,0-2.19-2.2c-.88.12-1.39.84-2.15,1.19-.85-.76-.88-1.82-1.1-2.81.12-2.34,1-4.28,3.16-5.4,1.35-.44,2.49-1.53,4-1.34a1.72,1.72,0,0,1-.07.21l1.49,1.63.85.09a5.61,5.61,0,0,0-2-2.35h0l-.7-.55a13,13,0,0,0-4.85,2.09A5.73,5.73,0,0,0,101.55,67h0c1.84,3.78-.13,7.11-1.24,10.54-.19.59-.35,1.19-.52,1.79-.82,1.67-1.6,3.36-2.48,5a4.62,4.62,0,0,1-2.75,2.37c-2.2.66-3.61-.44-4-3.07l.27-.56c.3-.61.57-1.42,1.41-1.25,1.3.25-.22,1.25.44,1.87.89-.53,1.3-1.3.71-2.18s-1.64-.73-2.49-.06C89.56,83.35,89.54,85.39,90.88,86.69Zm13.44-16.77c.57-.52,1.22-1,2-.63a.84.84,0,0,1,.34,1.37,1.77,1.77,0,0,1-2.1.24C104.1,70.71,104,70.36,104.32,69.92Z"/><path class="cls-10" d="M94.42,44.48c.13,0,.28-.14.39-.1a30.24,30.24,0,0,0,4,.78,3.31,3.31,0,0,0-1.13.47c-.81-.33-1.71-.32-2.53-.61-.19-.11-.37-.19-.54,0a8.81,8.81,0,0,0-1.42,2.2C90.47,51.67,92,55.94,96,57.71c.71.32.72.29.78-.48a3.09,3.09,0,0,1,1.09-2.4,2,2,0,0,1,2.51.09,1.76,1.76,0,0,1,.19,2.36,2.77,2.77,0,0,1-2.33,1.35c-.7,0-.68.32-.53.84.67,2.49,1.63,4.87,2.46,7.31A31.79,31.79,0,0,1,102,74.23a7.09,7.09,0,0,1-.81,4.42,4.34,4.34,0,0,1-4,2.17,4.26,4.26,0,0,1-3.4-3.32,2.31,2.31,0,0,1,.85-2.5,1.14,1.14,0,0,1,1.7.1,1.73,1.73,0,0,1,.27,2c-.08.11-.17.17-.28.11s-.07-.14-.08-.23,0-.08,0-.12c.18-.84-.14-1.59-.71-1.69s-1.25.62-1.33,1.33a3.39,3.39,0,0,0,1.58,3.2,2.85,2.85,0,0,0,3.27.21,4.53,4.53,0,0,0,2.3-3.8,16.2,16.2,0,0,0-1-6.43c-.91-2.83-1.93-5.63-2.9-8.45-.26-.75-.33-1.58-.65-2.28s-1.37-.63-2-1a7.31,7.31,0,0,1-2.65-9.79A26.65,26.65,0,0,1,94.42,44.48Zm3.15,12a3.62,3.62,0,0,0-.14,1.16c0,.22,0,.38.32.4a2.63,2.63,0,0,0,2.35-1.35,1,1,0,0,0-.67-1.5C98.61,54.93,97.91,55.4,97.57,56.48Z"/><path class="cls-11" d="M95.14,45c.82.29,1.72.28,2.53.61a23.13,23.13,0,0,0,.86,3.42c.2.6,0,.92-.58,1a7.6,7.6,0,0,1-4.4-.48c-.88-.38-.9-1.1-.14-2.13C94,46.66,94.56,45.84,95.14,45Z"/><path class="cls-12" d="M110.61,26.05c.74-.25,1.09-1,1.66-1.42a2,2,0,0,1,3.36,1.84,17.07,17.07,0,0,1-2,5.44,32.59,32.59,0,0,1-3,4.26,25.22,25.22,0,0,1-5.37,4.89A10.51,10.51,0,0,1,99,43a6.94,6.94,0,0,1-3.29-1,1.84,1.84,0,0,1-.29-2.73A5.77,5.77,0,0,1,97.8,38a18.17,18.17,0,0,0,5.93-3.78A64.55,64.55,0,0,0,109.05,28a1.81,1.81,0,0,0,.2-.42A2.35,2.35,0,0,0,110.61,26.05Z"/><path class="cls-13" d="M85.18,9.7a8.32,8.32,0,0,1,2.45-3.46,12.67,12.67,0,0,1,5-3A5.68,5.68,0,0,1,94.48,3a1.29,1.29,0,0,1,1.18.79,1.31,1.31,0,0,1-.2,1.47,6.44,6.44,0,0,1-2.09,1.61,11.26,11.26,0,0,0-4.82,4.27,5,5,0,0,1-.93,1.08A1.43,1.43,0,0,1,85,11.45,3,3,0,0,1,85.18,9.7Z"/><path class="cls-11" d="M110.21,2.71C103.19-2.16,94,.65,91.1,2.54h0A18.72,18.72,0,0,0,83,10.43,26.58,26.58,0,0,0,79.89,23c-.07,6.49,2,12.15,6.75,16.67a21.73,21.73,0,0,0,7.78,4.78c.13,0,.28-.14.39-.1a30.24,30.24,0,0,0,4,.78,6.27,6.27,0,0,0,2.06-.39,26.44,26.44,0,0,0,10-5.71,21.36,21.36,0,0,0,7.46-13.92S120.86,10.11,110.21,2.71Zm-4.48,19.86a1.52,1.52,0,0,1,2-1,1.54,1.54,0,0,1,1.07,1.92,1.56,1.56,0,0,1-2,1.08A1.58,1.58,0,0,1,105.73,22.57Zm2.74,3.75c-.08.45-1,1.05-1.37.91s-.39-.59-.28-1c.21-.71.62-1,1.3-.82C108.44,25.54,108.54,25.92,108.47,26.32Zm-3.31-.19c.16-.35.36-.8.93-.7.36.07.41.38.32.7a1,1,0,0,1-1,.73C105,26.76,105,26.49,105.16,26.13Zm-3.4-4.84c.26,0,.52-.05.79-.06-.27,0-.53,0-.79.06-.54,0-1.09.07-1.63.09C100.67,21.36,101.22,21.33,101.76,21.29Zm-4.88-.08c-.54-.07-1.08-.16-1.62-.28-1.32-.28-2.6-.69-3.89-1a1.47,1.47,0,0,0-1.41.18,1.47,1.47,0,0,1,1.41-.18c1.29.35,2.57.76,3.89,1C95.8,21.05,96.34,21.14,96.88,21.21ZM84.73,22.76a1.4,1.4,0,0,1-1.58,1c-.38-.12-.42-.38-.33-.69.17-.59,1-1.22,1.49-1.09S84.76,22.44,84.73,22.76ZM85.18,9.7a8.32,8.32,0,0,1,2.45-3.46,13,13,0,0,1,4.53-2.82L95,5.75a7.4,7.4,0,0,1-1.59,1.13,11.26,11.26,0,0,0-4.82,4.27,5,5,0,0,1-.93,1.08A1.43,1.43,0,0,1,85,11.45,3,3,0,0,1,85.18,9.7Zm4.74,10.42a1.57,1.57,0,0,0-.37.73A1.57,1.57,0,0,1,89.92,20.12ZM85.07,20a1.59,1.59,0,0,1,3,1,1.58,1.58,0,0,1-2,1A1.6,1.6,0,0,1,85.07,20Zm1.67,3.63a2.63,2.63,0,0,1-1.18,1,.3.3,0,0,1-.42-.11.86.86,0,0,1,0-.75,2.1,2.1,0,0,1,.68-.87c.23-.15.47-.28.74,0A.59.59,0,0,1,86.74,23.65Zm1.85.43a1.29,1.29,0,0,1-1.32.75c-.38-.11-.33-.37-.24-.65.21-.67.69-1.05,1.16-.91S88.67,23.73,88.59,24.08Zm2.56,1.22a6.88,6.88,0,0,1-1.53-2.9c0-.13-.07-.27-.09-.4,0,.13.06.27.09.4a6.88,6.88,0,0,0,1.53,2.9c.24.29.49.56.75.82l.23.16-.23-.16C91.64,25.86,91.39,25.59,91.15,25.3Zm2.91,2.11a8.87,8.87,0,0,0,6.13.61A8.87,8.87,0,0,1,94.06,27.41Zm21.57-.94a17.07,17.07,0,0,1-2,5.44,32.59,32.59,0,0,1-3,4.26,25.22,25.22,0,0,1-5.37,4.89A10.51,10.51,0,0,1,99,43a6.94,6.94,0,0,1-3.29-1,1.84,1.84,0,0,1-.29-2.73A5.77,5.77,0,0,1,97.8,38a18.17,18.17,0,0,0,5.93-3.78A64.55,64.55,0,0,0,109.05,28a1.81,1.81,0,0,0,.2-.42c-.56-.2-.73-.56-.43-1.09a2.39,2.39,0,0,0,.2-.43c.11-.35.24-.71.7-.69a.84.84,0,0,1,.89.67c.74-.25,1.09-1,1.66-1.42a2,2,0,0,1,3.36,1.84Z"/><path class="cls-5" d="M86.14,22a1.58,1.58,0,1,1,2-1A1.58,1.58,0,0,1,86.14,22Z"/><path class="cls-5" d="M107.68,21.57a1.54,1.54,0,0,1,1.07,1.92,1.56,1.56,0,0,1-2,1.08,1.58,1.58,0,0,1-1-2A1.52,1.52,0,0,1,107.68,21.57Z"/><path class="cls-13" d="M96.68,3.51a1.55,1.55,0,0,1,1.89-1,1.52,1.52,0,0,1,1,2,1.5,1.5,0,0,1-1.9,1A1.52,1.52,0,0,1,96.68,3.51Z"/><path class="cls-14" d="M110.61,26.05a2.35,2.35,0,0,1-1.36,1.54c-.56-.2-.73-.56-.43-1.09a2.39,2.39,0,0,0,.2-.43c.11-.36.24-.71.7-.69A.84.84,0,0,1,110.61,26.05Z"/><path class="cls-14" d="M84.73,22.76a1.4,1.4,0,0,1-1.58,1c-.38-.12-.42-.38-.33-.69.17-.59,1-1.22,1.49-1.09S84.76,22.44,84.73,22.76Z"/><path class="cls-14" d="M108.12,25.44c.32.1.42.48.35.88s-1,1.05-1.37.91-.39-.59-.28-1C107,25.55,107.44,25.24,108.12,25.44Z"/><path class="cls-14" d="M85.16,23.77a2.1,2.1,0,0,1,.68-.87c.23-.15.47-.28.74,0a.59.59,0,0,1,.16.79,2.63,2.63,0,0,1-1.18,1,.3.3,0,0,1-.42-.11A.86.86,0,0,1,85.16,23.77Z"/><path class="cls-14" d="M87,24.18c.21-.67.69-1.05,1.16-.91s.48.46.39.82a1.28,1.28,0,0,1-1.31.74C86.89,24.72,86.94,24.46,87,24.18Z"/><path class="cls-14" d="M105.16,26.13c.16-.35.36-.8.93-.7.36.07.41.38.32.7a1,1,0,0,1-1,.73C105,26.76,105,26.49,105.16,26.13Z"/><path class="cls-5" d="M95,28.27a4.64,4.64,0,0,1-3.08-4.19c0-.16,0-.37.23-.38s.24.2.29.36a7.58,7.58,0,0,0,.91,2,3,3,0,0,0,4.77.48,10.26,10.26,0,0,0,1-1.19c.12-.15.19-.42.43-.32s.1.35.05.53A4,4,0,0,1,95,28.27Z"/><g id="Слой_4" data-name="Слой 4"><path class="cls-2" d="M65.67,72.54a21.78,21.78,0,0,1-9.13-.05c-6.45-1.37-11.11-5.16-14.42-10.75A26.43,26.43,0,0,1,38.2,49.38,17.74,17.74,0,0,1,49.14,31.75l1-.4.42-.07.23.07a9.69,9.69,0,0,0,3,1.22,1.38,1.38,0,0,0,.29.17,25.63,25.63,0,0,0,5.53,1.33A25.58,25.58,0,0,0,68.41,34a24.66,24.66,0,0,1,7.64,9.62,21.36,21.36,0,0,1,.85,15.77,26.62,26.62,0,0,1-5.57,10.07,6.72,6.72,0,0,1-1.56,1.4A30.69,30.69,0,0,1,66,72.25C65.84,72.27,65.76,72.44,65.67,72.54ZM54,58.15l.54,0a9.22,9.22,0,0,0,8.35-3.66,5.28,5.28,0,0,0,.06-6c-.53-.75-.95-.87-1.72-.46a11.49,11.49,0,0,0-1.32.86A21.6,21.6,0,0,1,54.16,52c-1.27.45-2.58.76-3.86,1.13s-1.5,1.22-.73,2.44a3.41,3.41,0,0,0,.53.61A7.86,7.86,0,0,0,54,58.15Zm15.95-9.77a.83.83,0,0,0-1.11-.11c-.4.22-.33.59-.24.95a2.42,2.42,0,0,1,0,.47c0,.61.35.83.93.71a1.82,1.82,0,0,1,.06.46A67.47,67.47,0,0,1,68.32,59a18.17,18.17,0,0,1-3.11,6.31,5.69,5.69,0,0,0-1.42,2.32,1.84,1.84,0,0,0,1.66,2.17,6.78,6.78,0,0,0,3.32-.88A10.43,10.43,0,0,0,73.16,64a25.19,25.19,0,0,0,2-7,32.19,32.19,0,0,0,.33-5.18,17,17,0,0,0-1.09-5.7,2,2,0,0,0-3.83.17C70.37,47,70.44,47.78,69.94,48.38Zm-30.22-.77a2.93,2.93,0,0,0,.78,1.57c1,1,2.24.75,2.61-.67a5.28,5.28,0,0,0,.24-1.41A11.13,11.13,0,0,1,45.25,41a6.65,6.65,0,0,0,1-2.47,1.37,1.37,0,0,0-2-1.42,5.46,5.46,0,0,0-1.48,1.18A12.79,12.79,0,0,0,40,43.38,8.32,8.32,0,0,0,39.72,47.61Zm7.21,10a1.59,1.59,0,0,0,1.15-1.89,1.62,1.62,0,0,0-1.89-1.18,1.58,1.58,0,1,0,.74,3.07ZM65.11,46.07A1.52,1.52,0,0,0,64,47.94,1.59,1.59,0,1,0,67,47.15,1.55,1.55,0,0,0,65.11,46.07ZM46.33,36.35a1.52,1.52,0,0,0,1.83,1.12,1.5,1.5,0,0,0,1.11-1.83,1.52,1.52,0,0,0-1.86-1.16A1.56,1.56,0,0,0,46.33,36.35ZM46.11,59c-.14-.28-.32-.61-.78-.48s-.87,1.11-.71,1.7c.08.32.25.52.64.42A1.4,1.4,0,0,0,46.11,59Zm21.38-9.85c-.68.18-.87.65-.68,1.37.1.39.21.78.74.69a1.5,1.5,0,0,0,.7-1.49C68.1,49.34,67.82,49.07,67.49,49.15ZM47,59.65c.07.32.16.53.38.64a.31.31,0,0,0,.42-.12,2.68,2.68,0,0,0,.49-1.45.61.61,0,0,0-.54-.6c-.36-.06-.5.18-.61.42A2.21,2.21,0,0,0,47,59.65ZM48.81,59c.07.29.17.53.55.44a1.29,1.29,0,0,0,.73-1.33c-.11-.34-.32-.6-.75-.49S48.65,58.34,48.81,59Zm16.51-7.74c.09.37.23.59.58.49a1,1,0,0,0,.5-1.14c-.1-.32-.3-.57-.64-.44C65.21,50.4,65.28,50.89,65.32,51.28Z"/><path class="cls-10" d="M65.67,72.54c.09-.1.17-.27.28-.29a30.69,30.69,0,0,0,3.82-1.41,3.36,3.36,0,0,0-.72,1c-.87.14-1.63.61-2.48.8-.22,0-.42,0-.44.31a8.78,8.78,0,0,0-.08,2.61c0,5.18,3.46,8.06,7.82,7.49.77-.1.76-.13.42-.82A3.07,3.07,0,0,1,74,79.6a2,2,0,0,1,2.19-1.22,1.76,1.76,0,0,1,1.39,1.92,2.81,2.81,0,0,1-1.29,2.36c-.58.4-.42.62,0,1,1.87,1.77,3.92,3.31,5.89,5A31.47,31.47,0,0,1,87.61,94a7.15,7.15,0,0,1,1.6,4.19,4.34,4.34,0,0,1-2.33,4,4.25,4.25,0,0,1-4.63-1.08,2.31,2.31,0,0,1-.57-2.57,1.13,1.13,0,0,1,1.5-.8,1.74,1.74,0,0,1,1.25,1.54c0,.13-.06.23-.18.24s-.13-.09-.19-.15,0-.09,0-.14c-.28-.8-.94-1.28-1.48-1.07a1.51,1.51,0,0,0-.44,1.83,3.39,3.39,0,0,0,3,1.92,2.85,2.85,0,0,0,2.9-1.53,4.5,4.5,0,0,0,0-4.44,16.17,16.17,0,0,0-4.2-5c-2.25-1.95-4.58-3.81-6.87-5.71-.62-.51-1.11-1.19-1.75-1.62s-1.49.18-2.27.18a7.28,7.28,0,0,1-7.34-7A25.46,25.46,0,0,1,65.67,72.54Zm8.93,8.61a3.5,3.5,0,0,0,.48,1.07c.1.19.21.31.48.17A2.64,2.64,0,0,0,76.87,80a1,1,0,0,0-1.36-.93C74.68,79.29,74.33,80.06,74.6,81.15Z"/><path class="cls-2" d="M66.57,72.63c.85-.19,1.61-.66,2.48-.8a21.77,21.77,0,0,0,2.51,2.48c.48.41.49.78,0,1.18a7.6,7.6,0,0,1-4,1.87c-.94.14-1.33-.48-1.22-1.75Z"/><path class="cls-15" d="M38.32,23.77a9.42,9.42,0,0,1,.26-5.89c.15-.4.25-1.05.82-.91s.31.76.27,1.18a17.07,17.07,0,0,0,.26,4.94c.23,1.22.5,2.44.76,3.67.08.33.1.65-.26.81s-.57-.14-.74-.41A13.11,13.11,0,0,1,38.32,23.77Z"/><path class="cls-15" d="M44,25.83a18.23,18.23,0,0,1,0-7,32.5,32.5,0,0,1,.79-3.38c.09-.31.19-.59.59-.49s.39.36.37.69c-.15,3.41-.58,6.79-.86,10.19,0,.24,0,.56-.36.56S44.06,26,44,25.83Z"/><path class="cls-16" d="M34.8,56.36a1.21,1.21,0,0,1-1.48-.86,1,1,0,0,1,.68-1,1.83,1.83,0,0,1,1.52.83A.9.9,0,0,1,34.8,56.36Z"/><path class="cls-17" d="M32.67,39.1a1.61,1.61,0,0,1-1,1.91,1.25,1.25,0,0,1-1.63-.91,1.55,1.55,0,0,1,1-2A1.32,1.32,0,0,1,32.67,39.1Zm-.26.1a1.07,1.07,0,0,0-1.24-.81A1.51,1.51,0,0,0,30.35,40a1.13,1.13,0,0,0,1.27.77A1.52,1.52,0,0,0,32.41,39.2Z"/><path class="cls-18" d="M30.34,45.72c0,.58.09,1.17-.57,1.51a1.06,1.06,0,0,1-1.46-1.4c.08-.16.2-.31.29-.46.21-.34.37-.8.89-.66A1.24,1.24,0,0,1,30.34,45.72Zm-.37.06c-.13-.29-.16-.79-.74-.78-.25,0-.85,1.19-.75,1.49a.7.7,0,0,0,1,.5C30,46.81,30.17,46.43,30,45.78Z"/><path class="cls-19" d="M50.47,31.1l.1.18-.42.07Z"/><path class="cls-3" d="M69.94,48.38c.5-.6.43-1.39.68-2.08a2,2,0,0,1,3.83-.17,17,17,0,0,1,1.09,5.7A32.19,32.19,0,0,1,75.21,57a25.19,25.19,0,0,1-2,7,10.43,10.43,0,0,1-4.39,4.91,6.78,6.78,0,0,1-3.32.88,1.84,1.84,0,0,1-1.66-2.17,5.69,5.69,0,0,1,1.42-2.32A18.17,18.17,0,0,0,68.32,59a67.47,67.47,0,0,0,1.31-8.11,1.82,1.82,0,0,0-.06-.46A2.35,2.35,0,0,0,69.94,48.38Z"/><path class="cls-5" d="M54,58.15a7.86,7.86,0,0,1-3.89-2,3.41,3.41,0,0,1-.53-.61c-.77-1.22-.5-2.09.73-2.44s2.59-.68,3.86-1.13A21.6,21.6,0,0,0,59.9,48.9,11.49,11.49,0,0,1,61.22,48c.77-.41,1.19-.29,1.72.46a5.28,5.28,0,0,1-.06,6A7.65,7.65,0,0,0,54,58.15Z"/><path class="cls-20" d="M39.72,47.61A8.32,8.32,0,0,1,40,43.38a12.79,12.79,0,0,1,2.7-5.14,5.46,5.46,0,0,1,1.48-1.18,1.37,1.37,0,0,1,2,1.42,6.65,6.65,0,0,1-1,2.47,11.13,11.13,0,0,0-1.9,6.15,5.28,5.28,0,0,1-.24,1.41c-.37,1.42-1.58,1.72-2.61.67A2.93,2.93,0,0,1,39.72,47.61Z"/><path class="cls-19" d="M54,58.15a7.65,7.65,0,0,1,8.89-3.63,9.22,9.22,0,0,1-8.35,3.66Z"/><path class="cls-5" d="M46.93,57.63a1.58,1.58,0,1,1-.74-3.07,1.62,1.62,0,0,1,1.89,1.18A1.59,1.59,0,0,1,46.93,57.63Z"/><path class="cls-5" d="M65.11,46.07a1.56,1.56,0,1,1,.78,3A1.57,1.57,0,0,1,64,47.94,1.52,1.52,0,0,1,65.11,46.07Z"/><path class="cls-20" d="M46.33,36.35a1.56,1.56,0,0,1,1.08-1.87,1.52,1.52,0,0,1,1.86,1.16,1.5,1.5,0,0,1-1.11,1.83A1.52,1.52,0,0,1,46.33,36.35Z"/><path class="cls-21" d="M69.94,48.38a2.35,2.35,0,0,1-.37,2c-.58.12-.91-.1-.93-.71a2.42,2.42,0,0,0,0-.47c-.09-.36-.16-.73.24-.95A.83.83,0,0,1,69.94,48.38Z"/><path class="cls-21" d="M46.11,59a1.4,1.4,0,0,1-.85,1.64c-.39.1-.56-.1-.64-.42-.16-.59.26-1.58.71-1.7S46,58.72,46.11,59Z"/><path class="cls-21" d="M67.49,49.15c.33-.08.61.19.76.57a1.5,1.5,0,0,1-.7,1.49c-.53.09-.64-.3-.74-.69C66.62,49.8,66.81,49.33,67.49,49.15Z"/><path class="cls-21" d="M47,59.65a2.21,2.21,0,0,1,.14-1.11c.11-.24.25-.48.61-.42a.61.61,0,0,1,.54.6,2.68,2.68,0,0,1-.49,1.45.31.31,0,0,1-.42.12C47.16,60.18,47.07,60,47,59.65Z"/><path class="cls-21" d="M48.81,59c-.16-.68,0-1.25.53-1.38s.64.15.75.49a1.29,1.29,0,0,1-.73,1.33C49,59.55,48.88,59.31,48.81,59Z"/><path class="cls-21" d="M65.32,51.28c0-.39-.11-.88.44-1.09.34-.13.54.12.64.44a1,1,0,0,1-.5,1.14C65.55,51.87,65.41,51.65,65.32,51.28Z"/><path class="cls-22" d="M32.41,39.2a1.52,1.52,0,0,1-.79,1.58A1.13,1.13,0,0,1,30.35,40a1.51,1.51,0,0,1,.82-1.62A1.07,1.07,0,0,1,32.41,39.2Z"/><path class="cls-23" d="M30,45.78c.2.65,0,1-.53,1.21a.7.7,0,0,1-1-.5c-.1-.3.5-1.49.75-1.49C29.81,45,29.84,45.49,30,45.78Z"/><path class="cls-24" d="M70.07,35.5a11.9,11.9,0,0,1-3.68,1c-1.32.07-2.64.21-4,.16a35.15,35.15,0,0,1-6.23-.78,46.45,46.45,0,0,1-7.46-2.26,2,2,0,0,1-.87-.56,29.3,29.3,0,0,1,2.47-3.69c1.75-2.52,3.56-5,5.41-7.45,1.49-2,3-4,4.57-5.89a2.23,2.23,0,0,1,.66-.6,9.6,9.6,0,0,1,2.32.31l.38.92,0,.06a30.36,30.36,0,0,1,2,5.19c1.4,4.11,2.71,8.26,4,12.39C69.91,34.66,70,35.08,70.07,35.5ZM53,29.83a.64.64,0,0,0,.69.64,1,1,0,0,0,1-.55.88.88,0,0,0-.17-1c-.12-.13-.25-.25-.37-.37a13.42,13.42,0,0,0,1.27-2.36A.89.89,0,0,0,55,25c-.49-.29-.83,0-1.09.34-1,1.42-1.95,2.84-2.88,4.3a1.1,1.1,0,0,0,0,1.07.36.36,0,0,0,.52.14,2.53,2.53,0,0,0,1.21-.93ZM62.17,21a1.71,1.71,0,0,0,.42,2.32,12.77,12.77,0,0,0,.23,1.4c.15.58,0,1.25.47,1.75a2.84,2.84,0,0,0,.37,1.28c-.25.52.1,1,.09,1.51-.46.18-.79.47-.71,1a1,1,0,0,0,1.21.93,3.74,3.74,0,0,0,.4,1c.28.37.3,1,.91,1.06,0,.13,0,.25.07.37a1.15,1.15,0,0,0,1.59.85,1,1,0,0,0,.56-1.47c-.07-.19-.16-.37-.23-.55-.15-.85-.24-1.72-.46-2.56a15.83,15.83,0,0,0-1.14-3l-.27-.69a12.35,12.35,0,0,0-1.17-4c-.1-.5-.08-1.05-.56-1.4,0-.12,0-.28-.09-.36-.37-.4-.6-1.14-1.29-.92S62.17,20.48,62.17,21ZM58.55,34.68a1.23,1.23,0,0,0,1.13-1.61,1.43,1.43,0,0,0-1.61-1.22A1.35,1.35,0,0,0,57,33.52C57.15,34.47,57.66,34.84,58.55,34.68Zm0-10.47a1.57,1.57,0,0,0-1.62-1.06,1.41,1.41,0,0,0-1,1.69,1.2,1.2,0,0,0,1.51,1A1.39,1.39,0,0,0,58.55,24.21Zm3.29-5.79a1,1,0,0,0-1.26-.85,1.1,1.1,0,0,0-1,1.2,1.4,1.4,0,0,0,1.25,1A1.13,1.13,0,0,0,61.84,18.42ZM57.79,28.6a1.12,1.12,0,0,0-2.21.31,1.07,1.07,0,0,0,1.21.86A1.11,1.11,0,0,0,57.79,28.6ZM61.05,27c.82-.16,1.17-.58,1-1.28a1.17,1.17,0,0,0-1.17-.79c-.52,0-.92.72-.84,1.3S60.43,27.18,61.05,27Zm-6.87,6.44c.71-.12,1-.48.89-1.12a.87.87,0,0,0-1.1-.82A1.13,1.13,0,0,0,53,32.67.92.92,0,0,0,54.18,33.45Zm7.46-4.56a1.18,1.18,0,0,0-1.13-.8,1.16,1.16,0,0,0-.89,1.21,1,1,0,0,0,1.2.83A1.07,1.07,0,0,0,61.64,28.89ZM62.29,33a1,1,0,1,0,.3,1.91.83.83,0,0,0,.73-1.09C63.22,33.2,63,32.77,62.29,33Zm-3.7-10.32a.88.88,0,0,0,1.1.75,1,1,0,0,0,.82-1.16.93.93,0,0,0-1.18-.75A.86.86,0,0,0,58.59,22.64Z"/><path class="cls-25" d="M63.29,15.69A9.6,9.6,0,0,0,61,15.38a2.31,2.31,0,0,0-.57-.86,6.92,6.92,0,0,1-2.08-4.15A2.7,2.7,0,0,1,58.52,9c.27-.69,1.21-.73,1.9,0a2.45,2.45,0,0,1,.84,1.22c0,.19.05.44.32.44s.32-.28.35-.49a2.36,2.36,0,0,1,1.48-2c.93-.38,1.44-.11,1.64.86a4.17,4.17,0,0,1,0,1.86c-.12.46,0,.6.5.52.67-.13,1.4-.13,1.74.53s-.08,1.36-.53,1.91a4.67,4.67,0,0,1-2.47,1.5A8.23,8.23,0,0,0,63.29,15.69Z"/><path class="cls-26" d="M63.75,29.27c0-.51-.34-1-.09-1.51.6.16,1.22.56,1.77-.06a5.39,5.39,0,0,0,.52-.79,15.83,15.83,0,0,1,1.14,3c.22.84.31,1.71.46,2.56-1.32-.18-1.52-.1-2,.8-.61-.08-.63-.69-.91-1.06a3.74,3.74,0,0,1-.4-1c.5-.29,1-.58.79-1.3S64.35,29.14,63.75,29.27Z"/><path class="cls-27" d="M52.81,29.89a2.53,2.53,0,0,1-1.21.93.36.36,0,0,1-.52-.14,1.1,1.1,0,0,1,0-1.07c.93-1.46,1.91-2.88,2.88-4.3.26-.38.6-.63,1.09-.34a.89.89,0,0,1,.34,1.18,13.42,13.42,0,0,1-1.27,2.36l-.28.08c-.43-.56-.64.08-.86.22A.7.7,0,0,0,52.81,29.89Z"/><path class="cls-26" d="M64.51,22.25a12.35,12.35,0,0,1,1.17,4,1.63,1.63,0,0,0-2.39.26c-.46-.5-.32-1.17-.47-1.75a12.77,12.77,0,0,1-.23-1.4C63.89,23.39,64.17,23.24,64.51,22.25Z"/><path class="cls-28" d="M58.55,34.68c-.89.16-1.4-.21-1.57-1.16a1.35,1.35,0,0,1,1.09-1.67,1.43,1.43,0,0,1,1.61,1.22A1.23,1.23,0,0,1,58.55,34.68Z"/><path class="cls-28" d="M58.55,24.21a1.39,1.39,0,0,1-1.12,1.6,1.2,1.2,0,0,1-1.51-1,1.41,1.41,0,0,1,1-1.69A1.57,1.57,0,0,1,58.55,24.21Z"/><path class="cls-28" d="M63.29,26.48a1.63,1.63,0,0,1,2.39-.26l.27.69a5.39,5.39,0,0,1-.52.79c-.55.62-1.17.22-1.77.06A2.84,2.84,0,0,1,63.29,26.48Z"/><path class="cls-28" d="M65.56,33.3c.47-.9.67-1,2-.8.07.18.16.36.23.55a1,1,0,0,1-.56,1.47,1.15,1.15,0,0,1-1.59-.85C65.6,33.55,65.58,33.43,65.56,33.3Z"/><path class="cls-28" d="M61.84,18.42a1.13,1.13,0,0,1-1,1.36,1.4,1.4,0,0,1-1.25-1,1.1,1.1,0,0,1,1-1.2A1,1,0,0,1,61.84,18.42Z"/><path class="cls-28" d="M57.79,28.6a1.11,1.11,0,0,1-1,1.17,1.07,1.07,0,0,1-1.21-.86,1.12,1.12,0,0,1,2.21-.31Z"/><path class="cls-28" d="M61.05,27c-.62.17-1-.1-1-.77s.32-1.29.84-1.3a1.17,1.17,0,0,1,1.17.79C62.22,26.43,61.87,26.85,61.05,27Z"/><path class="cls-28" d="M54.18,33.45A.92.92,0,0,1,53,32.67,1.13,1.13,0,0,1,54,31.51a.87.87,0,0,1,1.1.82C55.17,33,54.89,33.33,54.18,33.45Z"/><path class="cls-28" d="M61.64,28.89a1.07,1.07,0,0,1-.82,1.24,1,1,0,0,1-1.2-.83,1.16,1.16,0,0,1,.89-1.21A1.18,1.18,0,0,1,61.64,28.89Z"/><path class="cls-28" d="M63.75,29.27c.6-.13,1.09,0,1.29.64s-.29,1-.79,1.3A1,1,0,0,1,63,30.28C63,29.74,63.29,29.45,63.75,29.27Z"/><path class="cls-28" d="M62.29,33c.7-.19.93.24,1,.82a.83.83,0,0,1-.73,1.09,1,1,0,1,1-.3-1.91Z"/><path class="cls-28" d="M58.59,22.64a.86.86,0,0,1,.74-1.16.93.93,0,0,1,1.18.75,1,1,0,0,1-.82,1.16A.88.88,0,0,1,58.59,22.64Z"/><path class="cls-26" d="M64,20.85a1.78,1.78,0,0,0-1.78.16c0-.53-.26-1.22.4-1.44s.92.52,1.29.92C63.93,20.57,63.92,20.73,64,20.85Z"/><path class="cls-28" d="M64,20.85a1.78,1.78,0,0,0-1.78.16,1.64,1.64,0,0,0-.26.88,1.05,1.05,0,0,0-.32.67c0,.18.34.33.7.42a3.27,3.27,0,0,0,.3.35c1.3.06,1.58-.09,1.92-1.08C64.41,21.75,64.43,21.2,64,20.85Zm-1.16.26-.06,0Z"/><path class="cls-28" d="M54.8,29.07A1.2,1.2,0,0,1,54,30.49a1.16,1.16,0,0,1-1.43-.7,1.25,1.25,0,0,1,.79-1.48A1.23,1.23,0,0,1,54.8,29.07Z"/><path class="cls-29" d="M64.08,10.35a4.94,4.94,0,0,1-.43,1.41c-.06.19-.14.38-.42.34a.37.37,0,0,1-.34-.42c0-.73-.12-1.5.55-2.06.17-.15.3-.37.56-.27s.13.39.13.6S64.1,10.17,64.08,10.35Z"/><path class="cls-29" d="M65.2,12.93a.53.53,0,0,1-.53-.43c-.07-.35.22-.45.48-.54a3.53,3.53,0,0,1,.84-.25c.25,0,.58-.05.69.28a.62.62,0,0,1-.36.78A1.72,1.72,0,0,1,65.2,12.93Z"/><path class="cls-29" d="M60.1,11.13c0,.26-.14.39-.43.33a1.87,1.87,0,0,1-.9-1.18A.28.28,0,0,1,59,10C59.48,10,60.17,10.67,60.1,11.13Z"/></g><path class="cls-30" d="M73.53,126.88l8.15-56.17,30.6-.52L122.14,130h-46A2.72,2.72,0,0,1,73.53,126.88Z"/><path class="cls-1" d="M118.22,70.71l-5.94-.52L122.14,130H128a1.91,1.91,0,0,0,1.85-2.31Z"/><path class="cls-1" d="M108.42,74.85a.47.47,0,0,1-.47-.46c0-.12-.53-12.21-5.69-16.46a6.25,6.25,0,0,0-5.14-1.35C87,58.17,87.4,74.2,87.4,74.36a.48.48,0,1,1-1,0,33,33,0,0,1,1.09-8.65c1.63-5.89,4.89-9.38,9.43-10.1a7.17,7.17,0,0,1,5.89,1.56c5.49,4.52,6,16.64,6,17.16a.48.48,0,0,1-.46.49Z"/><path class="cls-31" d="M1.64,97.87c.33-.77.55-1.66,1.72-1.6a1.12,1.12,0,0,1,1.18,1c.2,1.22-.8,1.49-1.68,1.83Z"/><path class="cls-32" d="M36.05,90.45c-4.44,3-12,1.08-15.76-1.94-.35-.28-.65-.75-.3-1.11.57-.59,1.11-.06,1.56.23A18.73,18.73,0,0,0,33,90.72C34,90.68,35.05,90.54,36.05,90.45Z"/><path class="cls-33" d="M3.5,76.38c-1.17,1-2.29,2.24-3.24,1.32S.8,76,1.56,75.33a8.68,8.68,0,0,0,2.43-4c.3-.78.66-1.93,1.69-1.63s.78,1.45.51,2.25A10.57,10.57,0,0,1,3.5,76.38Z"/><path class="cls-15" d="M32.67,87.07a16.26,16.26,0,0,1-7.36-2.22c-.52-.33-1.27-.74-.84-1.48s1.18-.26,1.72,0c2.26,1,4.5,2.13,6.74,3.2Z"/><path class="cls-34" d="M3.76,51.4c.76.36,1.56.73,1.28,1.69a1.77,1.77,0,0,1-2.1,1.18c-.71-.08-1.4-.41-1.2-1.16A2.21,2.21,0,0,1,3.76,51.4Z"/><path class="cls-35" d="M8.55,87.78a1.42,1.42,0,0,1,0,2,1.47,1.47,0,0,1-2.18.08,1.31,1.31,0,0,1,0-1.94A1.62,1.62,0,0,1,8.55,87.78Z"/><path class="cls-36" d="M8.73,58.92c.7.33,1.19.76,1,1.48a1.22,1.22,0,0,1-1.5.93A1.06,1.06,0,0,1,7.29,60,1.46,1.46,0,0,1,8.73,58.92Z"/><path class="cls-37" d="M19.12,49.35c1.9-.82,3.5-.36,5.39,1C22.24,50.66,20.79,49.46,19.12,49.35Z"/><path class="cls-38" d="M13.78,93.26A1.24,1.24,0,1,1,12,95a1,1,0,0,1,0-1.53A1.31,1.31,0,0,1,13.78,93.26Z"/><path class="cls-39" d="M21.1,107.7a1.09,1.09,0,0,1-.14,1.53c-.53.51-1.25.71-1.75.14a1.16,1.16,0,0,1,.26-1.71A1.22,1.22,0,0,1,21.1,107.7Z"/><path class="cls-40" d="M14.33,83.52c.31.54.39,1-.14,1.36a.91.91,0,0,1-1.2,0c-.42-.43-.19-.9.22-1.27A.92.92,0,0,1,14.33,83.52Z"/><path class="cls-41" d="M19.67,59.8a.71.71,0,0,1-.88.18c-.45-.28-.35-.7-.06-1.06a.7.7,0,0,1,1.11-.11C20.11,59.09,20,59.44,19.67,59.8Z"/><path class="cls-42" d="M85.25,103.94c-.1.72.42,1.92-.2,2.45s-1.69.15-2.57.15c-1.62,0-1.62,0-1.62-1.57,0-1.14,0-2.28,0-3.42,0-.36,0-.63.49-.65s.45.33.45.64c0,1.11,0,2.22,0,3.33,0,.33-.11.74.47.72s.41-.39.4-.68c0-.76,0-1.52,0-2.28,0-.32-.23-.84.43-.85s.45.55.46.89c0,.76,0,1.52,0,2.28,0,.27-.06.62.38.62s.33-.37.34-.62c0-1.08,0-2.15,0-3.23,0-.37-.1-.81.51-.82s.41.46.42.76C85.27,102.36,85.25,103.06,85.25,103.94Z"/><path class="cls-43" d="M108.53,103.47a11.35,11.35,0,0,1,.1-2,1.3,1.3,0,0,1,1.55-1.06,1.27,1.27,0,0,1,1.2,1.35c0,.26.13.61-.32.66a.47.47,0,0,1-.6-.44c0-.27-.07-.63-.47-.58s-.49.38-.5.71c0,1,0,2,0,2.94,0,.32.1.67.51.68s.45-.29.5-.59a4.63,4.63,0,0,0,.1-.65c0-.29.16-.38.43-.38s.44.13.5.44a1.92,1.92,0,0,1-1.3,2.15c-.93.14-1.64-.58-1.68-1.72C108.52,104.53,108.53,104.06,108.53,103.47Z"/><path class="cls-43" d="M98,102.48l.62-1.24c.15-.3.37-.29.63-.17s.38.33.22.61a.56.56,0,0,1,0,.08c-1.24,1.33-.59,2.52.25,3.7.23.32.44.66-.07,1s-.57-.2-.73-.45c-.31-.47-.58-1-.93-1.56-.35.68-.65,1.25-1,1.83-.13.26-.31.38-.61.23a.38.38,0,0,1-.18-.62,4.74,4.74,0,0,1,.26-.5c.88-1.18,1.11-2.35,0-3.55-.26-.29-.2-.55.14-.78s.52.12.68.35S97.72,102,98,102.48Z"/><path class="cls-44" d="M90,103.69c0-.73,0-1.46,0-2.19,0-.24-.07-.51.25-.65a2.63,2.63,0,0,1,2.72.86c.48,1.12,0,2.7-1.12,2.83-.88.11-.79.59-.86,1.14-.05.35.21.92-.52.86s-.43-.59-.45-.94c0-.64,0-1.27,0-1.91Zm1-1c.1.34-.2.94.45.94s.83-.44.81-1-.24-.88-.79-.89C90.71,101.78,91.1,102.37,91,102.7Z"/><path class="cls-44" d="M89.4,106.11c0,.28-.12.41-.37.45a.42.42,0,0,1-.53-.25c-.53-1-.92-1-1.57,0a.54.54,0,0,1-.65.24c-.34-.1-.29-.35-.22-.61.38-1.47.75-3,1.13-4.42.06-.25.14-.49.48-.47s.53-.06.61.29C88.65,102.91,89,104.51,89.4,106.11Zm-1.53-3.26c-.4.42-.28.93-.45,1.36-.1.25,0,.42.29.43s.44-.07.39-.37C88,103.81,88,103.36,87.87,102.85Z"/><path class="cls-44" d="M103.89,106.11c0,.28-.11.4-.37.45a.42.42,0,0,1-.53-.25c-.52-1-.91-1-1.57,0a.52.52,0,0,1-.64.24c-.35-.1-.29-.35-.22-.62.38-1.47.75-2.94,1.13-4.41.06-.25.14-.49.48-.47s.53-.06.61.29Zm-1.51-3.19h-.17c-.1.42-.18.85-.29,1.26-.06.25-.06.43.26.46s.47-.11.42-.44S102.45,103.35,102.38,102.92Z"/><path class="cls-44" d="M106.31,102.64c.23-.55.43-1,.58-1.39s.45-.48.82-.34.17.47.08.7c-.56,1.48-1.15,3-1.69,4.43-.15.4-.33.59-.76.43s-.3-.53-.16-.78a3,3,0,0,0-.41-3.78,1.69,1.69,0,0,1-.19-.32c-.19-.3,0-.45.23-.61s.45-.13.61.15C105.67,101.57,105.93,102,106.31,102.64Z"/><path class="cls-45" d="M113.29,102.93c0-.48,0-1,0-1.43s.15-.5.51-.49.41.21.41.5c0,.94,0,1.89,0,2.84,0,.39-.18.49-.53.48s-.42-.19-.41-.48Z"/><path class="cls-42" d="M94.61,104.07c-.33-.06-.8.17-.79-.48s.45-.47.78-.47.81-.17.81.46S95,104,94.61,104.07Z"/><path class="cls-45" d="M114.23,106c0,.28,0,.51-.38.52s-.55-.07-.56-.46,0-.5.4-.5S114.27,105.62,114.23,106Z"/><path class="cls-31" d="M57.42,93.78c.75.45,1.64.8,1.35,2a1.2,1.2,0,0,1-1.24,1c-1.31,0-1.4-1-1.6-2Z"/><path class="cls-35" d="M66.66,102.2a1.56,1.56,0,0,1-2-.34A1.51,1.51,0,0,1,67,100,1.58,1.58,0,0,1,66.66,102.2Z"/><path class="cls-38" d="M59.93,106.52a1.33,1.33,0,0,1-1.83-.28,1.19,1.19,0,0,1,.36-1.75,1.13,1.13,0,0,1,1.6.25A1.26,1.26,0,0,1,59.93,106.52Z"/><path class="cls-39" d="M43.43,111.5a1.18,1.18,0,0,1-1.57-.37c-.43-.61-.51-1.35.18-1.76a1.25,1.25,0,0,1,1.75.53A1.2,1.2,0,0,1,43.43,111.5Z"/><path class="cls-40" d="M70.16,107.47a.88.88,0,0,1-.14,1.12c-.63.23-1.13.23-1.4-.35a.89.89,0,0,1,.26-1.18c.53-.35,1,0,1.28.41"/></svg>