<svg id="Слой_6" data-name="Слой 6" xmlns="http://www.w3.org/2000/svg" viewBox="0 0 141.83 130"><defs><style>.cls-1{fill:#4e4f4e;}.cls-2{fill:#f3d55b;}.cls-3{fill:#e9aa4e;}.cls-4{fill:#fbf5d5;}.cls-5{fill:#110505;}.cls-6{fill:#d48bce;}.cls-7{fill:#c898bf;}.cls-8{fill:#41ac98;}.cls-9{fill:#494646;}.cls-10{fill:#61c5bc;}.cls-11{fill:#fdbc49;}.cls-12{fill:#ea536f;}.cls-13{fill:#c1e7f4;}.cls-14{fill:#f88a3e;}.cls-15{fill:#a9699e;}.cls-16{fill:#323131;}.cls-17{fill:#f2e6f0;}.cls-18{fill:#e56ca4;}.cls-19{fill:#fed650;}.cls-20{fill:#e18945;}.cls-21{fill:#cae5f3;}.cls-22{fill:#816ea5;}.cls-23{fill:#b87448;}.cls-24{fill:#c7708f;}.cls-25{fill:#7cbd95;}.cls-26{fill:#e18abf;}.cls-27{fill:#eaab3c;}.cls-28{fill:#b5cdd5;}.cls-29{fill:#e5f6ff;}.cls-30{fill:#efd4dc;}.cls-31{fill:#c74767;}.cls-32{fill:#89caa4;}.cls-33{fill:#8c6baf;}.cls-34{fill:#eacbe3;}.cls-35{fill:#fefefe;}</style></defs><title>03 Получите заказ</title><path class="cls-1" d="M65,98.12c0-.09,0-.21,0-.27a19.19,19.19,0,0,0,1.25-2.48,2.32,2.32,0,0,0,.11.83c-.37.48-.54,1.06-.87,1.55-.11.1-.2.21-.08.36a6.27,6.27,0,0,0,1.18,1.34c2.39,2.59,5.46,2.42,7.37.11.34-.41.32-.42-.17-.6a2.07,2.07,0,0,1-1.37-1.16,1.35,1.35,0,0,1,.52-1.63,1.22,1.22,0,0,1,1.59.31A1.93,1.93,0,0,1,75,98.26c-.11.47.08.51.45.51,1.75,0,3.5-.16,5.25-.26a21.31,21.31,0,0,1,5.23.16A4.88,4.88,0,0,1,88.66,100a3,3,0,0,1,.67,3,2.92,2.92,0,0,1-2.81,1.62,1.59,1.59,0,0,1-1.48-1,.77.77,0,0,1,.38-1.1,1.18,1.18,0,0,1,1.34.19.14.14,0,0,1,0,.2s-.11,0-.17,0,0,0-.07,0c-.51-.27-1.07-.2-1.24.15s.17.94.63,1.12a2.3,2.3,0,0,0,2.39-.44,1.92,1.92,0,0,0,.74-2.1A3.08,3.08,0,0,0,87,99.43a11,11,0,0,0-4.4-.53c-2,.08-4.06.22-6.08.34-.55,0-1.11-.08-1.63,0s-.66.78-1,1.14a5,5,0,0,1-6.9-.08A16,16,0,0,1,65,98.12Zm8.45.16a2.4,2.4,0,0,0,.73.31c.15,0,.25.06.32-.13a1.79,1.79,0,0,0-.44-1.8.7.7,0,0,0-1.11.17C72.63,97.31,72.81,97.86,73.45,98.28Z"/><path class="cls-2" d="M65.49,97.75c.33-.49.5-1.07.87-1.55a16,16,0,0,0,2.4.08c.43,0,.6.16.56.57a5.18,5.18,0,0,1-1.13,2.79c-.41.51-.89.38-1.42-.3Z"/><path class="cls-3" d="M55.92,84.08c0-.53-.43-.89-.62-1.35a1.34,1.34,0,0,1,1.83-1.86,11.38,11.38,0,0,1,3.19,2.34A21.23,21.23,0,0,1,62.56,86a17.59,17.59,0,0,1,2.21,4.42,7.11,7.11,0,0,1,.08,4.49,4.59,4.59,0,0,1-1.24,2,1.25,1.25,0,0,1-1.84-.31,3.86,3.86,0,0,1-.37-1.82A12.21,12.21,0,0,0,60,90.12a44.21,44.21,0,0,0-3.1-4.65,1.64,1.64,0,0,0-.24-.21A1.62,1.62,0,0,0,55.92,84.08Z"/><path class="cls-4" d="M40.48,97.72a5.7,5.7,0,0,1-1.82-2.25,8.65,8.65,0,0,1-1-3.82,3.75,3.75,0,0,1,.19-1.28.88.88,0,0,1,.74-.62.89.89,0,0,1,.92.4,4.48,4.48,0,0,1,.67,1.67,7.59,7.59,0,0,0,1.91,4,3.43,3.43,0,0,1,.53.81c.47.88,0,1.59-1,1.55A2.05,2.05,0,0,1,40.48,97.72Z"/><path class="cls-2" d="M40.55,80C36,83.71,36.18,90.25,36.88,92.5h0a12.81,12.81,0,0,0,3.65,6.81,18.26,18.26,0,0,0,7.69,4.35A14.89,14.89,0,0,0,65,98.12c0-.09,0-.21,0-.27a19.19,19.19,0,0,0,1.25-2.48A4.24,4.24,0,0,0,66.38,94a18,18,0,0,0-1.89-7.61,14.52,14.52,0,0,0-7.73-7.47S47.37,74.4,40.55,80Zm12.18,6.63a1,1,0,0,1-.29-1.47,1.06,1.06,0,1,1,1.79,1.15A1.07,1.07,0,0,1,52.73,86.64Zm3-1.1A1,1,0,0,1,56,86.6c-.22.3-.46.15-.69,0-.42-.27-.55-.59-.29-1C55.19,85.41,55.45,85.42,55.7,85.54ZM55,87.67c-.2-.17-.46-.38-.29-.74s.33-.2.53-.08a.67.67,0,0,1,.28.8C55.35,87.86,55.18,87.82,55,87.67ZM51.15,89c0-.18.07-.35.11-.53,0,.18-.07.35-.11.53-.07.36-.15.73-.24,1.09C51,89.73,51.08,89.36,51.15,89Zm-1,3.19a10.32,10.32,0,0,1-.48,1c-.43.81-.93,1.57-1.4,2.35a1,1,0,0,0-.14,1,1,1,0,0,1,.14-1c.47-.78,1-1.54,1.4-2.35A10.32,10.32,0,0,0,50.19,92.19ZM49,100.44a1,1,0,0,1,.34,1.21.32.32,0,0,1-.51.09c-.35-.22-.61-.91-.44-1.18S48.75,100.36,49,100.44Zm-8.47-2.72a5.7,5.7,0,0,1-1.82-2.25,9.12,9.12,0,0,1-1-3.49l2.05-1.41a4.8,4.8,0,0,1,.45,1.25,7.59,7.59,0,0,0,1.91,4,3.43,3.43,0,0,1,.53.81c.47.88,0,1.59-1,1.55A2.05,2.05,0,0,1,40.48,97.72Zm7.71-1.17a1,1,0,0,0,.41.37A1,1,0,0,1,48.19,96.55Zm-1,3.16a1.09,1.09,0,0,1,1.2-1.81,1.07,1.07,0,0,1,.3,1.47A1.09,1.09,0,0,1,47.22,99.71Zm2.69-.42a1.76,1.76,0,0,1,.43.95.2.2,0,0,1-.16.25.53.53,0,0,1-.48-.14,1.39,1.39,0,0,1-.44-.62c-.06-.17-.1-.36.11-.49A.39.39,0,0,1,49.91,99.29Zm.63-1.13a.89.89,0,0,1,.25,1c-.15.22-.31.15-.48,0-.4-.26-.55-.64-.38-.93S50.32,98,50.54,98.16Zm1.28-1.46a4.83,4.83,0,0,1-2.19.47l-.28,0,.28,0a4.83,4.83,0,0,0,2.19-.47c.23-.1.45-.22.67-.34l.15-.12-.15.12C52.27,96.48,52.05,96.6,51.82,96.7Zm1.92-1.51a6,6,0,0,0,1.53-3.91A6,6,0,0,1,53.74,95.19Zm3.39-14.32a11.38,11.38,0,0,1,3.19,2.34A21.23,21.23,0,0,1,62.56,86a17.59,17.59,0,0,1,2.21,4.42,7.11,7.11,0,0,1,.08,4.49,4.59,4.59,0,0,1-1.24,2,1.25,1.25,0,0,1-1.84-.31,3.86,3.86,0,0,1-.37-1.82A12.21,12.21,0,0,0,60,90.12a44.21,44.21,0,0,0-3.1-4.65,1.64,1.64,0,0,0-.24-.21c-.24.33-.5.37-.8.08a2.25,2.25,0,0,0-.24-.21c-.21-.14-.42-.29-.33-.59a.59.59,0,0,1,.61-.46c0-.53-.43-.89-.62-1.35a1.34,1.34,0,0,1,1.83-1.86Z"/><path class="cls-5" d="M48.72,99.37a1.07,1.07,0,1,1-1.78-1.18,1.08,1.08,0,0,1,1.48-.29A1.07,1.07,0,0,1,48.72,99.37Z"/><path class="cls-5" d="M52.44,85.17a1.06,1.06,0,1,1,1.79,1.15,1.07,1.07,0,0,1-1.5.32A1,1,0,0,1,52.44,85.17Z"/><path class="cls-4" d="M38.56,89a1,1,0,1,1,1.14-1.72A1,1,0,0,1,40,88.74,1,1,0,0,1,38.56,89Z"/><path class="cls-6" d="M55.92,84.08a1.62,1.62,0,0,1,.76,1.18c-.24.33-.5.37-.8.08a2.25,2.25,0,0,0-.24-.21c-.21-.14-.42-.29-.33-.59A.59.59,0,0,1,55.92,84.08Z"/><path class="cls-6" d="M49,100.44a1,1,0,0,1,.34,1.21.32.32,0,0,1-.51.09c-.35-.22-.61-.91-.44-1.18S48.75,100.36,49,100.44Z"/><path class="cls-6" d="M55.06,85.6c.13-.19.39-.18.64-.06A1,1,0,0,1,56,86.6c-.22.3-.46.15-.69,0C54.93,86.33,54.8,86,55.06,85.6Z"/><path class="cls-6" d="M49.7,100.35a1.49,1.49,0,0,1-.45-.62c0-.17-.09-.36.12-.49a.39.39,0,0,1,.54.05,1.76,1.76,0,0,1,.43.95.21.21,0,0,1-.15.25A.54.54,0,0,1,49.7,100.35Z"/><path class="cls-6" d="M50.31,99.19c-.4-.26-.55-.64-.38-.93s.39-.22.61-.1a.89.89,0,0,1,.25,1C50.64,99.38,50.48,99.31,50.31,99.19Z"/><path class="cls-6" d="M55,87.67c-.2-.17-.46-.38-.29-.74s.33-.2.53-.08a.67.67,0,0,1,.28.8C55.35,87.86,55.18,87.82,55,87.67Z"/><path class="cls-5" d="M54.47,94.75A3.16,3.16,0,0,1,51.15,96c-.1,0-.24-.08-.21-.22s.18-.12.29-.13a4.68,4.68,0,0,0,1.49-.22,2,2,0,0,0,1.2-3,6.9,6.9,0,0,0-.6-.85c-.07-.11-.24-.21-.13-.34s.25,0,.36.06A2.74,2.74,0,0,1,54.47,94.75Z"/><path class="cls-7" d="M22.18,119.82"/><path class="cls-7" d="M80.66,93.45"/><path class="cls-7" d="M52.38,76.5a3.91,3.91,0,0,1-1.16.77,20.51,20.51,0,0,1-6.4,2.29,17.1,17.1,0,0,1-10.31-1.29,23.45,23.45,0,0,1-5.69-3.92,26.59,26.59,0,0,1-5.67-7.12,23.34,23.34,0,0,1-2.27-6,19.22,19.22,0,0,1,.68-11.33,15.13,15.13,0,0,1,2-3.75,19.88,19.88,0,0,1,5.65-5,19.53,19.53,0,0,1,6.75-2.58A18.07,18.07,0,0,1,45.8,39.6a24,24,0,0,1,5.79,3.33,24.48,24.48,0,0,1,6.92,7.75,18.71,18.71,0,0,1,2.08,5.84,21.12,21.12,0,0,1-1.11,11.13,18.61,18.61,0,0,1-1.9,3.88c0,.08-.12.15-.09.25a1.05,1.05,0,0,0-.11.07,16.1,16.1,0,0,1-2.48,2.54.21.21,0,0,0,0,.31l-1.13,1C53.64,75.67,53.6,75.82,52.38,76.5ZM36.25,60.71a.53.53,0,0,0,.19,0A5.85,5.85,0,0,0,38.66,59a7,7,0,0,0,1.52-3,3.66,3.66,0,0,0,.1-1.32,2.43,2.43,0,0,0-.64-1.6,1.24,1.24,0,0,0-2,.31c-.16.31-.3.63-.43,1a6.7,6.7,0,0,1-2.84,3.47,6.73,6.73,0,0,0-.88.63,1.16,1.16,0,0,0,.14,2.07A3,3,0,0,0,36.25,60.71Zm20.42,7a6.36,6.36,0,0,0,.76-1.35,16.72,16.72,0,0,0,1.21-5.12,19.83,19.83,0,0,0-1-8.85,5.72,5.72,0,0,0-3.73-3.8,1.23,1.23,0,0,0-1.23.25,2.48,2.48,0,0,0-.48,2.45,3.08,3.08,0,0,1,.21.65,18,18,0,0,1,.43,5.18,22.52,22.52,0,0,1-.7,4.83c-.39,1.41-1,2.72-1.44,4.12a4.91,4.91,0,0,0,.05,3.38,2,2,0,0,0,2.12,1.15A6.62,6.62,0,0,0,56.67,67.67Zm-34-15.29a3.63,3.63,0,0,0-.37.71,3.84,3.84,0,0,0-.25.67,14.07,14.07,0,0,0,.36,8.1,1.21,1.21,0,0,0,1.51.8,1.29,1.29,0,0,0,.93-1.51c0-.24-.09-.47-.14-.71A23.28,23.28,0,0,1,24,55.82c0-1.09.09-2.17,0-3.25a.72.72,0,0,0-.25-.56C23.34,51.7,23,51.79,22.64,52.38Zm9.09,7.14a1.38,1.38,0,1,0-1.51,2.3,1.35,1.35,0,0,0,1.9-.37A1.37,1.37,0,0,0,31.73,59.52Zm9.7-8.39a1.34,1.34,0,0,0-.36-1.9,1.36,1.36,0,0,0-1.93.39,1.38,1.38,0,0,0,.4,1.93A1.35,1.35,0,0,0,41.43,51.13Zm3.81-.35a.52.52,0,0,0,.1-.48c-.06-.14-.2-.14-.31-.14l-1.27.11a.39.39,0,0,0-.4.33.51.51,0,0,0,.28.53A1.39,1.39,0,0,0,45.24,50.78Zm-2.92,1.41a2.16,2.16,0,0,0,1.6,0,.29.29,0,0,0,0-.57,7.2,7.2,0,0,0-1.45-.24.38.38,0,0,0-.37.32A.4.4,0,0,0,42.32,52.19Zm-9.07,9.52c-.2.28,0,.59.33.64a2.57,2.57,0,0,0,1.1-.1.35.35,0,0,0,.24-.41.32.32,0,0,0-.3-.32,2.28,2.28,0,0,0-1.1,0A1.33,1.33,0,0,0,33.25,61.71Zm-2.17,2.7a1.77,1.77,0,0,0,1.32,0c.12-.1.12-.25,0-.3-.37-.14-.72-.42-1.17-.31-.14,0-.29,0-.3.24S30.92,64.31,31.08,64.41ZM41.41,53.62a.9.9,0,0,0,1.11-.06c.22-.19.17-.36-.06-.45a2,2,0,0,0-.9-.14.4.4,0,0,0-.39.29C41.11,53.46,41.29,53.53,41.41,53.62Zm-8.87,9.64a1.67,1.67,0,0,0,1.35,0,.19.19,0,0,0,0-.33,3.1,3.1,0,0,0-1.2-.28.34.34,0,0,0-.33.29C32.3,63.11,32.42,63.19,32.54,63.26ZM44.71,78.42v0h0v0Z"/><path class="cls-8" d="M80.24,83.8c.17.17.27.13.3-.11a2.77,2.77,0,0,0-.11-1.18.87.87,0,0,0-.47-.57.5.5,0,0,0-.5,0c-.17.12-.13.31-.09.47A2.68,2.68,0,0,0,80.24,83.8Z"/><path class="cls-9" d="M67.13,77.17a1.69,1.69,0,0,0-2.14.92,4.63,4.63,0,0,0-.36,2.43c.08.35.44.56.43,1l-.27-.36c0,.22,0,.32-.27.28-1.4-.22-1.71-.63-1.83-1.76,0-.13,0-.28,0-.42h0c0-.91,0-1.82,0-2.73A4.32,4.32,0,0,0,61,73.23a6.8,6.8,0,0,0-3.55-1.45,1.05,1.05,0,0,0-.11.07,16.1,16.1,0,0,1-2.48,2.54.21.21,0,0,0,0,.31l.14,0A14.32,14.32,0,0,0,57,73l.28-.29c.16-.43.46-.49.88-.38a6.32,6.32,0,0,1,2.75,1.43,3.72,3.72,0,0,1,1.21,2.42,14.7,14.7,0,0,1,0,2.57h0a5.71,5.71,0,0,0,.1,1.43A1.8,1.8,0,0,0,63,81.5a3.19,3.19,0,0,0,1.72.5.42.42,0,0,1,.46.31A8.29,8.29,0,0,0,68.49,86c1.43.87,2.93,1.61,4.34,2.52a23.86,23.86,0,0,1,4.89,4,7.63,7.63,0,0,1,2.06,7c-.06.3-.15.48-.51.41a2.61,2.61,0,0,0-1,.08,2.72,2.72,0,0,0-1.63,1,1.09,1.09,0,0,0,.38,1.75,1.59,1.59,0,0,0,1.87-.21,4,4,0,0,0,1.11-1.6c.1-.24.2-.29.45-.2a4.74,4.74,0,0,1,1.92,1.28c1.13,1.24,2.22,2.53,3.35,3.78A11.55,11.55,0,0,0,88.36,108a2.83,2.83,0,0,0,1.29.4c.14,0,.32,0,.33-.17s-.15-.18-.28-.19a2.72,2.72,0,0,1-1.17-.4,7.81,7.81,0,0,1-1.32-1,55.2,55.2,0,0,1-3.91-4.46,6.12,6.12,0,0,0-2.79-2.08c-.26-.09-.21-.22-.17-.39a8.8,8.8,0,0,0,.21-2.75A8.43,8.43,0,0,0,78,91.76a28.94,28.94,0,0,0-7.23-5.29,14.42,14.42,0,0,1-3.51-2.31,7.14,7.14,0,0,1-1.57-2.29l.4-.16a3.64,3.64,0,0,0,2.11-2.53A1.61,1.61,0,0,0,67.13,77.17ZM78.47,102a1,1,0,0,1-1.23.11.54.54,0,0,1-.19-.87,2.33,2.33,0,0,1,1.76-.83,1.56,1.56,0,0,1,.67,0A3.7,3.7,0,0,1,78.47,102Zm-11-23.8a1.27,1.27,0,0,1,.12,1.15,2.71,2.71,0,0,1-.34.73,3.32,3.32,0,0,1-1.49,1.18c-.14.06-.25.1-.31-.13a4.07,4.07,0,0,1,0-2.56c.16-.41.4-.79.89-.84A1.14,1.14,0,0,1,67.45,78.17Z"/><path class="cls-10" d="M63.18,91.33c-.06-.06-.14-.12-.2-.19a1.63,1.63,0,0,1,1-2.4,1.23,1.23,0,0,1,1.3.66,1.28,1.28,0,0,1-.2,1.49,1.7,1.7,0,0,1-1.08.63A1,1,0,0,1,63.18,91.33Z"/><path class="cls-11" d="M86.09,99.5a1.08,1.08,0,0,1-1.51.3,1,1,0,0,1-.29-1.41,1.28,1.28,0,0,1,1.62-.3A1.08,1.08,0,0,1,86.09,99.5Z"/><path class="cls-12" d="M83.51,91.5a1.39,1.39,0,0,1,1.65-.2.94.94,0,0,1,.28,1.28,1.23,1.23,0,0,1-1.62.28A1,1,0,0,1,83.51,91.5Z"/><path class="cls-12" d="M70.19,60.4a1,1,0,0,1,1.39-.26,1.3,1.3,0,0,1,.3,1.59.91.91,0,0,1-1.27.23A1.12,1.12,0,0,1,70.19,60.4Z"/><path class="cls-11" d="M93,95.93c-.39.54-.88.69-1.3.38a.79.79,0,0,1-.17-1.07,1,1,0,0,1,1.39-.39A.81.81,0,0,1,93,95.93Z"/><path class="cls-13" d="M46.6,81.56v0h0a0,0,0,0,1,0,0Z"/><path class="cls-14" d="M56.94,93.52a.13.13,0,0,1,.16-.09C57.09,93.54,57,93.56,56.94,93.52Z"/><path class="cls-14" d="M57.09,93.44h.15C57.19,93.46,57.14,93.5,57.09,93.44Z"/><path class="cls-15" d="M56.67,67.67a6.62,6.62,0,0,1-3.81,2.89,2,2,0,0,1-2.12-1.15A4.91,4.91,0,0,1,50.69,66c.41-1.4,1.05-2.71,1.44-4.12a22.52,22.52,0,0,0,.7-4.83,18,18,0,0,0-.43-5.18,3.08,3.08,0,0,0-.21-.65,2.48,2.48,0,0,1,.48-2.45,1.23,1.23,0,0,1,1.23-.25,5.72,5.72,0,0,1,3.73,3.8,19.83,19.83,0,0,1,1,8.85,16.72,16.72,0,0,1-1.21,5.12A6.36,6.36,0,0,1,56.67,67.67Z"/><path class="cls-16" d="M36.25,60.71a3,3,0,0,1-2.62-.23,1.16,1.16,0,0,1-.14-2.07,6.73,6.73,0,0,1,.88-.63,6.7,6.7,0,0,0,2.84-3.47c.13-.32.27-.64.43-1a1.24,1.24,0,0,1,2-.31,2.43,2.43,0,0,1,.64,1.6,3.66,3.66,0,0,1-.1,1.32c-.23.09-.48.17-.7.27A4.89,4.89,0,0,0,36.25,60.71Z"/><path class="cls-17" d="M22.64,52.38c.39-.59.7-.68,1.09-.37a.72.72,0,0,1,.25.56c.06,1.08-.05,2.16,0,3.25a23.28,23.28,0,0,0,.73,4.62c.05.24.1.47.14.71a1.29,1.29,0,0,1-.93,1.51,1.21,1.21,0,0,1-1.51-.8,14.07,14.07,0,0,1-.36-8.1,3.84,3.84,0,0,1,.25-.67A3.63,3.63,0,0,1,22.64,52.38Z"/><path class="cls-18" d="M36.25,60.71a4.89,4.89,0,0,1,3.23-4.47c.22-.1.47-.18.7-.27a7,7,0,0,1-1.52,3,5.85,5.85,0,0,1-2.22,1.66A.53.53,0,0,1,36.25,60.71Z"/><path class="cls-16" d="M31.73,59.52a1.37,1.37,0,0,1,.39,1.93,1.39,1.39,0,0,1-2.3-1.56A1.37,1.37,0,0,1,31.73,59.52Z"/><path class="cls-16" d="M41.43,51.13a1.35,1.35,0,0,1-1.89.42,1.38,1.38,0,0,1-.4-1.93,1.36,1.36,0,0,1,1.93-.39A1.34,1.34,0,0,1,41.43,51.13Z"/><path class="cls-18" d="M45.23,50.78a1.37,1.37,0,0,1-1.59.35.51.51,0,0,1-.28-.53.39.39,0,0,1,.4-.33L45,50.16c.11,0,.25,0,.31.14A.5.5,0,0,1,45.23,50.78Z"/><path class="cls-18" d="M42.32,52.19a.4.4,0,0,1-.2-.46.38.38,0,0,1,.37-.32,7.2,7.2,0,0,1,1.45.24.29.29,0,0,1,0,.57A2.16,2.16,0,0,1,42.32,52.19Z"/><path class="cls-18" d="M33.25,61.71a1.33,1.33,0,0,1,.27-.14,2.28,2.28,0,0,1,1.1,0,.32.32,0,0,1,.3.32.35.35,0,0,1-.24.41,2.57,2.57,0,0,1-1.1.1C33.23,62.3,33.05,62,33.25,61.71Z"/><path class="cls-18" d="M31.08,64.41c-.16-.1-.17-.24-.16-.42s.16-.21.3-.24c.45-.11.8.17,1.17.31.13,0,.13.2,0,.3A1.77,1.77,0,0,1,31.08,64.41Z"/><path class="cls-18" d="M41.41,53.62c-.12-.09-.3-.16-.24-.36a.4.4,0,0,1,.39-.29,2,2,0,0,1,.9.14c.23.09.28.26.06.45A.9.9,0,0,1,41.41,53.62Z"/><path class="cls-18" d="M32.54,63.26c-.12-.07-.24-.15-.2-.31a.34.34,0,0,1,.33-.29,3.1,3.1,0,0,1,1.2.28.19.19,0,0,1,0,.33A1.67,1.67,0,0,1,32.54,63.26Z"/><path class="cls-13" d="M44.71,78.42l0,0v0h0Z"/><path class="cls-19" d="M53.66,94.52a.17.17,0,0,1-.16.08h0a.16.16,0,0,1,.15-.1Z"/><path class="cls-19" d="M53.5,94.6l-.09.07c0-.09,0-.07.09-.07Z"/><path class="cls-7" d="M57,73a14.32,14.32,0,0,1-2,1.76,7,7,0,0,1,.43,1.1,13.27,13.27,0,0,0,1.29,2.75c.13.17.21.45.52.4.5-.73,1.24-1.33,1.74-2.06A3.4,3.4,0,0,1,60.9,75.8,17.46,17.46,0,0,0,59,74.16L57.25,72.7Z"/><path class="cls-15" d="M59,76.94h0c-.5.73-1.87,1.33-1.74,2.06a.89.89,0,0,0,.72-.19,10.64,10.64,0,0,0,2-1.37h0a.23.23,0,0,0,.07-.07l0,0h0a4.62,4.62,0,0,0,.84-1c.1-.17.19-.36,0-.52A3.4,3.4,0,0,0,59,76.94Z"/><path class="cls-2" d="M71.78,66.4a21.45,21.45,0,0,1-8.35-3.24C58,59.64,55.07,54.54,54,48.27a26,26,0,0,1,.75-12.69,17.38,17.38,0,0,1,16.18-12.3H72l.41.08.19.14a9.13,9.13,0,0,0,2.33,2.18,1.71,1.71,0,0,0,.21.26,25.81,25.81,0,0,0,4.59,3.16,25.19,25.19,0,0,0,8.06,3,24.17,24.17,0,0,1,3.62,11.49,21,21,0,0,1-4.75,14.72A25.9,25.9,0,0,1,78,65.54a6.32,6.32,0,0,1-1.92.74,28,28,0,0,1-4,0C72,66.21,71.89,66.34,71.78,66.4ZM66.12,49.14l.49.22a9,9,0,0,0,8.92-.42,5.2,5.2,0,0,0,2.17-5.5c-.23-.86-.56-1.13-1.42-1a10.83,10.83,0,0,0-1.5.33,21.89,21.89,0,0,1-6.34.8c-1.32,0-2.62-.21-3.93-.33s-1.79.6-1.52,2a3.39,3.39,0,0,0,.28.75A7.71,7.71,0,0,0,66.12,49.14Zm18-3.35a.82.82,0,0,0-1-.5c-.45.06-.51.43-.56.79a2.46,2.46,0,0,1-.11.45c-.2.57,0,.88.6,1A2,2,0,0,1,83,48a66.26,66.26,0,0,1-4,7,17.92,17.92,0,0,1-5,4.69,5.46,5.46,0,0,0-2.12,1.62,1.8,1.8,0,0,0,.76,2.57,6.63,6.63,0,0,0,3.35.36,10.35,10.35,0,0,0,5.74-3,24.86,24.86,0,0,0,4.31-5.66,30.05,30.05,0,0,0,2.12-4.62,16.35,16.35,0,0,0,1-5.6,2,2,0,0,0-1.24-2,2,2,0,0,0-2.32.8C85,44.67,84.81,45.41,84.14,45.79ZM56.76,34.49a2.86,2.86,0,0,0,.16,1.71,1.4,1.4,0,0,0,2.63.3,5.2,5.2,0,0,0,.71-1.2,11,11,0,0,1,3.9-5,6.37,6.37,0,0,0,1.73-1.92,1.33,1.33,0,0,0-1.34-2,5.23,5.23,0,0,0-1.77.56,12.55,12.55,0,0,0-4.28,3.75A8.21,8.21,0,0,0,56.76,34.49Zm3.08,11.69a1.55,1.55,0,0,0,1.72-1.32,1.56,1.56,0,1,0-1.72,1.32ZM80.53,42a1.49,1.49,0,0,0-1.71,1.3A1.55,1.55,0,0,0,80.18,45,1.54,1.54,0,1,0,80.53,42ZM66.75,26.51A1.49,1.49,0,0,0,68,28.17a1.45,1.45,0,0,0,1.65-1.28,1.48,1.48,0,0,0-1.3-1.71A1.52,1.52,0,0,0,66.75,26.51ZM58.61,47.16c0-.31-.07-.67-.54-.72s-1.18.72-1.25,1.31c0,.32,0,.56.44.61A1.37,1.37,0,0,0,58.61,47.16Zm23-1.53c-.68-.07-1,.3-1.1,1,0,.39-.08.79.44.89s1.16-.67,1.16-1.12S82,45.68,81.63,45.63ZM59.2,48.06a.8.8,0,0,0,.12.72.3.3,0,0,0,.43,0,2.68,2.68,0,0,0,1-1.15.6.6,0,0,0-.29-.74c-.3-.18-.51,0-.71.17A2.2,2.2,0,0,0,59.2,48.06Zm1.88.06c0,.29,0,.55.34.59a1.27,1.27,0,0,0,1.15-1c0-.36-.09-.67-.53-.72S61.17,47.44,61.08,48.12Zm17.82-1.3c-.05.37,0,.62.36.66s.82-.44.85-.88S80,46,79.68,46C79.11,46,79,46.45,78.9,46.82Z"/><path class="cls-20" d="M88.36,9.1a1.66,1.66,0,0,1,.89-2.67c.84-.34.84-.34.21-1a5.18,5.18,0,0,1-1.35-1.8A1.35,1.35,0,0,1,88.51,2c.54-.36,1-.3,1.62.25a8.14,8.14,0,0,1,1.59,2.21c.08.15.12.45.37.39s.21-.27.26-.44c.29-.94.57-1.87.87-2.8A2.4,2.4,0,0,1,94,.27c.67-.48,1.21-.32,1.5.47a5.17,5.17,0,0,1,0,2.84c-.12.56,0,.6.51.5,1.19-.23,2,.12,2.27.87A2.42,2.42,0,0,1,97,8l-.85.37a6.67,6.67,0,0,1,1.91,2.1c.17.37.31.73.07,1.07s-.67.3-1,.22a6.82,6.82,0,0,1-2.8-1.21c-.4-.32-.59-.16-.68.25a6.08,6.08,0,0,1-.44,1.39.89.89,0,0,1-.71.62c-.23-.28-.67-.31-.79-.75a7.43,7.43,0,0,1-.36-2.47c0-.6-.29-.67-.68-.54A4.8,4.8,0,0,1,88.36,9.1Zm6-5.59a2.31,2.31,0,0,0,0-.4c0-.2.16-.46-.13-.58s-.39.12-.55.27c-.64.57-.48,1.32-.49,2a.34.34,0,0,0,.33.41c.28,0,.35-.16.41-.34A4.78,4.78,0,0,0,94.33,3.51ZM95.48,6a1.79,1.79,0,0,0,1.1-.18.63.63,0,0,0,.33-.78c-.11-.32-.43-.3-.68-.26a4.11,4.11,0,0,0-.82.26c-.25.09-.53.2-.46.54A.53.53,0,0,0,95.48,6Zm-5-1.67c.06-.45-.64-1.13-1.06-1a.28.28,0,0,0-.27.24A1.85,1.85,0,0,0,90,4.68C90.32,4.74,90.45,4.61,90.45,4.35Z"/><path class="cls-1" d="M71.78,66.4c.11-.06.24-.19.35-.17a28,28,0,0,0,4,0,3.1,3.1,0,0,0-1,.66c-.84-.18-1.7,0-2.55-.15-.2-.07-.39-.11-.51.13a9,9,0,0,0-1,2.37c-1.83,4.73.35,8.58,4.53,9.59.74.18.75.15.67-.6a3,3,0,0,1,.63-2.5,1.93,1.93,0,0,1,2.44-.36,1.73,1.73,0,0,1,.59,2.24,2.7,2.7,0,0,1-2,1.71c-.68.16-.6.43-.37.91,1.09,2.27,2.43,4.41,3.65,6.61a30.46,30.46,0,0,1,3.12,6.85,7,7,0,0,1,0,4.4A4.26,4.26,0,0,1,80.8,101a4.16,4.16,0,0,1-3.86-2.61,2.25,2.25,0,0,1,.38-2.56,1.11,1.11,0,0,1,1.65-.2,1.7,1.7,0,0,1,.61,1.85c-.06.12-.14.19-.25.15s-.09-.13-.12-.2,0-.09,0-.13c0-.84-.41-1.51-1-1.51s-1.1.82-1,1.52a3.31,3.31,0,0,0,2.09,2.81,2.77,2.77,0,0,0,3.18-.38A4.4,4.4,0,0,0,84,95.63a15.93,15.93,0,0,0-2.11-6C80.54,87,79.06,84.52,77.63,82a21.36,21.36,0,0,0-1-2.09c-.47-.67-1.43-.36-2.14-.64a7.13,7.13,0,0,1-4.27-9A23.42,23.42,0,0,1,71.78,66.4Zm5.14,11A3.79,3.79,0,0,0,77,78.56c0,.21.09.35.38.32a2.59,2.59,0,0,0,2-1.71,1,1,0,0,0-.92-1.33C77.65,75.73,77.06,76.31,76.92,77.41Z"/><path class="cls-21" d="M87.79,32.07a25.19,25.19,0,0,1-8.06-3,25.81,25.81,0,0,1-4.59-3.16,1.71,1.71,0,0,1-.21-.26c.22-.19.47-.09.7-.06.9.13,1.79.29,2.69.42,1.84.26,3.67.55,5.51.84A2.49,2.49,0,0,0,84,28.48c.39.78,1.12.86,1.86.93.58.05.69-.44.9-.82a5.89,5.89,0,0,1,.62-1.16c.49.17,1.16-.17,1.46.53C88.57,29.34,88.21,30.72,87.79,32.07Z"/><path class="cls-21" d="M74.82,20.92a6.88,6.88,0,0,0,1.56.33l8,1.11a8.55,8.55,0,0,1,1,.26l-1.1,2.49-8.27-1.26-.13-.05a11.48,11.48,0,0,0-3.2-.31l-.19-.14,0-.2A14,14,0,0,1,74.82,20.92Z"/><path class="cls-2" d="M72.56,66.79c.85.13,1.71,0,2.55.15a21.63,21.63,0,0,0,1.43,3.14c.3.55.17.89-.38,1.1a7.45,7.45,0,0,1-4.33.3c-.91-.2-1-.9-.5-2Z"/><path class="cls-21" d="M88.36,9.1A4.8,4.8,0,0,0,90.65,9c.39-.13.72-.06.68.54A7.43,7.43,0,0,0,91.69,12c.12.44.56.47.79.75a2.65,2.65,0,0,1-.27,1c-.25,0-.5.11-.71-.11.08-.53-.28-.68-.69-.75a.59.59,0,0,0-.78.56h-.39L87.54,13l0-.15c.7-.35.64-1.08.82-1.68.09-.29-.22-.19-.36-.13a7.79,7.79,0,0,0-2.34,1.54l-.25.08c-.28-.12-.71-.08-.64-.58Z"/><path class="cls-21" d="M90,23.31a8.06,8.06,0,0,1-.68,2.6L88,25.76v-.15l.72-2.54A2.84,2.84,0,0,1,90,23.31Z"/><path class="cls-21" d="M90.83,20.24c-.12.45-.23.9-.35,1.35l-1.26-.2c.08-.92.45-1.79.6-2.7a3.47,3.47,0,0,1,1.24.25c-.06.35-.11.69-.17,1C90.82,20.05,90.69,20.11,90.83,20.24Z"/><path class="cls-22" d="M49.19,40.78a1.19,1.19,0,0,1-1-1.3,1,1,0,0,1,1-.72,1.82,1.82,0,0,1,1.1,1.3A.88.88,0,0,1,49.19,40.78Z"/><path class="cls-23" d="M89.11,14.55c-.17-.06-.41,0-.5-.22.6,0,1-.22,1-.89H90l1.47.19c.21.22.46.16.71.11.05.11,0,.18-.08.25s-.53-.23-.68.13c-.21.52.11.65.55.66l-.09.36a2,2,0,0,0-.83-.22A8.68,8.68,0,0,0,89.11,14.55Z"/><path class="cls-20" d="M88,25.76l1.33.15A9.67,9.67,0,0,1,88.88,28c-.3-.7-1-.36-1.46-.53V27.3C87.63,26.78,87.82,26.27,88,25.76Z"/><path class="cls-24" d="M53.29,24.23a1.57,1.57,0,0,1-1.58,1.41,1.23,1.23,0,0,1-1.17-1.41,1.52,1.52,0,0,1,1.6-1.44A1.29,1.29,0,0,1,53.29,24.23Zm-.27,0a1,1,0,0,0-.85-1.17c-.51-.07-1.25.6-1.32,1.2a1.1,1.1,0,0,0,.89,1.15A1.53,1.53,0,0,0,53,24.23Z"/><path class="cls-20" d="M89.22,21.39l1.26.2A6.42,6.42,0,0,1,90,23.31a2.84,2.84,0,0,0-1.28-.24V23a10.69,10.69,0,0,0,.33-1.57Z"/><path class="cls-21" d="M91.08,14.92a2,2,0,0,1,.83.22c-.11.6-.23,1.2-.34,1.8-.36.53-.85.15-1.28.2V17A9.91,9.91,0,0,0,91.08,14.92Z"/><path class="cls-25" d="M48.84,29.48c-.17.54-.33,1.1-1.06,1.18a1,1,0,0,1-1.07-.59,1,1,0,0,1,.23-1.21c.13-.11.29-.21.43-.31.31-.24.62-.6,1.05-.29A1.24,1.24,0,0,1,48.84,29.48Zm-.36-.07c0-.31.13-.79-.4-1-.24-.09-1.2.79-1.22,1.1a.69.69,0,0,0,.7.79C48.1,30.34,48.43,30.06,48.48,29.41Z"/><path class="cls-20" d="M90.29,17.14c.43-.05.92.33,1.28-.2a6.85,6.85,0,0,1-.51,2,3.47,3.47,0,0,0-1.24-.25v-.13A5.49,5.49,0,0,0,90.29,17.14Z"/><path class="cls-20" d="M84.37,13.6l-.93-.14v-.22l1.35-1.13c-.07.5.36.46.64.57-.11.4-.56.55-.68.94Z"/><path class="cls-20" d="M92,14.78c-.44,0-.76-.14-.55-.66.15-.36.48.07.68-.13Z"/><path class="cls-26" d="M90.83,20.24c-.14-.13,0-.19.06-.27Q91.06,20.15,90.83,20.24Z"/><path class="cls-21" d="M89.11,14.55c-.17-.06-.41,0-.5-.22l-1.22-.17-.66,0a.84.84,0,0,0-.46.35,1.14,1.14,0,0,1-1.51.45c-.57-.26-.48-.83-.39-1.34l-.93-.14h0v-.22a.39.39,0,0,0-.31.32l-.74.61c-.22,0-.38.1-.39.35l-.21.16c-.23,0-.38,0-.35.31h0l-.17.23,1,.31a2,2,0,0,1,1.26.29,45.76,45.76,0,0,1,4.51.8l.15,0A8.66,8.66,0,0,1,89.11,14.55Z"/><path class="cls-26" d="M72.38,23.15l0,.2L72,23.27Z"/><path class="cls-3" d="M84.14,45.79c.67-.38.89-1.12,1.35-1.66a2,2,0,0,1,2.32-.8,2,2,0,0,1,1.24,2,16.35,16.35,0,0,1-1,5.6,30.05,30.05,0,0,1-2.12,4.62,24.86,24.86,0,0,1-4.31,5.66,10.35,10.35,0,0,1-5.74,3,6.63,6.63,0,0,1-3.35-.36,1.8,1.8,0,0,1-.76-2.57A5.46,5.46,0,0,1,73.9,59.6a17.92,17.92,0,0,0,5-4.69,66.26,66.26,0,0,0,4-7,2,2,0,0,0,.11-.44A2.31,2.31,0,0,0,84.14,45.79Z"/><path class="cls-5" d="M66.12,49.14A7.71,7.71,0,0,1,63.27,46,3.39,3.39,0,0,1,63,45.2c-.27-1.38.28-2.09,1.52-2s2.61.29,3.93.33a21.89,21.89,0,0,0,6.34-.8,10.83,10.83,0,0,1,1.5-.33c.86-.11,1.19.16,1.42,1a5.2,5.2,0,0,1-2.17,5.5A7.49,7.49,0,0,0,66.12,49.14Z"/><path class="cls-4" d="M56.76,34.49a8.21,8.21,0,0,1,1.74-3.77A12.55,12.55,0,0,1,62.78,27a5.23,5.23,0,0,1,1.77-.56,1.33,1.33,0,0,1,1.34,2,6.37,6.37,0,0,1-1.73,1.92,11,11,0,0,0-3.9,5,5.2,5.2,0,0,1-.71,1.2,1.4,1.4,0,0,1-2.63-.3A2.86,2.86,0,0,1,56.76,34.49Z"/><path class="cls-20" d="M72.6,23.49a11.48,11.48,0,0,1,3.2.31l.13.05,8.27,1.26,0,.06a7.13,7.13,0,0,0-.35,1.65v.05c-1.84-.29-3.67-.58-5.51-.84-.9-.13-1.79-.29-2.69-.42-.23,0-.48-.13-.7.06A9.13,9.13,0,0,1,72.6,23.49Z"/><path class="cls-26" d="M66.12,49.14a7.49,7.49,0,0,1,9.41-.2,9,9,0,0,1-8.92.42Z"/><path class="cls-5" d="M59.84,46.18a1.56,1.56,0,0,1-1.38-1.73,1.56,1.56,0,0,1,3.1.41A1.55,1.55,0,0,1,59.84,46.18Z"/><path class="cls-5" d="M80.53,42A1.54,1.54,0,1,1,80.18,45a1.55,1.55,0,0,1-1.36-1.75A1.49,1.49,0,0,1,80.53,42Z"/><path class="cls-4" d="M66.75,26.51a1.52,1.52,0,0,1,1.64-1.33,1.48,1.48,0,0,1,1.3,1.71A1.45,1.45,0,0,1,68,28.17,1.49,1.49,0,0,1,66.75,26.51Z"/><path class="cls-6" d="M84.14,45.79a2.31,2.31,0,0,1-1,1.72c-.58-.1-.8-.41-.6-1a2.46,2.46,0,0,0,.11-.45c0-.36.11-.73.56-.79A.82.82,0,0,1,84.14,45.79Z"/><path class="cls-6" d="M58.61,47.16a1.37,1.37,0,0,1-1.35,1.2c-.39,0-.47-.29-.44-.61.07-.59.79-1.35,1.25-1.31S58.59,46.85,58.61,47.16Z"/><path class="cls-6" d="M81.63,45.63c.34,0,.49.39.5.79s-.78,1.19-1.16,1.12-.48-.5-.44-.89C80.61,45.93,81,45.56,81.63,45.63Z"/><path class="cls-6" d="M59.2,48.06a2.2,2.2,0,0,1,.51-1c.2-.19.41-.35.71-.17a.6.6,0,0,1,.29.74,2.68,2.68,0,0,1-1,1.15.3.3,0,0,1-.43,0A.8.8,0,0,1,59.2,48.06Z"/><path class="cls-6" d="M61.08,48.12c.09-.68.49-1.13,1-1.08s.54.36.53.72a1.27,1.27,0,0,1-1.15,1C61.05,48.67,61,48.41,61.08,48.12Z"/><path class="cls-6" d="M78.9,46.82c.1-.37.21-.84.78-.84.36,0,.46.3.43.62s-.48.92-.85.88S78.85,47.19,78.9,46.82Z"/><path class="cls-27" d="M94.33,3.51a4.78,4.78,0,0,1-.39,1.39c-.06.18-.13.37-.41.34a.34.34,0,0,1-.33-.41c0-.71-.15-1.46.49-2,.16-.15.28-.37.55-.27s.13.38.13.58A2.31,2.31,0,0,1,94.33,3.51Z"/><path class="cls-27" d="M95.48,6A.53.53,0,0,1,95,5.6c-.07-.34.21-.45.46-.54a4.11,4.11,0,0,1,.82-.26c.25,0,.57-.06.68.26a.63.63,0,0,1-.33.78A1.79,1.79,0,0,1,95.48,6Z"/><path class="cls-27" d="M90.45,4.35c0,.26-.13.39-.42.33a1.85,1.85,0,0,1-.91-1.14.28.28,0,0,1,.27-.24C89.81,3.22,90.51,3.9,90.45,4.35Z"/><path class="cls-28" d="M87.43,27.3v.13a5.89,5.89,0,0,0-.62,1.16c-.21.38-.32.87-.9.82-.74-.07-1.47-.15-1.86-.93a2.49,2.49,0,0,1-.21-1.61v-.05A33.46,33.46,0,0,0,87.43,27.3Z"/><path class="cls-21" d="M86.18,20.82c-2.6-.36-5.17-.85-7.75-1.31-.35-.06-.71-.09-1.06-.14s-.48-.29-.2-.54A11.62,11.62,0,0,1,79.31,17a2.89,2.89,0,0,1,2.25.22,4.66,4.66,0,0,0,1.16.22,27.9,27.9,0,0,1,3.15.5c.48.11,1,.15,1.44.28C86.93,19.11,86.56,20,86.18,20.82Z"/><path class="cls-28" d="M88.75,23.07,88,25.61l-3.85-.44,0-.06,1.1-2.49.12,0,3.33.43Z"/><path class="cls-28" d="M86.18,20.82c.38-.85.75-1.71,1.13-2.56l.11,0a22.17,22.17,0,0,0,2.41.34v.13c-.15.91-.52,1.78-.6,2.7l-.14.05A26.16,26.16,0,0,0,86.16,21Z"/><path class="cls-23" d="M86.16,21a26.16,26.16,0,0,1,2.92.49A10.69,10.69,0,0,1,88.75,23l-3.33-.43A17,17,0,0,1,86.16,21Z"/><path class="cls-23" d="M89.83,18.56a22.17,22.17,0,0,1-2.41-.34c.21-.54.41-1.07.61-1.6l.15,0L90.3,17v.15A5.49,5.49,0,0,1,89.83,18.56Z"/><path class="cls-20" d="M86.16,21s0-.09,0-.13c-2.6-.36-5.17-.85-7.75-1.31-.35-.06-.71-.09-1.06-.14s-.48-.29-.2-.54A11.62,11.62,0,0,1,79.31,17a2.89,2.89,0,0,1,2.25.22,4.66,4.66,0,0,0,1.16.22,27.9,27.9,0,0,1,3.15.5c.48.11,1,.15,1.44.28l.11,0c.21-.54.41-1.07.61-1.6a45.76,45.76,0,0,0-4.51-.8h0a2,2,0,0,0-1.26-.29l-1-.31a1.28,1.28,0,0,0-.35.18c-1.17,1.1-2.59,1.89-3.7,3.06-.79.83-1.6,1.64-2.41,2.46a6.88,6.88,0,0,0,1.56.33l8,1.11a8.55,8.55,0,0,1,1,.26l.12,0A17,17,0,0,1,86.16,21Z"/><path class="cls-29" d="M85.69,12.61A7.79,7.79,0,0,1,88,11.07c.14-.06.45-.16.36.13-.18.6-.12,1.33-.82,1.68Z"/><path class="cls-20" d="M89.64,13.44c0,.67-.43.88-1,.89l-1.22-.17c0-.25-.24-.22-.38-.29,0-.41.46-.5.53-.84Z"/><path class="cls-30" d="M87.54,13c-.07.34-.55.43-.53.84l-.28,0a8.22,8.22,0,0,1-2-.28c.12-.39.57-.54.68-.94l.25-.07,1.88.27Z"/><path class="cls-28" d="M91.5,13.63,90,13.44a.59.59,0,0,1,.78-.56C91.22,13,91.58,13.1,91.5,13.63Z"/><path class="cls-28" d="M90.3,17l-2.12-.41a8.66,8.66,0,0,1,.93-2,8.68,8.68,0,0,1,2,.37A9.91,9.91,0,0,1,90.3,17Z"/><path class="cls-29" d="M84.76,13.62a8.22,8.22,0,0,0,2,.28v.24a.84.84,0,0,0-.46.35,1.14,1.14,0,0,1-1.51.45c-.57-.26-.48-.83-.39-1.34Z"/><path class="cls-20" d="M86.73,14.14V13.9l.28,0c.14.07.37,0,.38.29Z"/><path class="cls-23" d="M84.18,25.17l3.85.44v.15c-.2.51-.39,1-.59,1.54a33.46,33.46,0,0,1-3.6-.48A7.13,7.13,0,0,1,84.18,25.17Z"/><path class="cls-31" d="M53,24.23a1.53,1.53,0,0,1-1.28,1.18,1.1,1.1,0,0,1-.89-1.15c.07-.6.81-1.27,1.32-1.2A1,1,0,0,1,53,24.23Z"/><path class="cls-32" d="M48.48,29.41c0,.65-.38.93-.92.91a.69.69,0,0,1-.7-.79c0-.31,1-1.19,1.22-1.1C48.61,28.62,48.46,29.1,48.48,29.41Z"/><path class="cls-33" d="M6.21,94.19a5.09,5.09,0,0,1-1.87-2.68.51.51,0,0,0-.42-.42A6.82,6.82,0,0,1,.46,88.87c-.18-.2-.3-.42-.12-.66s.45-.16.67,0l2.17,1.2a4.12,4.12,0,0,0,.52.24c.52.21.51.2.75-.31.35-.72.78-1.36,1.69-1.39a1.57,1.57,0,0,1,1.49,1,1.34,1.34,0,0,1-.48,1.54,3,3,0,0,1-1.31.67c-.19,0-.25.12-.18.31A3,3,0,0,0,8,93.57a1.56,1.56,0,0,0,1.86-1,6.54,6.54,0,0,0,.39-1.64c0-.2.06-.41.31-.42s.29.21.34.4a3.86,3.86,0,0,1-.35,2.69,2.61,2.61,0,0,1-3.68,1A3.89,3.89,0,0,1,6.21,94.19Zm-.59-4.31a1,1,0,0,0,.71-.42c0-.06.14-.13.06-.21s-.15,0-.23,0A.7.7,0,0,0,5.62,89.88Z"/><path class="cls-8" d="M50.51,112.07a2.33,2.33,0,0,1,2.51-.74,2.45,2.45,0,0,1,1.85,2,4.63,4.63,0,0,1,0,1.89c0,.15,0,.37-.27.32s-.15-.22-.13-.37a4.38,4.38,0,0,0-.2-2,1.91,1.91,0,0,0-3.26-.61c-.16.2-.18.3,0,.5a3.58,3.58,0,0,1,1.08,2,1.16,1.16,0,0,1-.56,1.38,1.38,1.38,0,0,1-1.6-.54,2.66,2.66,0,0,1-.19-2.39c.14-.42,0-.5-.34-.58a2.62,2.62,0,0,0-3.1,2.52c0,.28,0,.57.06.86,0,.13.1.3-.11.34s-.26-.11-.3-.27a3.48,3.48,0,0,1,.21-2.42A3.1,3.1,0,0,1,50,112.34C50.33,112.47,50.37,112.21,50.51,112.07Zm.2,1.6c-.16-.19-.26-.16-.32.08a2.69,2.69,0,0,0,0,1.23.91.91,0,0,0,.41.63.53.53,0,0,0,.51.07c.19-.1.18-.3.15-.47A2.9,2.9,0,0,0,50.71,113.67Z"/><path class="cls-10" d="M21.56,114.09a9.07,9.07,0,0,1-2.48,1.73.72.72,0,0,1-1-.79,1.62,1.62,0,0,1,.9-1.21,6.24,6.24,0,0,1,2.13-.88c.27,0,.53-.1.71.14s0,.5-.09.73A1.73,1.73,0,0,1,21.56,114.09Z"/><path class="cls-10" d="M44.35,109.07a1.31,1.31,0,0,1-1.84.26,1.36,1.36,0,0,1-.25-1.86c.55-.63,1.35-1,2.06-.51A1.63,1.63,0,0,1,44.35,109.07Z"/><path class="cls-12" d="M25.42,107.08a1.19,1.19,0,0,1,.27,1.68,1.26,1.26,0,0,1-1.76.24,1.18,1.18,0,0,1-.23-1.71A1.21,1.21,0,0,1,25.42,107.08Z"/><path class="cls-11" d="M20,71.12a1.11,1.11,0,0,1,1.57-.22,1,1,0,0,1,.21,1.46,1.32,1.32,0,0,1-1.69.21A1.08,1.08,0,0,1,20,71.12Z"/><path class="cls-12" d="M5.72,81.37a1.4,1.4,0,0,1-1.7.1,1,1,0,0,1-.22-1.33A1.28,1.28,0,0,1,5.49,80,1,1,0,0,1,5.72,81.37Z"/><path class="cls-12" d="M43.59,114.69a1,1,0,0,1-1.44.18,1.35,1.35,0,0,1-.22-1.65.94.94,0,0,1,1.33-.15A1.13,1.13,0,0,1,43.59,114.69Z"/><path class="cls-33" d="M22.32,115.36c.15-.17.29-.34.44-.49s.29-.24.49-.13.14.28.12.44a5.85,5.85,0,0,1-.67,2c-.14.26-.31.52-.47.77s-.21.3-.43.24-.27-.24-.29-.44A3.83,3.83,0,0,1,22.32,115.36Z"/><path class="cls-12" d="M.43,93.25a1.24,1.24,0,0,1-.22-1.63.89.89,0,0,1,1.27-.22A1.15,1.15,0,0,1,1.86,93,1,1,0,0,1,.43,93.25Z"/><path class="cls-19" d="M25.27,99.13A.82.82,0,0,1,26.41,99a.91.91,0,0,1,.12,1.2.85.85,0,0,1-1.15.13A.9.9,0,0,1,25.27,99.13Z"/><path class="cls-14" d="M131.74,74.72A30.4,30.4,0,0,1,138,82.44a28.35,28.35,0,0,1,3.63,11.27,29.05,29.05,0,0,1-8.55,24.21,26.05,26.05,0,0,1-5.26,4.13c-.35.21-.37.35-.15.68q1.21,1.86,2.38,3.74a.5.5,0,0,0,.59.29,1.6,1.6,0,0,1,1.64.91,1.57,1.57,0,0,1-.38,1.87c-.1-.26-.26-.22-.47-.13a1.17,1.17,0,0,1-1.52-.2,1.22,1.22,0,0,1-.13-1.49c.13-.22.06-.31-.07-.45L126,123.53c-.13-.14-.29-.26-.47-.16a16.35,16.35,0,0,0-1.83.9,11.33,11.33,0,0,0-1.89.63,30,30,0,0,1-8.41,1.5,29.22,29.22,0,0,1-11.67-2,1,1,0,0,0-1,.1c-1.55,1-3.12,2-4.69,3a.81.81,0,0,0-.48.85,1.36,1.36,0,0,1-.92,1.49,1.56,1.56,0,0,1-1.8-.3c.15-.34.36-.17.58-.08,1,.38,2-.31,1.67-1.3-.26-.81.18-1.09.58-1.51l.76-.76,2.33-2.32c.19-.19.33-.33,0-.49s-.93-.48-1.39-.72c-1-.74-2.1-1.38-3.08-2.17a29.53,29.53,0,0,1-3.36-43.35c.73-.8,1.54-1.52,2.31-2.27,0,0,.07-.06.07-.07s-.09,0-.14,0l-5.37,3.26c-.2.11-.36.31-.62.28.27-.48.78-.67,1.17-1,.81-.68,1.74-1.2,2.49-2,0,0,.15,0,.12-.08l-.12.08c-.56.19-1.11.4-1.68.57-1.89.57-3.11-.16-3.4-2a13.9,13.9,0,0,1,0-4.27,13.18,13.18,0,0,1,3.48-7.09c.6-.64,1.3-1.17,1.93-1.78a.11.11,0,0,0,0-.1h0a1.19,1.19,0,0,0,.55-.18,6.76,6.76,0,0,1,2.15-.6,10.06,10.06,0,0,1,3.54-.17,12.92,12.92,0,0,1,8.11,4.42,1.88,1.88,0,0,1,.18,2.46,9.14,9.14,0,0,1-.74.93c.18.09.3,0,.43-.07a7,7,0,0,1,1.71-.61c-.1.22-.33.26-.51.35l-3.38,1.82c-.13.07-.32.08-.35.36a29.84,29.84,0,0,1,19.2,0,.69.69,0,0,0-.43-.38L118,66.78c-.17-.09-.38-.12-.45-.34a2.13,2.13,0,0,1,.65.2,9.89,9.89,0,0,0,1.74.66s0,0,0,0,0,0,0,0l0,0-.47-.52A2.05,2.05,0,0,1,119.2,64a13.36,13.36,0,0,1,6.37-4.15,11.06,11.06,0,0,1,5.27-.2,6.87,6.87,0,0,1,2.72.85,19,19,0,0,1,2.61,2.47,13.11,13.11,0,0,1,2.77,11.16,2.16,2.16,0,0,1-2.63,1.72,15,15,0,0,1-2.11-.61.23.23,0,0,0-.23-.1s-.06-.14-.14,0l.15,0c0,.09.11.11.2.12,0,.17.13.24.25.32.7.51,1.4,1,2.07,1.54.43.34,1,.55,1.25,1.07a23.86,23.86,0,0,1-2.63-1.55c-1.1-.65-2.19-1.31-3.28-2l-.2-.12s-.11,0-.12,0,0,.07.06.09Zm-4.9-13.27-.12.11c-.17.51,0,.76.57,1,.84.28,1.69.5,2.52.8,1.58.56,3,1.43,4.6,2,.48.17.58,0,.64-.39a2,2,0,0,0-.23-1.14,5.52,5.52,0,0,0-2.18-2.26,5.26,5.26,0,0,0-5.08-.65,1,1,0,0,0-.73.58ZM97.4,61.12a2,2,0,0,0-.26-.18,5.8,5.8,0,0,0-6.9,2,2.44,2.44,0,0,0-.54,1.91c0,.49.29.64.74.61A2.35,2.35,0,0,0,91.58,65a17.72,17.72,0,0,1,4.35-2c.58-.18,1.16-.38,1.73-.6.25-.1.5-.26.49-.58a.67.67,0,0,0-.46-.6Zm14.95,64.63a28.79,28.79,0,0,0,.49-57.57A28.85,28.85,0,0,0,83.59,97a28.78,28.78,0,0,0,28.76,28.8Zm-15-54.35c-.14-.11-.13-.53-.48-.36a7.92,7.92,0,0,0-1.18.72c-.25.17-.06.35,0,.52s.15.27.33.17c.41-.25.81-.52,1.22-.78A.23.23,0,0,0,97.37,71.4Zm31.38,1.06c.2,0,.26-.17.35-.3s.13-.3,0-.42L127.9,71a.24.24,0,0,0-.36.1c-.08.15-.27.34-.09.48C127.86,71.92,128.32,72.18,128.75,72.46Zm-6.51-3.36s0,0-.07,0l-.08,0s0,0,0,0Zm-19.7,0s0,.05.06.05.05,0,.08,0,0,0-.05,0Z"/><path class="cls-14" d="M127.15,46.74a12.79,12.79,0,0,1,4,5.48c.74,1.69,1.23,3.48,2.09,5.13a5.07,5.07,0,0,0,1.26,1.72,3.16,3.16,0,0,0,1.6,1,6.41,6.41,0,0,0,2.67.47c.4,0,.72.14.81.56s-.23.86-.84.86a9.74,9.74,0,0,1-3.37-.6,12.64,12.64,0,0,1-1.61-1,.19.19,0,0,1,0-.08l-.12-.11h0a.13.13,0,0,0-.12-.12h0a.6.6,0,0,0,0-.2,19.47,19.47,0,0,1-2-4.34A19.71,19.71,0,0,0,129.33,51c-.33-.46-.54-1-1.13-1.29v0q0-.14-.09-.09l0,0c0-.08,0-.12-.08-.12h0a.11.11,0,0,0-.1-.12h0l-.11-.11a12.83,12.83,0,0,0-6-3.75A28.49,28.49,0,0,0,115,44.4l-1.3,0a47.06,47.06,0,0,0-5.31.11l-1.28.18a14.53,14.53,0,0,0-2.86.51c-.2.07-.43,0-.61.16a12.58,12.58,0,0,0-4.11,1.75l-.11.09h0a9.08,9.08,0,0,0-3.14,3.08l-.14.17-.1.18c-.14.22-.28.42-.4.64a32.46,32.46,0,0,0-1.84,4.34,11.4,11.4,0,0,1-2.69,4.65s0,.1,0,.15H91l-1.72,1.07c-.09,0-.21,0-.23.12h0c-.84.08-1.66.37-2.51.37a2.34,2.34,0,0,1-1-.06c0-.77.17-.94.94-.95a6.5,6.5,0,0,0,3.26-.79A6.13,6.13,0,0,0,92.29,57c.65-1.56,1.23-3.14,1.87-4.71a13.08,13.08,0,0,1,3-4.54,13.8,13.8,0,0,1,5.32-3.08,31.3,31.3,0,0,1,9.11-1.39,38.64,38.64,0,0,1,7,.41,20.59,20.59,0,0,1,7,2.17c.27.15.5.42.86.38h0c0,.14.09.14.18.14h0a.11.11,0,0,0,.13.09h0c0,.12.11.13.2.13h0Z"/><path class="cls-19" d="M89.29,61.44,91,60.37l.11.1c-.63.61-1.33,1.14-1.93,1.78a13.18,13.18,0,0,0-3.48,7.09,13.9,13.9,0,0,0,0,4.27c.29,1.89,1.51,2.62,3.4,2,.57-.17,1.12-.38,1.68-.57h0c-.75.75-1.68,1.27-2.49,2-.39.32-.9.51-1.17,1h0a.28.28,0,0,0-.33.22h0a.18.18,0,0,0-.11.16c-.34.23-.7.44-1,.69s-.42.11-.56-.16a14.14,14.14,0,0,1-1.46-4.47A13.34,13.34,0,0,1,85,66.33a12.75,12.75,0,0,1,3.76-4.46c.11-.09.25-.15.28-.31h0C89.17,61.58,89.26,61.56,89.29,61.44Z"/><path class="cls-19" d="M133.77,60.36a12.64,12.64,0,0,0,1.61,1,9.86,9.86,0,0,0,1.31,1.11A13.16,13.16,0,0,1,141,70a13.34,13.34,0,0,1-1.3,8.77c-.21.41-.38.49-.74.18a9.23,9.23,0,0,0-.89-.6l-.11-.16h0a.17.17,0,0,0-.22-.11h0c-.28-.52-.82-.73-1.25-1.07-.67-.54-1.37-1-2.07-1.54-.12-.08-.24-.15-.25-.32l0,0a15,15,0,0,0,2.11.61,2.16,2.16,0,0,0,2.63-1.72,13.11,13.11,0,0,0-2.77-11.16,19,19,0,0,0-2.61-2.47Z"/><path class="cls-19" d="M126.54,46.26c-.36,0-.59-.23-.86-.38a20.59,20.59,0,0,0-7-2.17,38.64,38.64,0,0,0-7-.41,31.3,31.3,0,0,0-9.11,1.39,13.8,13.8,0,0,0-5.32,3.08,13.08,13.08,0,0,0-3,4.54c-.64,1.57-1.22,3.15-1.87,4.71a6.13,6.13,0,0,1-2.48,3.11,6.5,6.5,0,0,1-3.26.79c-.77,0-.94.18-.94.95a.63.63,0,0,1-.41-.82.75.75,0,0,1,.79-.54,8.79,8.79,0,0,0,2.28-.28c.31-.08.42-.2.21-.51s-.38-.63-.83-.77a1.47,1.47,0,0,1-.89-1.85A1.58,1.58,0,0,1,88.59,56a1.57,1.57,0,0,1,1.27,1.64,1.74,1.74,0,0,0,.44,1.48,6.1,6.1,0,0,0,1.45-2.16c.64-1.52,1.22-3.07,1.83-4.6a13.4,13.4,0,0,1,4.68-6.13l.11-.09h0A26,26,0,0,1,101,44.7c3.79-1.5,7.78-1.75,11.79-1.83a2.87,2.87,0,0,0,1.2.06,33.48,33.48,0,0,1,4.13.33l1.17.17A19.07,19.07,0,0,1,126,45.84,1.72,1.72,0,0,1,126.54,46.26Z"/><path class="cls-19" d="M97.33,122.36c.46.24.91.5,1.39.72s.22.3,0,.49l-2.33,2.32-.76.76c-.4.42-.84.7-.58,1.51.32,1-.67,1.68-1.67,1.3-.22-.09-.43-.26-.58.08a1.61,1.61,0,0,1-.31-1.93,1.55,1.55,0,0,1,1.67-.83c.31,0,.41-.12.53-.33Z"/><path class="cls-19" d="M123.69,124.27a16.35,16.35,0,0,1,1.83-.9c.18-.1.34,0,.47.16l3.75,3.74c.13.14.2.23.07.45a1.22,1.22,0,0,0,.13,1.49,1.17,1.17,0,0,0,1.52.2c.21-.09.37-.13.47.13a1.46,1.46,0,0,1-1.73.32,1.35,1.35,0,0,1-1-1.41,1,1,0,0,0-.58-1C127,126.4,125.34,125.33,123.69,124.27Z"/><path class="cls-19" d="M136.11,60.06a3.16,3.16,0,0,1-1.6-1,2.15,2.15,0,0,0,.38-1.56A1.56,1.56,0,0,1,136.18,56,1.59,1.59,0,0,1,138,57.06a1.44,1.44,0,0,1-.74,1.82A2,2,0,0,0,136.11,60.06Z"/><path class="cls-19" d="M83.51,120.85a1.74,1.74,0,0,1-1.66-1.67,1.89,1.89,0,0,1,1.82-1.78,1.75,1.75,0,0,1,1.69,1.69A1.92,1.92,0,0,1,83.51,120.85Z"/><path class="cls-18" d="M78.75,112.69a1.35,1.35,0,0,1-1,1.21.89.89,0,0,1-.84-.83A1.4,1.4,0,0,1,78,111.89.81.81,0,0,1,78.75,112.69Z"/><path class="cls-18" d="M78.3,81.16a.73.73,0,0,1-.81-.8,1.27,1.27,0,0,1,1-1.15.78.78,0,0,1,.81.76A1.19,1.19,0,0,1,78.3,81.16Z"/><path class="cls-14" d="M86.8,78.24a.28.28,0,0,1,.33-.22C87.11,78.23,87,78.26,86.8,78.24Z"/><path class="cls-19" d="M127.05,46.63c-.09,0-.18,0-.2-.13A.18.18,0,0,1,127.05,46.63Z"/><path class="cls-14" d="M137.76,78.13a.17.17,0,0,1,.22.11C137.85,78.3,137.79,78.25,137.76,78.13Z"/><path class="cls-19" d="M126.73,46.41c-.09,0-.19,0-.18-.14A.19.19,0,0,1,126.73,46.41Z"/><path class="cls-13" d="M80.05,53.17l0,0v.06h0A0,0,0,0,1,80.05,53.17Z"/><path class="cls-14" d="M138,78.23l.11.16C138,78.36,137.94,78.33,138,78.23Z"/><path class="cls-14" d="M86.69,78.39a.18.18,0,0,1,.11-.16C86.83,78.33,86.75,78.35,86.69,78.39Z"/><path class="cls-19" d="M127.15,46.74l-.1-.11C127.11,46.64,127.16,46.67,127.15,46.74Z"/><path class="cls-34" d="M98.37,46.09l-.11.09Z"/><path class="cls-19" d="M126.86,46.5a.11.11,0,0,1-.13-.09Z"/><path class="cls-19" d="M112.35,125.75A28.78,28.78,0,0,1,83.59,97a28.85,28.85,0,0,1,29.25-28.77,28.79,28.79,0,0,1-.49,57.57Zm28.23-28.81A28.21,28.21,0,1,0,112,125.21C127.87,125.44,140.83,112.31,140.58,96.94Z"/><path class="cls-19" d="M132.64,61.53a5.52,5.52,0,0,1,2.18,2.26,2,2,0,0,1,.23,1.14c-.06.37-.16.56-.64.39-1.58-.56-3-1.43-4.6-2-.83-.3-1.68-.52-2.52-.8-.61-.21-.74-.46-.57-1l.12-.11h0a6.52,6.52,0,0,1,3.36-.49C131,61.06,131.82,61.37,132.64,61.53Z"/><path class="cls-19" d="M97.4,61.12l.29.15a.67.67,0,0,1,.46.6c0,.32-.24.48-.49.58-.57.22-1.15.42-1.73.6a17.72,17.72,0,0,0-4.35,2,2.35,2.35,0,0,1-1.14.47c-.45,0-.74-.12-.74-.61A6.24,6.24,0,0,1,90,64a5.61,5.61,0,0,1,3-2.54A7.15,7.15,0,0,1,97.4,61.12Z"/><path class="cls-19" d="M93.82,59.6a2.8,2.8,0,0,1,1.64-.39,13.42,13.42,0,0,1,12.79,6.17c.24.38.3.6-.2.75-.15.05-.29.13-.44.19s-.28,0-.36.12h0c-.09,0-.18,0-.21.11h0a7,7,0,0,0-1.71.61c-.13,0-.25.16-.43.07a9.14,9.14,0,0,0,.74-.93,1.88,1.88,0,0,0-.18-2.46,12.92,12.92,0,0,0-8.11-4.42A10.06,10.06,0,0,0,93.82,59.6Z"/><path class="cls-19" d="M117.19,66.33c-1.27-.55-1.08-.37-.46-1.28a13.14,13.14,0,0,1,9.2-5.77,13.54,13.54,0,0,1,4.58.11c.15,0,.3,0,.33.21a11.06,11.06,0,0,0-5.27.2A13.36,13.36,0,0,0,119.2,64a2.05,2.05,0,0,0,.24,2.83l.47.52h0a9.89,9.89,0,0,1-1.74-.66,2.13,2.13,0,0,0-.65-.2h0C117.45,66.3,117.32,66.32,117.19,66.33Z"/><path class="cls-34" d="M97.4,61.12a7.15,7.15,0,0,0-4.43.34A5.61,5.61,0,0,0,90,64a6.24,6.24,0,0,0-.3.86A2.44,2.44,0,0,1,90.24,63a5.8,5.8,0,0,1,6.9-2A2,2,0,0,1,97.4,61.12Z"/><path class="cls-34" d="M132.64,61.53c-.82-.16-1.6-.47-2.45-.56a6.52,6.52,0,0,0-3.36.49,1,1,0,0,1,.73-.58A5.26,5.26,0,0,1,132.64,61.53Z"/><path class="cls-19" d="M97.37,71.4a.23.23,0,0,1-.09.27c-.41.26-.81.53-1.22.78-.18.1-.26,0-.33-.17s-.27-.35,0-.52A7.92,7.92,0,0,1,96.89,71C97.24,70.87,97.23,71.29,97.37,71.4Z"/><path class="cls-19" d="M128.75,72.46c-.43-.28-.89-.54-1.3-.85-.18-.14,0-.33.09-.48a.24.24,0,0,1,.36-.1l1.15.71c.18.12.15.27,0,.42S129,72.45,128.75,72.46Z"/><path class="cls-19" d="M134.18,75.21c-.09,0-.17,0-.2-.12h0a.23.23,0,0,1,.23.1Z"/><path class="cls-19" d="M134,75.09l-.15,0c.08-.1.11,0,.14,0Z"/><path class="cls-19" d="M90.8,75.09l.12-.08c0,.13-.08,0-.12.08Z"/><path class="cls-35" d="M131.74,74.72l-.16-.16.06-.06.2.12Z"/><path class="cls-35" d="M122.24,69.1l-.1,0s0,0,0,0l.08,0S122.21,69.08,122.24,69.1Z"/><path class="cls-35" d="M102.54,69.07l.09,0s0,0,.05,0-.05,0-.08,0S102.56,69.09,102.54,69.07Z"/><path class="cls-35" d="M93.13,74.49c.05,0,.1-.06.14,0s0,0-.07.07Z"/><path class="cls-34" d="M126.84,61.45l-.12.11Z"/><path class="cls-35" d="M91.12,60.47l-.11-.1h.12A.11.11,0,0,1,91.12,60.47Z"/><path class="cls-35" d="M131.58,74.56s-.1,0-.06-.09.08,0,.12,0Z"/><path class="cls-19" d="M119.91,67.3l0,0s0,0,0,0,0,0,0,0Z"/><path class="cls-19" d="M133.52,60.07a5.3,5.3,0,0,1-1.37-1.75,42.77,42.77,0,0,1-2.07-5A16.64,16.64,0,0,0,128.3,50a1,1,0,0,1-.1-.24c.59.24.8.83,1.13,1.29a19.71,19.71,0,0,1,2.14,4.52,19.47,19.47,0,0,0,2,4.34A.6.6,0,0,1,133.52,60.07Z"/><path class="cls-35" d="M89.29,61.44c0,.12-.12.14-.23.12S89.2,61.45,89.29,61.44Z"/><path class="cls-35" d="M96.32,50.25l-.14.17Z"/><path class="cls-19" d="M128.08,49.59l-.08-.12C128.07,49.47,128.11,49.51,128.08,49.59Z"/><path class="cls-19" d="M128,49.47l-.1-.12A.11.11,0,0,1,128,49.47Z"/><path class="cls-19" d="M133.75,60.28l-.12-.11Z"/><path class="cls-19" d="M133.64,60.18l-.12-.12A.13.13,0,0,1,133.64,60.18Z"/><path class="cls-19" d="M127.9,49.35l-.11-.11Z"/><path class="cls-34" d="M99.57,47.08l-.11.09Z"/><path class="cls-19" d="M128.19,49.7l-.09-.09Q128.22,49.57,128.19,49.7Z"/><path class="cls-14" d="M117.19,66.33c.13,0,.26,0,.34.11C117.38,66.51,117.28,66.43,117.19,66.33Z"/><path class="cls-14" d="M107.25,66.44c.08-.15.23-.11.36-.12C107.5,66.41,107.4,66.49,107.25,66.44Z"/><path class="cls-14" d="M107,66.55c0-.11.12-.12.21-.11S107.15,66.6,107,66.55Z"/><path class="cls-14" d="M140.58,96.94c.25,15.37-12.71,28.5-28.62,28.27a28.24,28.24,0,1,1,28.62-28.27Zm-28.1,23.51a23.49,23.49,0,0,0,.21-47,22.85,22.85,0,0,0-17.06,7,23.46,23.46,0,0,0,.25,33.14A22.89,22.89,0,0,0,112.48,120.45Zm25.09-23.19a43.73,43.73,0,0,1-.89,5.44,24.36,24.36,0,0,1-1.91,5.2,25.41,25.41,0,0,1-3,4.66,25.33,25.33,0,0,1-8.58,6.84,25.36,25.36,0,0,1-5.21,1.89,44.59,44.59,0,0,1-5.38.85,24.56,24.56,0,0,0,25-24.88Zm-50.34-.45a25.92,25.92,0,0,1,25-25A24.28,24.28,0,0,0,91.74,82.14,23.5,23.5,0,0,0,87.23,96.81Z"/><path class="cls-19" d="M112.48,120.45A23.51,23.51,0,0,1,88.9,97a22.61,22.61,0,0,1,6.73-16.43,22.85,22.85,0,0,1,17.06-7,23.49,23.49,0,0,1-.21,47ZM114.61,98a2.12,2.12,0,0,0,.31-1.34c0-.34.1-.45.41-.48.46,0,.93-.09,1.39-.15a38.22,38.22,0,0,0,4.28-.55c2.38-.57,4.74-1.21,7.1-1.83l2.43-.65c-2.87.16-5.72.38-8.58.58a10.4,10.4,0,0,0-3.2.68c-1.16.47-2.37.85-3.54,1.3-.33.12-.5.12-.71-.23A2.61,2.61,0,0,0,110,98.08a.59.59,0,0,1-.06.82c-1.22,1.49-2.67,2.78-3.52,4.56-.63,1.31-1.43,2.53-2,3.87l-.15.2,0,0a.24.24,0,0,0,.15-.21c1.09-.93,2-2.06,3-3a8.46,8.46,0,0,0,1.9-2.58c.39-.81.87-1.58,1.27-2.38.15-.3.26-.3.55-.17a2.47,2.47,0,0,0,2.76-.39c1.63,1.4,3.28,2.8,4.9,4.21,1.19,1,2.42,2,3.55,3.14a49.78,49.78,0,0,1-4.7,2.71c-3.06,1.54-6.3,2.62-9.46,3.9a6.87,6.87,0,0,0-2.55,1.47,1.09,1.09,0,0,0-.13,1.6,4,4,0,0,0,2.26,1.45,18,18,0,0,0,7.3.55,23.1,23.1,0,0,0,6.49-1.64A6.35,6.35,0,0,0,123.9,115a2.71,2.71,0,0,0,.76-.5.66.66,0,0,0,.49-.17,16.49,16.49,0,0,0,2.28-1.79,20,20,0,0,0,3.83-4.57A10.91,10.91,0,0,0,133,101.6c-.07-1-.55-1.77-1.34-1.9a2.15,2.15,0,0,0-1.54.51c-1.69,1.1-3.1,2.54-4.72,3.73a15.65,15.65,0,0,1-2.16,1.57c-1.15-1-2.31-2-3.44-2.94C118.06,101.07,116.34,99.55,114.61,98ZM97,106.28l.18-.15a.83.83,0,0,0,.5-.87.92.92,0,0,0-.74-.77,2.44,2.44,0,0,0-1.23,0,.94.94,0,0,0-.85.72.87.87,0,0,0,.5.93l.2.15a6.56,6.56,0,0,0-.6.57,1.18,1.18,0,0,0,.56,1.94,2.61,2.61,0,0,0,1.54,0,1.2,1.2,0,0,0,.87-1,1.26,1.26,0,0,0-.52-1.17Zm-2.4-8.91c.07,1.95-1,2.5-2.31,1.76-.09,0-.21-.22-.3,0a.25.25,0,0,0,.11.32,1.81,1.81,0,0,0,2.86-.94,4.08,4.08,0,0,0,0-1.87,1.49,1.49,0,0,0-2.11-1.2,1.33,1.33,0,0,0-1,1.42A1.29,1.29,0,0,0,93,98.1,1.59,1.59,0,0,0,94.57,97.37Zm5.47-9c0-.31,0-.57-.06-.81a1.58,1.58,0,0,0-1.61-1.51,1.55,1.55,0,0,0-1.69,1.46,3.83,3.83,0,0,0,0,1.65,1.62,1.62,0,0,0,1.65,1.35,1.56,1.56,0,0,0,1.57-1.35A6.75,6.75,0,0,0,100,88.41Zm32.62,8.28c.12-.11.23-.2.32-.3a1,1,0,0,0-.41-1.64,2.63,2.63,0,0,0-2.09.2c-.16.07-.24.21-.15.34s.22,0,.33,0A2.8,2.8,0,0,1,132,95a.71.71,0,0,1,.73.76c0,.5-.27.7-.72.79-.24,0-.67-.18-.67.17s.43.14.66.19c.46.1.87.25.95.79a1,1,0,0,1-.82,1,2.79,2.79,0,0,1-1.54-.11c-.11,0-.28-.18-.35,0s.13.28.28.31a3.7,3.7,0,0,0,1.87.05,1.36,1.36,0,0,0,1.14-1.14C133.59,97.25,133.22,96.9,132.66,96.69ZM113.84,81H115c.15,0,.31,0,.29-.21s-.16-.16-.29-.16c-.5,0-1,0-1.51,0-.18,0-.44.12-.53-.12s.08-.41.2-.59a3.88,3.88,0,0,1,1.26-.9,1.39,1.39,0,0,0,.73-1.4,1,1,0,0,0-.75-.9,1.84,1.84,0,0,0-1.74.27c-.09.07-.17.16,0,.26s.17.17.28.09.2-.16.31-.22a1.13,1.13,0,0,1,1.41.24,1,1,0,0,1-.43,1.3c-.28.19-.59.34-.88.52a2,2,0,0,0-1,1.44c0,.28,0,.41.32.4S113.46,81,113.84,81ZM129,89.7h1.19c.11,0,.27,0,.27-.17s-.16-.16-.28-.16c-.57,0-1.15,0-1.73,0-.39,0-.42-.15-.28-.45a1.89,1.89,0,0,1,.85-.87c.23-.14.48-.25.7-.41a1.35,1.35,0,0,0,.59-1.41,1,1,0,0,0-.82-.83,1.85,1.85,0,0,0-1.68.32c-.07,0-.15.12,0,.21s.17.22.32.12.13-.12.2-.17a1.1,1.1,0,0,1,1.5.18,1,1,0,0,1-.46,1.34c-.35.22-.72.41-1.06.64a1.83,1.83,0,0,0-.73,1.33c0,.24,0,.33.28.32S128.63,89.7,129,89.7ZM104.8,111.45a12.29,12.29,0,0,1-.84,1.06,3.13,3.13,0,0,0-.76,2.65c0,.14,0,.28.21.29s.27-.12.26-.3,0-.36,0-.54a2.25,2.25,0,0,1,.63-1.87,7.78,7.78,0,0,0,.82-1.07c.18-.28.19-.5-.27-.49-.77,0-1.55,0-2.32,0-.16,0-.37,0-.38.26Zm1.12-30.12V79.44c0-.22-.1-.28-.29-.28s-.55.07-.62.33.2.08.31.12.14.26.15.41v3.13c0,.16,0,.38.24.37s.21-.21.21-.36C105.93,82.55,105.92,81.94,105.92,81.33Zm-3.58-1.69c.48-.12.55.08.54.43,0,1,0,2.06,0,3.09,0,.17,0,.37.27.36s.2-.21.2-.36c0-1.21,0-2.41,0-3.62,0-.39-.18-.42-.47-.37A.65.65,0,0,0,102.34,79.64ZM121,79.19c.57-.12.56.19.56.56,0,1,0,2,0,3,0,.17,0,.33.24.32s.18-.19.18-.32c0-1.24,0-2.49,0-3.73,0-.32-.15-.36-.4-.31A.76.76,0,0,0,121,79.19Zm-10.86-2c.66-.33.58.06.58.38V80.6c0,.16-.09.4.21.41s.22-.23.22-.39c0-1.21,0-2.42,0-3.62,0-.44-.22-.44-.5-.36A.75.75,0,0,0,110.13,77.14ZM94.3,86.53c.57-.16.52.2.52.56q0,1.48,0,3c0,.17-.07.39.23.38s.18-.22.19-.37c0-1.2,0-2.41,0-3.62,0-.39-.19-.42-.47-.35A.57.57,0,0,0,94.3,86.53Zm7.32,13.14v-.26c0-.22-.09-.47-.29-.44s-.06.28,0,.44l0,.48c0,.08,0,.14.13.14a.17.17,0,0,0,.12-.1C101.59,99.82,101.61,99.69,101.62,99.67Z"/><path class="cls-19" d="M137.57,97.26a24.56,24.56,0,0,1-25,24.88,44.59,44.59,0,0,0,5.38-.85,25.36,25.36,0,0,0,5.21-1.89,25.33,25.33,0,0,0,8.58-6.84,25.41,25.41,0,0,0,3-4.66,24.36,24.36,0,0,0,1.91-5.2A43.73,43.73,0,0,0,137.57,97.26Z"/><path class="cls-19" d="M87.23,96.81a23.5,23.5,0,0,1,4.51-14.67,24.28,24.28,0,0,1,20.49-10.32,25.92,25.92,0,0,0-25,25Z"/><path class="cls-11" d="M123.24,105.51a15.65,15.65,0,0,0,2.16-1.57c1.62-1.19,3-2.63,4.72-3.73a2.15,2.15,0,0,1,1.54-.51c.79.13,1.27.86,1.34,1.9a10.91,10.91,0,0,1-1.74,6.34,20,20,0,0,1-3.83,4.57,16.49,16.49,0,0,1-2.28,1.79.66.66,0,0,1-.49.17,1.52,1.52,0,0,0,0-1.73c-.63-.82-1.52-.69-2.44-.47a4.25,4.25,0,0,0,.1-.8c0-.4.17-.48.52-.46.56,0,1.12,0,1.68,0,.12,0,.29,0,.28-.15s-.17-.14-.29-.14h-1.19c-1.33,0-1.33,0-1.57,1.31a.36.36,0,0,1,0,.1c0,.43.11.58.52.48a3.19,3.19,0,0,1,1.06-.18,1.09,1.09,0,0,1,1.09,1.16,1.17,1.17,0,0,1-1.14,1.14,3.27,3.27,0,0,1-1.16-.18c-.15-.05-.37-.34-.48,0s.22.33.41.39a4.3,4.3,0,0,0,1.82.07,6.35,6.35,0,0,1-2.26,1.21,23.1,23.1,0,0,1-6.49,1.64,18,18,0,0,1-7.3-.55,4,4,0,0,1-2.26-1.45,1.09,1.09,0,0,1,.13-1.6,6.87,6.87,0,0,1,2.55-1.47c3.16-1.28,6.4-2.36,9.46-3.9a49.78,49.78,0,0,0,4.7-2.71c.2.15.4.3.59.46s.38.5.74.11.27-.55-.11-.79A2.27,2.27,0,0,1,123.24,105.51ZM112,115.45a1.92,1.92,0,0,1,.53-1.76,1.59,1.59,0,0,1,1.68,0l0,0c.1,0,.21.21.31,0a.23.23,0,0,0-.11-.32c-1.13-.66-2.51-.42-2.85.87a5.14,5.14,0,0,0-.09,1.66,1.54,1.54,0,0,0,2.14,1.48,1.39,1.39,0,0,0,1-1.59,1.35,1.35,0,0,0-1.34-1.09A1.75,1.75,0,0,0,112,115.45Zm17.64-10.09v-1.08c0-.14,0-.31-.16-.37a.35.35,0,0,0-.38.13c-.71.84-1.43,1.67-2.12,2.53-.25.3-.11.51.29.52s1,0,1.46,0c.32,0,.48.07.44.41a1.61,1.61,0,0,0,0,.38c0,.19-.08.43.25.42s.23-.25.21-.41c0-.53,0-1,.72-.8.11,0,.23,0,.23-.16s-.13-.15-.23-.13c-.71.15-.77-.26-.71-.79C129.61,105.79,129.59,105.57,129.59,105.36Z"/><path class="cls-9" d="M104.42,107.33c.6-1.34,1.4-2.56,2-3.87.85-1.78,2.3-3.07,3.52-4.56a.59.59,0,0,0,.06-.82,2.61,2.61,0,0,1,4.47-2.71c.21.35.38.35.71.23,1.17-.45,2.38-.83,3.54-1.3a10.4,10.4,0,0,1,3.2-.68c2.86-.2,5.71-.42,8.58-.58l-2.43.65c-2.36.62-4.72,1.26-7.1,1.83a38.22,38.22,0,0,1-4.28.55c-.46.06-.93.11-1.39.15-.31,0-.44.14-.41.48a2.12,2.12,0,0,1-.31,1.34.73.73,0,0,0-.63.75,2.47,2.47,0,0,1-2.76.39c-.29-.13-.4-.13-.55.17-.4.8-.88,1.57-1.27,2.38a8.46,8.46,0,0,1-1.9,2.58c-1,1-2,2.11-3,3Z"/><path class="cls-12" d="M114,98.79a.73.73,0,0,1,.63-.75c1.73,1.51,3.45,3,5.19,4.53,1.13,1,2.29,2,3.44,2.94a2.27,2.27,0,0,0,.41.41c.38.24.43.43.11.79s-.51.06-.74-.11-.39-.31-.59-.46c-1.13-1.11-2.36-2.1-3.55-3.14C117.26,101.59,115.61,100.19,114,98.79Z"/><path class="cls-9" d="M97,106.28l.41.29a1.26,1.26,0,0,1,.52,1.17,1.2,1.2,0,0,1-.87,1,2.61,2.61,0,0,1-1.54,0,1.18,1.18,0,0,1-.56-1.94,6.56,6.56,0,0,1,.6-.57l-.2-.15a.87.87,0,0,1-.5-.93.94.94,0,0,1,.85-.72,2.44,2.44,0,0,1,1.23,0,.92.92,0,0,1,.74.77.83.83,0,0,1-.5.87Zm-.74,2.25c.71,0,1.19-.39,1.18-1a1.34,1.34,0,0,0-1.28-1.17,1.2,1.2,0,0,0-1,1.19C95.11,108.17,95.53,108.53,96.23,108.53Zm0-3.8h-.22c-.3.05-.63.11-.71.47s.26.5.52.65l.15.06a.72.72,0,0,0,1-.18c.18-.18.3-.38.18-.62S96.62,104.74,96.27,104.73Z"/><path class="cls-9" d="M94.57,97.37A1.59,1.59,0,0,1,93,98.1a1.29,1.29,0,0,1-1.15-1.24,1.33,1.33,0,0,1,1-1.42A1.49,1.49,0,0,1,95,96.64a4.08,4.08,0,0,1,0,1.87,1.81,1.81,0,0,1-2.86.94.25.25,0,0,1-.11-.32c.09-.22.21,0,.3,0C93.59,99.87,94.64,99.32,94.57,97.37Zm-.08-.75a1.06,1.06,0,0,0-1.08-1,1.13,1.13,0,0,0-1.06,1.14,1,1,0,0,0,1,1A1.36,1.36,0,0,0,94.49,96.62Z"/><path class="cls-9" d="M100,88.41a6.75,6.75,0,0,1-.11.79,1.56,1.56,0,0,1-1.57,1.35,1.62,1.62,0,0,1-1.65-1.35,3.83,3.83,0,0,1,0-1.65,1.55,1.55,0,0,1,1.69-1.46A1.58,1.58,0,0,1,100,87.6C100,87.84,100,88.1,100,88.41Zm-.47-.08a2.76,2.76,0,0,0-.18-1.17,1.06,1.06,0,0,0-1.07-.74,1,1,0,0,0-1.06.75,3.46,3.46,0,0,0,0,2.27,1.14,1.14,0,0,0,2.16,0A2.42,2.42,0,0,0,99.57,88.33Z"/><path class="cls-9" d="M132.66,96.69c.56.21.93.56.84,1.18A1.36,1.36,0,0,1,132.36,99a3.7,3.7,0,0,1-1.87-.05c-.15,0-.35-.09-.28-.31s.24-.06.35,0a2.79,2.79,0,0,0,1.54.11,1,1,0,0,0,.82-1c-.08-.54-.49-.69-.95-.79-.23,0-.67.18-.66-.19s.43-.13.67-.17c.45-.09.73-.29.72-.79A.71.71,0,0,0,132,95a2.8,2.8,0,0,0-1.31.27c-.11,0-.24.18-.33,0s0-.27.15-.34a2.63,2.63,0,0,1,2.09-.2,1,1,0,0,1,.41,1.64C132.89,96.49,132.78,96.58,132.66,96.69Z"/><path class="cls-9" d="M123.9,115a4.3,4.3,0,0,1-1.82-.07c-.19-.06-.51-.1-.41-.39s.33,0,.48,0a3.27,3.27,0,0,0,1.16.18,1.17,1.17,0,0,0,1.14-1.14,1.09,1.09,0,0,0-1.09-1.16,3.19,3.19,0,0,0-1.06.18c-.41.1-.57,0-.52-.48a.36.36,0,0,0,0-.1c.24-1.31.24-1.31,1.57-1.31h1.19c.12,0,.29,0,.29.14s-.16.15-.28.15c-.56,0-1.12,0-1.68,0-.35,0-.53.06-.52.46a4.25,4.25,0,0,1-.1.8c.92-.22,1.81-.35,2.44.47a1.52,1.52,0,0,1,0,1.73A2.71,2.71,0,0,1,123.9,115Z"/><path class="cls-9" d="M113.84,81c-.38,0-.76,0-1.14,0s-.36-.12-.32-.4a2,2,0,0,1,1-1.44c.29-.18.6-.33.88-.52a1,1,0,0,0,.43-1.3,1.13,1.13,0,0,0-1.41-.24c-.11.06-.2.16-.31.22s-.2,0-.28-.09,0-.19,0-.26a1.84,1.84,0,0,1,1.74-.27,1,1,0,0,1,.75.9,1.39,1.39,0,0,1-.73,1.4,3.88,3.88,0,0,0-1.26.9c-.12.18-.29.37-.2.59s.35.11.53.12c.5,0,1,0,1.51,0,.13,0,.28,0,.29.16s-.14.21-.29.21Z"/><path class="cls-9" d="M129,89.7c-.4,0-.8,0-1.19,0s-.31-.08-.28-.32a1.83,1.83,0,0,1,.73-1.33c.34-.23.71-.42,1.06-.64a1,1,0,0,0,.46-1.34,1.1,1.1,0,0,0-1.5-.18c-.07,0-.13.13-.2.17s-.23,0-.32-.12,0-.16,0-.21a1.85,1.85,0,0,1,1.68-.32,1,1,0,0,1,.82.83,1.35,1.35,0,0,1-.59,1.41c-.22.16-.47.27-.7.41a1.89,1.89,0,0,0-.85.87c-.14.3-.11.46.28.45.58,0,1.16,0,1.73,0,.12,0,.28,0,.28.16s-.16.17-.27.17Z"/><path class="cls-9" d="M104.8,111.45h-2.65c0-.31.22-.26.38-.26.77,0,1.55,0,2.32,0,.46,0,.45.21.27.49a7.78,7.78,0,0,1-.82,1.07,2.25,2.25,0,0,0-.63,1.87c0,.18,0,.36,0,.54s0,.31-.26.3-.2-.15-.21-.29a3.13,3.13,0,0,1,.76-2.65A12.29,12.29,0,0,0,104.8,111.45Z"/><path class="cls-9" d="M105.92,81.33c0,.61,0,1.22,0,1.83,0,.15,0,.34-.21.36s-.24-.21-.24-.37V80c0-.15.07-.34-.15-.41s-.36.11-.31-.12.35-.33.62-.33.3.06.29.28Z"/><path class="cls-9" d="M102.34,79.64a.65.65,0,0,1,.54-.47c.29,0,.48,0,.47.37,0,1.21,0,2.41,0,3.62,0,.15.06.34-.2.36s-.26-.19-.27-.36c0-1,0-2.06,0-3.09C102.89,79.72,102.82,79.52,102.34,79.64Z"/><path class="cls-9" d="M121,79.19a.76.76,0,0,1,.58-.45c.25,0,.41,0,.4.31,0,1.24,0,2.49,0,3.73,0,.13.05.3-.18.32s-.24-.15-.24-.32c0-1,0-2,0-3C121.55,79.38,121.56,79.07,121,79.19Z"/><path class="cls-9" d="M110.13,77.14a.75.75,0,0,1,.52-.5c.28-.08.51-.08.5.36,0,1.2,0,2.41,0,3.62,0,.16.08.4-.22.39s-.21-.25-.21-.41V77.52C110.71,77.2,110.79,76.81,110.13,77.14Z"/><path class="cls-9" d="M94.3,86.53a.57.57,0,0,1,.48-.43c.28-.07.47,0,.47.35,0,1.21,0,2.42,0,3.62,0,.15.07.36-.19.37s-.23-.21-.23-.38q0-1.49,0-3C94.82,86.73,94.87,86.37,94.3,86.53Z"/><path class="cls-14" d="M101.62,99.67s0,.15-.06.26a.17.17,0,0,1-.12.1c-.08,0-.12-.06-.13-.14l0-.48c0-.16-.22-.4,0-.44s.28.22.29.44Z"/><path class="cls-9" d="M104.46,107.35a.24.24,0,0,1-.15.21l0,0,.15-.2Z"/><path class="cls-9" d="M112,115.45a1.75,1.75,0,0,1,1.31-.66,1.35,1.35,0,0,1,1.34,1.09,1.39,1.39,0,0,1-1,1.59,1.54,1.54,0,0,1-2.14-1.48,5.14,5.14,0,0,1,.09-1.66c.34-1.29,1.72-1.53,2.85-.87a.23.23,0,0,1,.11.32c-.1.19-.21,0-.31,0l0,0a1.59,1.59,0,0,0-1.68,0A1.92,1.92,0,0,0,112,115.45Zm1.25-.32a1.34,1.34,0,0,0-1.21,1.1,1.09,1.09,0,0,0,1,1,1.14,1.14,0,0,0,1.11-1.1A1,1,0,0,0,113.2,115.13Z"/><path class="cls-9" d="M129.59,105.36c0,.21,0,.43,0,.65-.06.53,0,.94.71.79.1,0,.24,0,.23.13s-.12.18-.23.16c-.71-.15-.76.27-.72.8,0,.16.09.39-.21.41s-.24-.23-.25-.42a1.61,1.61,0,0,1,0-.38c0-.34-.12-.43-.44-.41-.48,0-1,0-1.46,0s-.54-.22-.29-.52c.69-.86,1.41-1.69,2.12-2.53a.35.35,0,0,1,.38-.13c.19.06.15.23.16.37Zm-2.49,1.43h1.77c.11,0,.23,0,.23-.15,0-.72,0-1.44,0-2.29Z"/><path class="cls-19" d="M96.23,108.53c-.7,0-1.12-.36-1.13-1a1.2,1.2,0,0,1,1-1.19,1.34,1.34,0,0,1,1.28,1.17C97.42,108.14,96.94,108.53,96.23,108.53Z"/><path class="cls-19" d="M96.27,104.73c.35,0,.7,0,.88.39s0,.44-.18.62a.72.72,0,0,1-1,.18l-.15-.06c-.26-.15-.6-.26-.52-.65s.41-.42.71-.47Z"/><path class="cls-19" d="M94.49,96.62a1.36,1.36,0,0,1-1.16,1.16,1,1,0,0,1-1-1,1.13,1.13,0,0,1,1.06-1.14A1.06,1.06,0,0,1,94.49,96.62Z"/><path class="cls-19" d="M99.57,88.33a2.42,2.42,0,0,1-.18,1.16,1.14,1.14,0,0,1-2.16,0,3.46,3.46,0,0,1,0-2.27,1,1,0,0,1,1.06-.75,1.06,1.06,0,0,1,1.07.74A2.76,2.76,0,0,1,99.57,88.33Z"/><path class="cls-11" d="M113.2,115.13a1,1,0,0,1,.94,1,1.14,1.14,0,0,1-1.11,1.1,1.09,1.09,0,0,1-1-1A1.34,1.34,0,0,1,113.2,115.13Z"/><path class="cls-11" d="M127.1,106.79l2-2.44c0,.85,0,1.57,0,2.29,0,.14-.12.15-.23.15Z"/></svg>