<svg id="Слой_6" data-name="Слой 6" xmlns="http://www.w3.org/2000/svg" viewBox="0 0 133.35 130"><defs><style>.cls-1{fill:#c898bf;}.cls-2{fill:#c1e7f4;}.cls-3{fill:#e18945;}.cls-4{fill:#4e4f4e;}.cls-5{fill:#cae5f3;}.cls-6{fill:#ba97bc;}.cls-7{fill:#e9e957;}.cls-8{fill:#99699b;}.cls-9{fill:#fdfdfd;}.cls-10{fill:#110505;}.cls-11{fill:#b87448;}.cls-12{fill:#eaab3c;}.cls-13{fill:#c9e9fa;}.cls-14{fill:#89caa4;}.cls-15{fill:#cd689f;}.cls-16{fill:#f3d55b;}.cls-17{fill:#816ea5;}.cls-18{fill:#c7708f;}.cls-19{fill:#7cbd95;}.cls-20{fill:#e9aa4e;}.cls-21{fill:#fbf5d5;}.cls-22{fill:#e18abf;}.cls-23{fill:#d48bce;}.cls-24{fill:#c74767;}.cls-25{fill:#f88a3e;}.cls-26{fill:#fed650;}.cls-27{fill:#f1ce98;}.cls-28{fill:#fff;}.cls-29{fill:#e29930;}.cls-30{fill:#c75656;}.cls-31{fill:#3f5970;}.cls-32{fill:#d4dae3;}.cls-33{fill:#8ec8c0;}.cls-34{fill:#8c77b1;}.cls-35{fill:#add6e7;}.cls-36{fill:#ce6179;}.cls-37{fill:#91c9c1;}.cls-38{fill:#72b2e3;}.cls-39{fill:#c7687c;}.cls-40{fill:#d4bdd5;}.cls-41{fill:#8774aa;}.cls-42{fill:#d16d82;}.cls-43{fill:#9f8ebd;}.cls-44{fill:#e3a294;}</style></defs><title>04 Курьер позвонит</title><path class="cls-1" d="M63.49,89.19l-.05,0,0,0,.08,0Z"/><path class="cls-2" d="M63.49,89.19l.06,0-.08,0,0,0Z"/><path class="cls-3" d="M94.38,29.73a12,12,0,0,1-3.92,0c-1.34-.26-2.69-.45-4-.84a37.15,37.15,0,0,1-6-2.36,46.73,46.73,0,0,1-6.88-4.15,2.1,2.1,0,0,1-.73-.78,31.85,31.85,0,0,1,3.4-3.06c2.39-2.07,4.83-4.09,7.29-6.08,2-1.61,4-3.23,6.06-4.73a2.58,2.58,0,0,1,.82-.43,10.06,10.06,0,0,1,2.24.89l.15,1V9.3a30.54,30.54,0,0,1,.71,5.7c.36,4.47.63,8.94.92,13.41C94.44,28.85,94.39,29.29,94.38,29.73Zm-15.67-10a.66.66,0,0,0,.53.82,1,1,0,0,0,1.14-.3.93.93,0,0,0,.08-1.09c-.08-.15-.18-.3-.27-.46a14.39,14.39,0,0,0,1.87-2,.93.93,0,0,0,0-1.27c-.41-.42-.82-.25-1.17.06-1.34,1.18-2.68,2.35-4,3.57a1.13,1.13,0,0,0-.25,1.08.37.37,0,0,0,.49.27,2.6,2.6,0,0,0,1.44-.62Zm11.45-6.48A1.75,1.75,0,0,0,90,15.68a14.17,14.17,0,0,0-.12,1.45c0,.63-.3,1.26,0,1.87a2.88,2.88,0,0,0,0,1.37c-.37.46-.15,1-.29,1.54-.51.06-.91.27-1,.82a1.06,1.06,0,0,0,1,1.25,3.78,3.78,0,0,0,.14,1.12c.18.44.06,1,.64,1.3,0,.12,0,.25,0,.38A1.17,1.17,0,0,0,91.78,28c.62,0,1-.6.93-1.33,0-.2-.06-.4-.09-.61.07-.89.2-1.78.19-2.67a16.25,16.25,0,0,0-.38-3.32l-.09-.75a12.77,12.77,0,0,0-.16-4.27c0-.52.18-1.07-.21-1.54,0-.13,0-.28,0-.38-.26-.5-.31-1.3-1-1.24S90.28,12.72,90.16,13.25ZM83.07,26a1.27,1.27,0,0,0,1.54-1.32,1.47,1.47,0,0,0-1.3-1.63,1.38,1.38,0,0,0-1.51,1.39C81.73,25.43,82.14,25.93,83.07,26Zm2.65-10.47a1.59,1.59,0,0,0-1.35-1.46,1.45,1.45,0,0,0-1.44,1.43,1.25,1.25,0,0,0,1.27,1.35A1.42,1.42,0,0,0,85.72,15.53Zm4.75-4.95a1,1,0,0,0-1-1.17,1.12,1.12,0,0,0-1.26,1,1.44,1.44,0,0,0,1,1.32A1.15,1.15,0,0,0,90.47,10.58Zm-6.62,9.15a1.18,1.18,0,0,0-1-1.25,1.19,1.19,0,0,0-1.27,1,1.12,1.12,0,0,0,1,1.17A1.15,1.15,0,0,0,83.85,19.73ZM87.51,19c.86.06,1.33-.28,1.28-1a1.21,1.21,0,0,0-1-1.09c-.52-.12-1.11.49-1.17,1.09S86.85,19,87.51,19ZM79,23.66c.73.07,1.11-.23,1.17-.89a.9.9,0,0,0-.89-1.1,1.16,1.16,0,0,0-1.23.92A.93.93,0,0,0,79,23.66ZM87.62,21a1.06,1.06,0,0,0-2.11-.09,1,1,0,0,0,1,1.12A1.09,1.09,0,0,0,87.62,21Zm-.37,4.23a1,1,0,0,0-1.15,1,1,1,0,0,0,1,1,.85.85,0,0,0,1-.9C88.11,25.7,88,25.21,87.25,25.22ZM86.16,14a.92.92,0,0,0,.91,1,1,1,0,0,0,1.11-1,1,1,0,0,0-1-1.05C86.53,13,86.2,13.28,86.16,14Z"/><path class="cls-4" d="M73.64,118.41a28.94,28.94,0,0,0,.33-5.66c0-.18-.06-.36-.1-.54-.26-1.13-.26-1.13-1.37-.82a3.51,3.51,0,0,1-1.61.1,1.72,1.72,0,0,1-1.42-1.29,1.41,1.41,0,0,1,1.65-1.93,3.39,3.39,0,0,1,2.26,1.4c.29.37.48.32.81.09a9.38,9.38,0,0,0,4-7.57A35.93,35.93,0,0,0,77,91.32a15.56,15.56,0,0,1-.56-6.47,10.8,10.8,0,0,0-.34-3.8c-.39-1-.49-1.15.12-1.94a23.83,23.83,0,0,1,2.68-2.82,7,7,0,0,0,1.37-8.41c-.2-.41-.44-.54-.85-.36l-3.33-.18L75.89,67a.54.54,0,0,1,.42-.14,18.26,18.26,0,0,0,4,0,9.79,9.79,0,0,1,1.47,4.06,7.3,7.3,0,0,1-1.73,5c-1,1.14-2.13,2.21-3.13,3.37s-.55,1.35.47,2.57l.58-.78c.51-.67.73-.57,1.51-.92A1.84,1.84,0,0,1,82,80.8c.59,1,.82,1.44,0,2.14a3.52,3.52,0,0,1-3.68.46c-.55-.21-.68-.06-.83.43a11.92,11.92,0,0,0,.12,6.46A41.47,41.47,0,0,1,79,100.44c0,2.74-.35,5.4-2.05,7.69a9.48,9.48,0,0,1-2.48,2.33.5.5,0,0,0-.24.74,7.44,7.44,0,0,1,.38,3.68M79.4,83a2.64,2.64,0,0,0,2.19-.71c.47-.48.12-.54-.29-1.11s-.92-.49-1.46-.28-.72,0-1.12.53c-.27.33-.76.72-.59,1.09S79,82.89,79.4,83Zm-6.35,27.41a3,3,0,0,0-2-1.41.82.82,0,0,0-.85.25.85.85,0,0,0,0,.88,1.09,1.09,0,0,0,1,.73A3,3,0,0,0,73.05,110.36Z"/><path class="cls-5" d="M92.62,8.21a10.06,10.06,0,0,0-2.24-.89,2.35,2.35,0,0,0-.35-1,7.12,7.12,0,0,1-1-4.68A2.85,2.85,0,0,1,89.53.37c.45-.63,1.4-.44,1.92.42A2.68,2.68,0,0,1,92,2.22c0,.21-.06.46.2.53s.4-.2.48-.41a2.43,2.43,0,0,1,2-1.64c1-.15,1.46.25,1.42,1.27a4.29,4.29,0,0,1-.49,1.86c-.24.43-.1.62.37.65.7,0,1.43.22,1.61,1s-.43,1.33-1,1.77a4.83,4.83,0,0,1-2.85.88A9.46,9.46,0,0,0,92.62,8.21Z"/><path class="cls-6" d="M76.06,67.34l3.33.18c.1,1.48-.16,3.63-.07,5.11a4,4,0,0,1-.06.68,5.24,5.24,0,0,0-3.2-.64,10.47,10.47,0,0,1-2.3.2c-.36-.27-.07-.57,0-.83A19.86,19.86,0,0,1,76.06,67.34Z"/><path class="cls-4" d="M73.76,72.87a10.47,10.47,0,0,0,2.3-.2,5.24,5.24,0,0,1,3.2.64c.08.42-.24.48-.51.51A10.61,10.61,0,0,1,74,73.28C73.82,73.21,73.7,73.1,73.76,72.87Z"/><polygon class="cls-7" points="92.78 9.3 92.77 9.24 92.82 9.27 92.78 9.3"/><path class="cls-8" d="M80.34,64a5.68,5.68,0,0,1-2.73-.83A2.34,2.34,0,0,1,77,59.86a7.12,7.12,0,0,1,3.47-2.5,23.81,23.81,0,0,0,9-5.76,15.3,15.3,0,0,0,2.88-3.74,3.4,3.4,0,0,1,1.85-1.46c.57-.25,1.46.51,1.74,1.22,1,2.4.21,4.53-1,6.59a22.81,22.81,0,0,1-5.41,6.13,19.68,19.68,0,0,1-4.71,2.92A8.62,8.62,0,0,1,80.34,64Z"/><path class="cls-9" d="M63,33.5a1.37,1.37,0,0,1-1.29-2c1.72-3.06,3.85-5.73,7.35-6.91a2,2,0,0,1,.53-.13c.36,0,.37.62.57,1s0,.7-.28,1c-.6.57-.82.48-1.45,1a22.18,22.18,0,0,0-4.12,5.14A1.65,1.65,0,0,1,63,33.5Z"/><path class="cls-10" d="M75.42,45A4.2,4.2,0,0,1,72,41.76c0-.15,0-.34.15-.38s.25.14.32.28a6.46,6.46,0,0,0,1.14,1.66A2.72,2.72,0,0,0,78,43a11.17,11.17,0,0,0,.68-1.22c.08-.15.1-.41.33-.36s.15.3.13.47A3.64,3.64,0,0,1,75.42,45Z"/><path class="cls-10" d="M68.2,41.52a1.72,1.72,0,0,1-.87-.61,1.2,1.2,0,0,1,.52-1.61,1.16,1.16,0,1,1,1,2.08A3.25,3.25,0,0,1,68.2,41.52Z"/><path class="cls-10" d="M82.66,40.83a1.09,1.09,0,0,1-1-1.27,1.12,1.12,0,0,1,1.2-1.05,1.2,1.2,0,0,1,1.1,1.26A1.15,1.15,0,0,1,82.66,40.83Z"/><path class="cls-11" d="M89.64,21.91c.14-.51-.08-1.08.29-1.54.56.32,1.08.87,1.79.4a5,5,0,0,0,.71-.67,16.25,16.25,0,0,1,.38,3.32c0,.89-.12,1.78-.19,2.67-1.28-.51-1.49-.48-2.19.31-.58-.25-.46-.86-.64-1.3A3.78,3.78,0,0,1,89.65,24c.58-.17,1.17-.33,1.12-1.11S90.28,21.92,89.64,21.91Z"/><path class="cls-12" d="M78.55,19.76a2.6,2.6,0,0,1-1.44.62.37.37,0,0,1-.49-.27A1.13,1.13,0,0,1,76.87,19c1.29-1.22,2.63-2.39,4-3.57.35-.31.76-.48,1.17-.06a.93.93,0,0,1,0,1.27,14.39,14.39,0,0,1-1.87,2l-.3,0c-.29-.68-.66-.09-.91,0A.72.72,0,0,0,78.55,19.76Z"/><path class="cls-11" d="M92.18,15.08a12.77,12.77,0,0,1,.16,4.27A1.68,1.68,0,0,0,89.89,19c-.33-.61,0-1.24,0-1.87A14.17,14.17,0,0,1,90,15.68C91.27,16.06,91.58,16,92.18,15.08Z"/><path class="cls-13" d="M83.07,26c-.93-.07-1.34-.57-1.27-1.56a1.38,1.38,0,0,1,1.51-1.39,1.47,1.47,0,0,1,1.3,1.63A1.27,1.27,0,0,1,83.07,26Z"/><path class="cls-13" d="M85.72,15.53a1.42,1.42,0,0,1-1.52,1.32,1.25,1.25,0,0,1-1.27-1.35,1.45,1.45,0,0,1,1.44-1.43A1.59,1.59,0,0,1,85.72,15.53Z"/><path class="cls-13" d="M89.89,19a1.68,1.68,0,0,1,2.45.35l.09.75a5,5,0,0,1-.71.67c-.71.47-1.23-.08-1.79-.4A2.88,2.88,0,0,1,89.89,19Z"/><path class="cls-13" d="M90.43,26.4c.7-.79.91-.82,2.19-.31,0,.21.07.41.09.61.08.73-.31,1.31-.93,1.33a1.17,1.17,0,0,1-1.37-1.25C90.41,26.65,90.42,26.52,90.43,26.4Z"/><path class="cls-13" d="M90.47,10.58a1.15,1.15,0,0,1-1.31,1.11,1.44,1.44,0,0,1-1-1.32,1.12,1.12,0,0,1,1.26-1A1,1,0,0,1,90.47,10.58Z"/><path class="cls-13" d="M83.85,19.73a1.15,1.15,0,0,1-1.3.92,1.12,1.12,0,0,1-1-1.17,1.19,1.19,0,0,1,1.27-1A1.18,1.18,0,0,1,83.85,19.73Z"/><path class="cls-13" d="M87.51,19c-.66,0-.92-.34-.85-1s.65-1.21,1.17-1.09a1.21,1.21,0,0,1,1,1.09C88.84,18.68,88.37,19,87.51,19Z"/><path class="cls-13" d="M79,23.66a.93.93,0,0,1-1-1.07,1.16,1.16,0,0,1,1.23-.92.9.9,0,0,1,.89,1.1C80.13,23.43,79.75,23.73,79,23.66Z"/><path class="cls-13" d="M87.62,21a1.09,1.09,0,0,1-1.13,1,1,1,0,0,1-1-1.12,1.06,1.06,0,0,1,2.11.09Z"/><path class="cls-6" d="M98.59,47.05A29.7,29.7,0,0,0,97.52,36.2a18.71,18.71,0,0,0-3.14-6.47,12,12,0,0,1-3.92,0c-1.34-.26-2.69-.45-4-.84a37.15,37.15,0,0,1-6-2.36,46.73,46.73,0,0,1-6.88-4.15,2.15,2.15,0,0,1-.73-.77A19.28,19.28,0,0,0,59.69,32.11a28.7,28.7,0,0,0-2.94,16.67c.82,8,1.21,8.32,6.41,12.82A21.66,21.66,0,0,0,75.89,67a.54.54,0,0,1,.42-.14,18.26,18.26,0,0,0,4,0A20.83,20.83,0,0,0,90.1,63,21.53,21.53,0,0,0,98.59,47.05ZM67.33,40.91a1.21,1.21,0,0,1,.51-1.61,1.17,1.17,0,1,1,1,2.08,3.25,3.25,0,0,1-.69.14A1.72,1.72,0,0,1,67.33,40.91ZM69.89,26.5c-.6.57-.82.48-1.45,1a22.18,22.18,0,0,0-4.12,5.14A1.65,1.65,0,0,1,63,33.5a1.37,1.37,0,0,1-1.29-2c1.72-3.06,3.85-5.73,7.35-6.91a2,2,0,0,1,.53-.13c.36,0,.37.62.57,1A.78.78,0,0,1,69.89,26.5ZM75.42,45A4.2,4.2,0,0,1,72,41.76c0-.15,0-.34.15-.38s.25.14.32.28a6.63,6.63,0,0,0,1.14,1.66A2.73,2.73,0,0,0,78,43a11.17,11.17,0,0,0,.68-1.22c.08-.15.1-.41.33-.36s.15.3.13.47A3.64,3.64,0,0,1,75.42,45Zm6-.84-.17.14h0l.17-.14.07-.2.06,0A1.83,1.83,0,0,0,81.46,44.18Zm.29-.54.1-.11a.86.86,0,0,1,.07.1l0,0Zm.6-.4-.08-.06a1.06,1.06,0,0,1,.15-.15c.06-.06.09,0,0,0s0,0,.06-.07c.65,0,1.15-.52,1.85-.54-.72,0-1.22.54-1.91.61A.47.47,0,0,1,82.35,43.24Zm-.72-3.68a1.12,1.12,0,0,1,1.2-1.05,1.2,1.2,0,0,1,1.1,1.26,1.15,1.15,0,0,1-1.27,1.06A1.09,1.09,0,0,1,81.63,39.56ZM79.8,48c.46,0,.28-.58.34-.9h0C80.11,47.45,80.26,48,79.8,48Zm15.11,6.19a22.81,22.81,0,0,1-5.41,6.13,19.68,19.68,0,0,1-4.71,2.92,8.62,8.62,0,0,1-4.45.69,5.68,5.68,0,0,1-2.73-.83A2.34,2.34,0,0,1,77,59.86a7.12,7.12,0,0,1,3.47-2.5,23.81,23.81,0,0,0,9-5.76,15.3,15.3,0,0,0,2.88-3.74,3.46,3.46,0,0,1,1.85-1.47c.57-.24,1.46.52,1.74,1.23C96.86,50,96.11,52.15,94.91,54.21Z"/><path class="cls-13" d="M89.64,21.91c.64,0,1.09.26,1.13,1s-.54.94-1.12,1.11a1.06,1.06,0,0,1-1-1.25C88.73,22.18,89.13,22,89.64,21.91Z"/><path class="cls-13" d="M87.25,25.22c.74,0,.86.48.82,1.09a.85.85,0,0,1-1,.9,1,1,0,0,1-1-1A1,1,0,0,1,87.25,25.22Z"/><path class="cls-13" d="M86.16,14c0-.69.37-1,1-1a1,1,0,0,1,1,1.05,1,1,0,0,1-1.11,1A.92.92,0,0,1,86.16,14Z"/><path class="cls-11" d="M92,13.54a1.84,1.84,0,0,0-1.82-.29c.13-.53,0-1.28.77-1.33s.79.74,1,1.24C92,13.26,92,13.41,92,13.54Z"/><path class="cls-8" d="M82.45,43.13l-.1.11-.08-.06a1.06,1.06,0,0,1,.15-.15C82.48,43,82.51,43,82.45,43.13Z"/><path class="cls-14" d="M81.85,43.53a.86.86,0,0,1,.07.1l0,0-.12,0Z"/><path class="cls-14" d="M81.46,44.18l.07-.2.06,0-.13.16Z"/><path class="cls-14" d="M81.29,44.32l.17-.14h0l-.17.14Z"/><path class="cls-13" d="M92,13.54a1.84,1.84,0,0,0-1.82-.29,1.65,1.65,0,0,0-.48.81c-.28.21-.48.42-.49.59s.26.42.6.6a3.26,3.26,0,0,0,.2.43c1.29.38,1.6.3,2.2-.6C92.21,14.56,92.36,14,92,13.54Zm-1.22,0-.07,0Z"/><path class="cls-15" d="M86.13,40.87a3.64,3.64,0,0,1-.71,2.23c-.51.09-.75-.17-.64-.87a4.55,4.55,0,0,0,0-.52c0-.41,0-.83.39-1.05S85.91,40.44,86.13,40.87Z"/><path class="cls-15" d="M83.86,41.45c.29-.12.51.15.61.56a2.18,2.18,0,0,1-.7,1.73c-.46.16-.53-.27-.59-.69C83.07,42.27,83.26,41.72,83.86,41.45Z"/><path class="cls-15" d="M81.87,44c0-.43,0-1,.45-1.26.3-.18.46.08.52.42a1.45,1.45,0,0,1-.5,1.33C82,44.61,81.92,44.37,81.87,44Z"/><path class="cls-15" d="M71,46.22a3.54,3.54,0,0,1-.71,2.23c-.51.09-.74-.17-.64-.86,0-.18,0-.35,0-.53,0-.41,0-.83.39-1.05S70.79,45.8,71,46.22Z"/><path class="cls-15" d="M68.74,46.8c.29-.12.51.16.62.56a2.26,2.26,0,0,1-.71,1.74c-.46.16-.53-.28-.59-.7A1.35,1.35,0,0,1,68.74,46.8Z"/><path class="cls-15" d="M66.75,49.32c0-.43,0-1,.45-1.26.3-.17.46.08.52.43a1.47,1.47,0,0,1-.5,1.33C66.9,50,66.8,49.72,66.75,49.32Z"/><path class="cls-16" d="M45.3,38.3a28,28,0,0,1,11.54,8A24.35,24.35,0,0,1,63,63.2a30.27,30.27,0,0,1-2.74,12.85,7.39,7.39,0,0,1-1.24,2,33.78,33.78,0,0,1-3.71,2.81c-.11.06-.13.27-.2.41a25,25,0,0,1-10,3c-7.5.64-13.86-1.94-19.33-7a30.41,30.41,0,0,1-8.38-12.2c-2.86-8-1-17.21,6.09-22.89l1-.77.44-.23s3.81-2.7,7-3.28S41.43,36.56,45.3,38.3ZM37.58,69.49l.6-.15a10.54,10.54,0,0,0,7.91-6.77A6,6,0,0,0,44.15,56c-.83-.64-1.32-.64-2,.07A13.57,13.57,0,0,0,41,57.41a25,25,0,0,1-5.26,5.27c-1.24.91-2.56,1.69-3.84,2.52s-1.23,1.82,0,2.9a4,4,0,0,0,.79.49A9,9,0,0,0,37.58,69.49Zm14.17-16a1,1,0,0,0-1.25.25c-.36.37-.16.75.06,1.12a2.68,2.68,0,0,1,.21.49c.23.67.66.79,1.25.47a2.12,2.12,0,0,1,.22.49,76.24,76.24,0,0,1,1.26,9.29,20.72,20.72,0,0,1-1.29,7.92,6.46,6.46,0,0,0-.79,3A2.09,2.09,0,0,0,54,78.37a7.72,7.72,0,0,0,3.33-2.06,12,12,0,0,0,3.17-6.83,29.53,29.53,0,0,0-.08-8.29A37.53,37.53,0,0,0,59,55.42a19.23,19.23,0,0,0-3.09-5.85,2.3,2.3,0,0,0-2.56-.94A2.32,2.32,0,0,0,51.81,51C51.77,51.85,52.1,52.69,51.75,53.51Zm-33.26,9.2a3.26,3.26,0,0,0,1.37,1.45c1.48.8,2.7.08,2.63-1.6a6.12,6.12,0,0,0-.2-1.61,12.72,12.72,0,0,1,0-7.36,7.62,7.62,0,0,0,.22-3,1.57,1.57,0,0,0-2.67-.88,6.23,6.23,0,0,0-1.23,1.78A14.57,14.57,0,0,0,17.4,58,9.56,9.56,0,0,0,18.49,62.71Zm11.2,8.55a1.81,1.81,0,0,0,.63-2.44,1.82,1.82,0,1,0-.63,2.44Zm16-18.66A1.74,1.74,0,0,0,45.07,55a1.81,1.81,0,1,0,3.1-1.88A1.77,1.77,0,0,0,45.71,52.6ZM22,48.22a1.74,1.74,0,0,0,2.37.61A1.71,1.71,0,0,0,25,46.46a1.73,1.73,0,0,0-2.42-.64A1.77,1.77,0,0,0,22,48.22ZM29.25,73c-.24-.27-.54-.56-1-.26A1.9,1.9,0,0,0,28,74.86c.2.32.45.48.84.25A1.61,1.61,0,0,0,29.25,73ZM49.34,55.17c-.68.42-.74,1-.29,1.72.24.39.49.79,1,.51a1.71,1.71,0,0,0,.26-1.86C50.06,55.17,49.67,55,49.34,55.17ZM30.44,73.44c.18.33.35.53.63.58a.35.35,0,0,0,.41-.27A3,3,0,0,0,31.54,72a.68.68,0,0,0-.79-.47c-.41,0-.48.35-.53.66A2.46,2.46,0,0,0,30.44,73.44Zm1.77-1.29c.17.3.36.53.74.3a1.48,1.48,0,0,0,.37-1.69c-.24-.34-.56-.55-1-.29S31.8,71.47,32.21,72.15ZM47.67,58.21c.22.38.45.58.8.35a1.12,1.12,0,0,0,.16-1.41c-.21-.32-.51-.52-.84-.27C47.26,57.29,47.5,57.81,47.67,58.21Z"/><path class="cls-4" d="M55.12,81.32c.07-.14.09-.35.2-.41A33.78,33.78,0,0,0,59,78.1a3.7,3.7,0,0,0-.46,1.33c-.9.44-1.58,1.2-2.45,1.69-.23.07-.44.17-.37.48a10,10,0,0,0,.78,2.89c1.7,5.66,6.45,7.65,11,5.58.8-.37.79-.4.18-1a3.5,3.5,0,0,1-1.21-2.76,2.27,2.27,0,0,1,2-2.07,2,2,0,0,1,2.15,1.64,3.2,3.2,0,0,1-.62,3c-.51.63-.25.82.3,1.1,2.63,1.31,5.39,2.32,8.09,3.46a36.23,36.23,0,0,1,7.77,4.08,8.15,8.15,0,0,1,3.15,4,5,5,0,0,1-1.23,5.09,4.89,4.89,0,0,1-5.42.37,2.65,2.65,0,0,1-1.48-2.63A1.3,1.3,0,0,1,82.6,103a2,2,0,0,1,1.89,1.27c0,.15,0,.27-.12.32s-.18,0-.26-.1,0-.1-.08-.14c-.57-.78-1.46-1.09-2-.68a1.73,1.73,0,0,0,.12,2.15,3.88,3.88,0,0,0,3.93,1.09,3.24,3.24,0,0,0,2.66-2.63,5.15,5.15,0,0,0-1.48-4.85,18.43,18.43,0,0,0-6.24-4c-3.11-1.38-6.27-2.65-9.41-4-.84-.35-1.6-.93-2.44-1.19s-1.57.69-2.42,1c-4.34,1.31-8.56-.79-10.34-5.19A28.93,28.93,0,0,1,55.12,81.32Zm12.6,6.44a4.38,4.38,0,0,0,.88,1c.19.18.34.27.59,0a3,3,0,0,0,.64-3A1.18,1.18,0,0,0,68,85.2C67.2,85.7,67.07,86.66,67.72,87.76Z"/><path class="cls-16" d="M56.12,81.12c.87-.49,1.55-1.25,2.45-1.69a25.7,25.7,0,0,0,3.56,1.87c.67.29.8.69.44,1.28A8.66,8.66,0,0,1,58.8,86c-1,.47-1.61-.07-1.91-1.5C56.64,83.34,56.38,82.23,56.12,81.12Z"/><path class="cls-17" d="M16,73.9a1.38,1.38,0,0,1-1.9-.44,1.13,1.13,0,0,1,.4-1.36,2.13,2.13,0,0,1,1.94.4A1,1,0,0,1,16,73.9Z"/><path class="cls-3" d="M43.36,33.73"/><path class="cls-18" d="M8,55.75a1.83,1.83,0,0,1-.44,2.42,1.44,1.44,0,0,1-2.09-.46,1.76,1.76,0,0,1,.45-2.46A1.49,1.49,0,0,1,8,55.75Zm-.25.2a1.21,1.21,0,0,0-1.62-.47,1.72,1.72,0,0,0-.35,2,1.28,1.28,0,0,0,1.64.42A1.75,1.75,0,0,0,7.71,56Z"/><path class="cls-19" d="M7.62,63.76c.23.62.48,1.25-.12,1.84a1.1,1.1,0,0,1-1.41.22,1.12,1.12,0,0,1-.66-1.27c0-.2.12-.4.17-.6.11-.44.14-1,.76-1A1.43,1.43,0,0,1,7.62,63.76ZM7.23,64c-.23-.27-.44-.81-1.06-.61-.28.09-.54,1.58-.33,1.88a.8.8,0,0,0,1.21.23A1,1,0,0,0,7.23,64Z"/><path class="cls-20" d="M51.75,53.51c.35-.82,0-1.66.06-2.49a2.32,2.32,0,0,1,1.56-2.39,2.3,2.3,0,0,1,2.56.94A19.23,19.23,0,0,1,59,55.42a37.53,37.53,0,0,1,1.36,5.77,29.53,29.53,0,0,1,.08,8.29,12,12,0,0,1-3.17,6.83A7.72,7.72,0,0,1,54,78.37a2.09,2.09,0,0,1-2.54-1.82,6.46,6.46,0,0,1,.79-3,20.72,20.72,0,0,0,1.29-7.92,76.24,76.24,0,0,0-1.26-9.29,2.12,2.12,0,0,0-.22-.49A2.67,2.67,0,0,0,51.75,53.51Z"/><path class="cls-10" d="M37.58,69.49a9,9,0,0,1-4.91-.9,4,4,0,0,1-.79-.49c-1.24-1.08-1.24-2.12,0-2.9s2.6-1.61,3.84-2.52A25,25,0,0,0,41,57.41,13.57,13.57,0,0,1,42.11,56c.72-.71,1.21-.71,2-.07a6,6,0,0,1,1.94,6.6A8.72,8.72,0,0,0,37.58,69.49Z"/><path class="cls-21" d="M18.49,62.71A9.56,9.56,0,0,1,17.4,58a14.57,14.57,0,0,1,1.24-6.51,6.23,6.23,0,0,1,1.23-1.78,1.57,1.57,0,0,1,2.67.88,7.62,7.62,0,0,1-.22,3,12.72,12.72,0,0,0,0,7.36,6.12,6.12,0,0,1,.2,1.61c.07,1.68-1.15,2.4-2.63,1.6A3.26,3.26,0,0,1,18.49,62.71Z"/><path class="cls-22" d="M37.58,69.49a8.72,8.72,0,0,1,8.51-6.92,10.54,10.54,0,0,1-7.91,6.77Z"/><path class="cls-10" d="M29.69,71.26a1.8,1.8,0,1,1,.63-2.44A1.83,1.83,0,0,1,29.69,71.26Z"/><path class="cls-10" d="M45.71,52.6a1.77,1.77,0,0,1,2.46.54A1.81,1.81,0,1,1,45.07,55,1.74,1.74,0,0,1,45.71,52.6Z"/><path class="cls-21" d="M22,48.22a1.77,1.77,0,0,1,.56-2.4,1.73,1.73,0,0,1,2.42.64,1.71,1.71,0,0,1-.61,2.37A1.74,1.74,0,0,1,22,48.22Z"/><path class="cls-23" d="M51.75,53.51A2.67,2.67,0,0,1,52,55.84c-.59.32-1,.2-1.25-.47a2.68,2.68,0,0,0-.21-.49c-.22-.37-.42-.75-.06-1.12A1,1,0,0,1,51.75,53.51Z"/><path class="cls-23" d="M29.25,73a1.61,1.61,0,0,1-.38,2.08c-.39.23-.64.07-.84-.25a1.9,1.9,0,0,1,.21-2.09C28.71,72.47,29,72.76,29.25,73Z"/><path class="cls-23" d="M49.34,55.17c.33-.2.72,0,1,.37a1.71,1.71,0,0,1-.26,1.86c-.55.28-.8-.12-1-.51C48.6,56.17,48.66,55.59,49.34,55.17Z"/><path class="cls-23" d="M30.44,73.44a2.46,2.46,0,0,1-.22-1.25c.05-.31.12-.61.53-.66a.68.68,0,0,1,.79.47,3,3,0,0,1-.06,1.75.35.35,0,0,1-.41.27C30.79,74,30.62,73.77,30.44,73.44Z"/><path class="cls-23" d="M32.21,72.15c-.41-.68-.36-1.38.12-1.68s.75,0,1,.29A1.48,1.48,0,0,1,33,72.45C32.57,72.68,32.38,72.45,32.21,72.15Z"/><path class="cls-23" d="M47.67,58.21c-.17-.4-.41-.92.12-1.33.33-.25.63-.05.84.27a1.12,1.12,0,0,1-.16,1.41C48.12,58.79,47.89,58.59,47.67,58.21Z"/><path class="cls-24" d="M7.71,56a1.75,1.75,0,0,1-.33,2,1.28,1.28,0,0,1-1.64-.42,1.72,1.72,0,0,1,.35-2A1.21,1.21,0,0,1,7.71,56Z"/><path class="cls-14" d="M7.23,64a1,1,0,0,1-.18,1.5.8.8,0,0,1-1.21-.23c-.21-.3,0-1.79.33-1.88C6.79,63.14,7,63.68,7.23,64Z"/><path class="cls-13" d="M90.77,33.7A1.19,1.19,0,0,1,90,35.13a1.14,1.14,0,0,1-1.44-.65A1.24,1.24,0,0,1,89.27,33,1.2,1.2,0,0,1,90.77,33.7Z"/><path class="cls-25" d="M78.72,128.69a1.31,1.31,0,0,1-1.3,1.31H74.69a1.31,1.31,0,0,1-1.31-1.31h0a1.31,1.31,0,0,1,1.31-1.31h2.73a1.31,1.31,0,0,1,1.3,1.31Z"/><path class="cls-25" d="M122.36,128.69a1.31,1.31,0,0,1-1.31,1.31h-2.73a1.31,1.31,0,0,1-1.3-1.31h0a1.31,1.31,0,0,1,1.3-1.31h2.73a1.31,1.31,0,0,1,1.31,1.31Z"/><rect class="cls-25" x="71.86" y="121.76" width="52.02" height="2.46"/><path class="cls-25" d="M125.47,116.29H122.9a12.75,12.75,0,0,1-12.74-12.74V92.89l3.27,2.66a33.62,33.62,0,0,1,11.46,18.27Z"/><path class="cls-25" d="M72.84,116.29H70.27l.58-2.47A33.62,33.62,0,0,1,82.31,95.55l3.27-2.66v10.66A12.75,12.75,0,0,1,72.84,116.29Z"/><path class="cls-26" d="M124.64,114.53A12.53,12.53,0,0,1,112.1,102V90.18H83.64V102A12.53,12.53,0,0,1,71.1,114.53H69.73v7.84H126v-7.84Z"/><path class="cls-25" d="M97.87,118a12.61,12.61,0,1,1,12.61-12.61A12.63,12.63,0,0,1,97.87,118Z"/><path class="cls-27" d="M100.68,96.7a2.09,2.09,0,1,1,.64,2.89A2.08,2.08,0,0,1,100.68,96.7ZM98,94.52a2.09,2.09,0,1,1-2.09,2.09A2.08,2.08,0,0,1,98,94.52ZM92.56,96a2.09,2.09,0,1,1-.83,2.83A2.08,2.08,0,0,1,92.56,96Zm-3.83,3.78a2.09,2.09,0,1,1,.64,2.88A2.09,2.09,0,0,1,88.73,99.78Zm-1.55,5.56a2.09,2.09,0,1,1,2.09,2.09A2.1,2.1,0,0,1,87.18,105.34Zm1.47,5.44a2.09,2.09,0,1,1,2.84.83A2.09,2.09,0,0,1,88.65,110.78Zm6.68,3.2a2.09,2.09,0,1,1-.64-2.89A2.1,2.1,0,0,1,95.33,114ZM98,116.16a2.09,2.09,0,1,1,2.09-2.09A2.09,2.09,0,0,1,98,116.16Zm5.44-1.47a2.09,2.09,0,1,1,.83-2.84A2.08,2.08,0,0,1,103.44,114.69Zm3.91-14.79a2.09,2.09,0,1,1-2.84-.83A2.1,2.1,0,0,1,107.35,99.9Z"/><path class="cls-28" d="M97.87,94a11.36,11.36,0,1,0,11.36,11.36A11.38,11.38,0,0,0,97.87,94Zm2.81,2.72a2.09,2.09,0,1,1,.64,2.89A2.08,2.08,0,0,1,100.68,96.7Zm2.8,8.64a5.61,5.61,0,1,1-5.61-5.61A5.61,5.61,0,0,1,103.48,105.34ZM98,94.52a2.09,2.09,0,1,1-2.09,2.09A2.08,2.08,0,0,1,98,94.52ZM92.56,96a2.09,2.09,0,1,1-.83,2.83A2.08,2.08,0,0,1,92.56,96Zm-3.83,3.78a2.09,2.09,0,1,1,.64,2.88A2.09,2.09,0,0,1,88.73,99.78Zm-1.55,5.56a2.09,2.09,0,1,1,2.09,2.09A2.1,2.1,0,0,1,87.18,105.34Zm1.47,5.44a2.09,2.09,0,1,1,2.84.83A2.09,2.09,0,0,1,88.65,110.78Zm6.68,3.2a2.09,2.09,0,1,1-.64-2.89A2.1,2.1,0,0,1,95.33,114ZM98,116.16a2.09,2.09,0,1,1,2.09-2.09A2.09,2.09,0,0,1,98,116.16Zm5.44-1.47a2.09,2.09,0,1,1,.83-2.84A2.08,2.08,0,0,1,103.44,114.69Zm3.91-14.79a2.09,2.09,0,1,1-2.84-.83A2.1,2.1,0,0,1,107.35,99.9Z"/><rect class="cls-26" x="69.73" y="123.8" width="56.28" height="4.96"/><path class="cls-29" d="M89.27,104.19a2.08,2.08,0,0,1,2,1.62,1.89,1.89,0,0,0,.06-.47,2.09,2.09,0,1,0-4.18,0,1.89,1.89,0,0,0,.06.47A2.08,2.08,0,0,1,89.27,104.19Z"/><path class="cls-29" d="M89.49,108.88a2.07,2.07,0,0,1,3,1.37,2,2,0,0,0-.2-1.47,2.08,2.08,0,0,0-3.86,1.46A2.06,2.06,0,0,1,89.49,108.88Z"/><path class="cls-29" d="M91.8,112.66a2.09,2.09,0,0,1,3.79.65,2.08,2.08,0,0,0-3.79-1.58,2.12,2.12,0,0,0-.27,1.6A2.42,2.42,0,0,1,91.8,112.66Z"/><path class="cls-29" d="M88.73,100.71a2.08,2.08,0,0,1,3.79.65,2.08,2.08,0,0,0-3.79-1.58,2,2,0,0,0-.27,1.6A1.93,1.93,0,0,1,88.73,100.71Z"/><path class="cls-29" d="M92.56,96.93a2.1,2.1,0,0,1,2.84.83,2,2,0,0,1,.19.54,2.1,2.1,0,0,0-.19-1.47A2.08,2.08,0,0,0,92.56,96a2.05,2.05,0,0,0-1,2.29A2.06,2.06,0,0,1,92.56,96.93Z"/><path class="cls-29" d="M104.51,100a2.08,2.08,0,0,1,2.84.82,2.32,2.32,0,0,1,.19.54,2.11,2.11,0,0,0-.19-1.47,2.08,2.08,0,0,0-3.86,1.47A2.06,2.06,0,0,1,104.51,100Z"/><path class="cls-29" d="M98,112.92a2.08,2.08,0,0,1,2,1.62,1.84,1.84,0,0,0,.06-.47,2.09,2.09,0,0,0-4.18,0,2.42,2.42,0,0,0,.06.47A2.08,2.08,0,0,1,98,112.92Z"/><path class="cls-29" d="M101.44,112a2.08,2.08,0,0,1,2.83.84,2.14,2.14,0,0,1,.2.53,2.06,2.06,0,0,0-.2-1.47,2.08,2.08,0,0,0-3.86,1.47A2.08,2.08,0,0,1,101.44,112Z"/><path class="cls-29" d="M100.68,97.64a2.09,2.09,0,0,1,3.79.64,2.08,2.08,0,1,0-4.06,0A2.09,2.09,0,0,1,100.68,97.64Z"/><path class="cls-29" d="M98,95.45a2.09,2.09,0,0,1,2,1.63,1.84,1.84,0,0,0,.06-.47,2.09,2.09,0,0,0-4.18,0,2.42,2.42,0,0,0,.06.47A2.09,2.09,0,0,1,98,95.45Z"/><path class="cls-30" d="M89.64,82.75h0Z"/><path class="cls-26" d="M133.31,91c-2-11.17-17.09-19.85-35.44-19.85S64.41,79.8,62.43,91a2.19,2.19,0,0,0,2.28,2.5H78.06A2.41,2.41,0,0,0,80.4,91c.13-2.51,1.31-6,6.79-5.9h21.36c5.06,0,6.35,3.44,6.63,5.9a2.61,2.61,0,0,0,2.49,2.5H131A2.19,2.19,0,0,0,133.31,91Z"/><path class="cls-25" d="M118.45,91.27c-.33-3.64-1.86-8.67-7.83-8.74H85.38c-6.47-.12-7.85,5-8,8.75a5.2,5.2,0,0,1-.55,2.19h1.25A2.41,2.41,0,0,0,80.4,91c.13-2.51,1.31-6,6.79-5.9h21.36c5.06,0,6.35,3.44,6.63,5.9a2.61,2.61,0,0,0,2.49,2.5h1.45A5.46,5.46,0,0,1,118.45,91.27Z"/><path class="cls-28" d="M68.76,91.13h-4c2-9.94,16.44-17.69,33.11-17.69.35,0,.69,0,1,0C83.65,73.78,70.58,81.4,68.76,91.13Zm48.91,0a.73.73,0,0,1-.18-.45c-.56-4.94-3.89-7.91-8.94-8h1.36c4.74,0,7.87,3,8.39,8a.82.82,0,0,0,.17.45Z"/><path class="cls-31" d="M90.51,90.64A2.48,2.48,0,0,1,88,93.12h0a2.48,2.48,0,0,1-2.48-2.48V85.89A2.48,2.48,0,0,1,88,83.41h0a2.48,2.48,0,0,1,2.48,2.48Z"/><path class="cls-31" d="M110.18,90.64a2.48,2.48,0,0,1-2.47,2.48h0a2.48,2.48,0,0,1-2.48-2.48V85.89a2.48,2.48,0,0,1,2.48-2.48h0a2.48,2.48,0,0,1,2.47,2.48Z"/><path class="cls-31" d="M107.09,111.08a5,5,0,0,0-3.64-2.48,3.68,3.68,0,0,1,1.56-.35,3.72,3.72,0,0,1,2.8,1.28A8.73,8.73,0,0,1,107.09,111.08Z"/><path class="cls-32" d="M107.45,110.81a5,5,0,0,0-3.64-2.48,3.63,3.63,0,0,1,1.55-.35,3.74,3.74,0,0,1,2.81,1.28A10.42,10.42,0,0,1,107.45,110.81Z"/><path class="cls-28" d="M98.77,105.34a.77.77,0,1,1-.77-.77A.77.77,0,0,1,98.77,105.34Z"/><path class="cls-33" d="M60.53,104.93c-.38.75-.65,1.63-1.81,1.51a1.13,1.13,0,0,1-1.13-1c-.13-1.23.89-1.44,1.79-1.74Z"/><path class="cls-34" d="M105.8,59.53c.41-5.35,6.63-10,11.37-11.09.43-.1,1,0,1,.46.1.81-.65.91-1.16,1.07a18.84,18.84,0,0,0-9.59,7C106.88,57.82,106.35,58.69,105.8,59.53Z"/><path class="cls-35" d="M22.47,90.8c1.23-.94,2.41-2.1,3.31-1.13s-.64,1.72-1.43,2.29a8.67,8.67,0,0,0-2.66,3.9c-.35.76-.77,1.9-1.77,1.54s-.7-1.5-.39-2.28A10.72,10.72,0,0,1,22.47,90.8Z"/><path class="cls-36" d="M110.55,59a16.35,16.35,0,0,1,6.33-4.35c.58-.21,1.37-.54,1.68.26S118,56,117.5,56.26c-2.23,1.11-4.48,2.18-6.72,3.27Z"/><path class="cls-37" d="M20.78,115.73c-.73-.41-1.51-.83-1.18-1.76a1.78,1.78,0,0,1,2.16-1.07c.71.13,1.38.5,1.13,1.24A2.2,2.2,0,0,1,20.78,115.73Z"/><path class="cls-38" d="M53.05,114.61a1.43,1.43,0,0,1,.14-2,1.5,1.5,0,0,1,2.19,0,1.32,1.32,0,0,1-.12,1.94A1.62,1.62,0,0,1,53.05,114.61Z"/><path class="cls-39" d="M16.25,107.94c-.68-.37-1.14-.83-.92-1.54a1.22,1.22,0,0,1,1.56-.84,1,1,0,0,1,.85,1.43A1.47,1.47,0,0,1,16.25,107.94Z"/><path class="cls-40" d="M5.33,116.89c-1.95.71-3.51.16-5.33-1.29C2.29,115.4,3.67,116.68,5.33,116.89Z"/><path class="cls-41" d="M48.14,108.84A1.24,1.24,0,1,1,50,107.22a1,1,0,0,1-.09,1.52A1.31,1.31,0,0,1,48.14,108.84Z"/><path class="cls-42" d="M41.66,94a1.08,1.08,0,0,1,.23-1.52c.55-.48,1.28-.64,1.75,0a1.15,1.15,0,0,1-.36,1.69A1.22,1.22,0,0,1,41.66,94Z"/><path class="cls-43" d="M47,118.53c-.28-.56-.34-1,.22-1.34a.9.9,0,0,1,1.19.09c.4.46.14.91-.29,1.25A.89.89,0,0,1,47,118.53Z"/><path class="cls-44" d="M5.38,106.43a.69.69,0,0,1,.89-.13c.43.31.31.72,0,1.06a.7.7,0,0,1-1.11,0C4.9,107.12,5,106.77,5.38,106.43Z"/></svg>