<svg id="Layer_6" data-name="Layer 6" xmlns="http://www.w3.org/2000/svg" viewBox="0 0 113.2 24"><defs><style>.cls-1{fill:#f68624;}.cls-2{fill:#fff;}</style></defs><title>Логотип адаптив</title><path class="cls-1" d="M1.88,22.42a1,1,0,0,1-1-.69,2.36,2.36,0,0,1-.13-.89c0-2.29,0-5.34,0-9.16S.8,5,.82,3.06c0-.36.25-1.3,1.7-1.3l1,0a3.39,3.39,0,0,0,.51,0l.08,0h.13a1.18,1.18,0,0,1,1.2,1v.12c0,.86.07,3.22.09,7q0,5.17,0,7.5l1.38,0q-.07-2.22-.07-8.48V6a1.1,1.1,0,0,1,.31-.84A1.18,1.18,0,0,1,8,4.83h2.07a1.24,1.24,0,0,1,1,.38,1.56,1.56,0,0,1,.32,1c0,1.19,0,2.16,0,3,0,4.21,0,7,.1,8.19h.12l.49,0h.38c0-1.12,0-4.07,0-8.95,0-5.33,0-5.51,0-5.62a1.14,1.14,0,0,1,.26-.63,1,1,0,0,1,.8-.43c.58,0,1.12-.06,1.58-.06.89,0,1.39.07,1.69.44s.28.28.28,11.86c0,2.54,0,4.29,0,5.27s0,1.51,0,1.63A2.9,2.9,0,0,1,16.86,22a1.14,1.14,0,0,1-1.06.56Z"/><path class="cls-2" d="M15.16,2.4c.65,0,1,.05,1.09.15s.12,3.88.12,11.39c0,2.54,0,4.29,0,5.26s0,1.52,0,1.64a2.78,2.78,0,0,1-.16.75c-.06.11-.19.16-.39.16L1.88,21.66a.27.27,0,0,1-.28-.2,1.62,1.62,0,0,1-.08-.62q0-3.43,0-9.16t.05-8.61c0-.37.35-.55.94-.55l.72,0h.23a3.69,3.69,0,0,0,.66,0h.06a.44.44,0,0,1,.46.4q.06,1.27.09,7t0,7.93c0,.23.1.34.3.34l2.25,0A.42.42,0,0,0,7.61,18a.37.37,0,0,0,.08-.26v-.09Q7.6,15.77,7.6,8.84V6a.43.43,0,0,1,.09-.31A.47.47,0,0,1,8,5.59h2.07a.54.54,0,0,1,.41.12,1,1,0,0,1,.13.52q0,1.7,0,2.94,0,7,.13,8.57a.29.29,0,0,0,.1.2.56.56,0,0,0,.2.14,3.63,3.63,0,0,0,.55,0l.53,0h.22a5.43,5.43,0,0,1,.55,0H13c.19,0,.29-.12.29-.37q0-.84,0-9.36,0-5.28,0-5.52a.41.41,0,0,1,.1-.26c.07-.09.14-.14.2-.14.61,0,1.13-.06,1.58-.06m0-1.52c-.47,0-1,0-1.66.06a1.76,1.76,0,0,0-1.31.72,1.93,1.93,0,0,0-.43,1.09c0,.16,0,.55,0,2.08a.48.48,0,0,0-.09-.11,2,2,0,0,0-1.55-.65H8A1.83,1.83,0,0,0,6.22,5.2c0-1.15,0-1.94,0-2.39V2.69l0-.12A1.93,1.93,0,0,0,4.19,1H3.93l-.1,0a2.13,2.13,0,0,1-.36,0H3.28L2.52,1A2.22,2.22,0,0,0,.07,2.9v.15C0,5,0,7.78,0,11.68s0,6.87,0,9.16A3.27,3.27,0,0,0,.18,22a1.78,1.78,0,0,0,1.7,1.17l13.91.09a1.88,1.88,0,0,0,1.73-.95A3.33,3.33,0,0,0,17.86,21v-.16c0-.12,0-.66,0-1.62s0-2.74,0-5.28c0-11.68,0-11.89-.53-12.43a2.83,2.83,0,0,0-2.2-.63Z"/><path class="cls-1" d="M28,22.82a1.15,1.15,0,0,1-.9-.4,1.66,1.66,0,0,1-.36-.79l-.61-2.82-2.91,0c-.05.14-.14.45-.28,1.05s-.28,1.1-.32,1.23a2.57,2.57,0,0,1-.64,1,1.63,1.63,0,0,1-1.09.38,4.55,4.55,0,0,1-.61-.07,4.18,4.18,0,0,0-.65-.11l-.53-.07A1.28,1.28,0,0,1,17.92,21a1.4,1.4,0,0,1,.07-.44l1.45-5.64L22.74,2.1h.59l1.7,0c1,0,1.89.06,2.08.8.14.47.57,2.31,1.31,5.61s1.19,5.32,1.39,6.19L31,20.1a3.16,3.16,0,0,1,.11.74,1.33,1.33,0,0,1-.43,1,2.63,2.63,0,0,1-.86.48,12.56,12.56,0,0,1-1.33.38A2,2,0,0,1,28,22.82Zm-3.2-10.61c-.2.91-.36,1.65-.48,2.21l.94,0c-.06-.31-.16-.94-.38-2.26l0-.18A2.56,2.56,0,0,0,24.81,12.21Z"/><path class="cls-2" d="M25,2.84c.86,0,1.3.08,1.34.23.14.46.58,2.33,1.31,5.59s1.19,5.33,1.39,6.2l1.22,5.4a2.65,2.65,0,0,1,.09.58.61.61,0,0,1-.18.47,1.88,1.88,0,0,1-.61.32c-.4.14-.82.26-1.25.37a1.65,1.65,0,0,1-.33.06.42.42,0,0,1-.33-.14,1,1,0,0,1-.19-.44l-.66-3.1a.43.43,0,0,0-.46-.33l-3.37,0a.36.36,0,0,0-.24.1.67.67,0,0,0-.19.23,12,12,0,0,0-.36,1.29c-.16.66-.27,1.05-.31,1.17a1.52,1.52,0,0,1-.41.65.81.81,0,0,1-.59.2,3.68,3.68,0,0,1-.48-.06,6.06,6.06,0,0,0-.7-.12l-.49-.06c-.36-.06-.55-.23-.55-.52a.51.51,0,0,1,0-.21l1.46-5.68L23.33,2.86l1.54,0H25M23.7,15.19c.48,0,1.11,0,1.88-.06a.94.94,0,0,0,.41-.06.25.25,0,0,0,.11-.24,1.46,1.46,0,0,0,0-.34c0-.16-.19-1-.43-2.49l-.27-1.61c-.2-1-.38-1.52-.52-1.52s-.1.12-.18.37-.28,1.24-.61,2.82c-.26,1.26-.46,2.18-.61,2.77-.06.24,0,.36.25.36M25,1.32h-.18l-1.52,0H22.16l-.3,1.14L18.7,14.69,17.26,20.3a2.28,2.28,0,0,0-.1.66A2,2,0,0,0,19,23l.59.07a3.6,3.6,0,0,1,.5.09h.1a4.24,4.24,0,0,0,.73.08,2.4,2.4,0,0,0,1.59-.57,3.25,3.25,0,0,0,.83-1.23v-.05l0-.05c0-.07.08-.25.33-1.27q.08-.29.12-.48l1.73,0L26,21.8a2.42,2.42,0,0,0,.53,1.13,1.91,1.91,0,0,0,1.47.64,2.92,2.92,0,0,0,.7-.1,13.61,13.61,0,0,0,1.38-.41,3.07,3.07,0,0,0,1.14-.63,2.13,2.13,0,0,0,.67-1.59,4.11,4.11,0,0,0-.14-.95l-1.2-5.37c-.21-.88-.67-2.94-1.4-6.19C28.1,3.59,27.9,2.87,27.83,2.65,27.46,1.32,26,1.32,25,1.32Z"/><path class="cls-1" d="M35.39,22.51l-.24,0a1.63,1.63,0,0,0-.39,0l-1,0a1.52,1.52,0,0,1-1.6-1.55l0-9.2c0-7,0-8.45,0-8.65a1.29,1.29,0,0,1,.22-.8,1.1,1.1,0,0,1,.8-.45,8.68,8.68,0,0,1,2.23-.16c1.1,0,2.21,0,3.28.12a5.92,5.92,0,0,1,3.54,1.48,5.13,5.13,0,0,1,1.78,3.39A17.66,17.66,0,0,1,44,8.48V9.57a6.71,6.71,0,0,1-4.21,6.14,6,6,0,0,1-1.81.34l-1,.08c0,.3,0,.66,0,1.1q0,1,0,1.53c0,.2,0,.52,0,.9s0,.79,0,1.27a1.42,1.42,0,0,1-1.46,1.58Zm1.55-11.28h.37c1.27,0,1.61-.55,1.72-.73a2.7,2.7,0,0,0,.37-1,9.44,9.44,0,0,0,.09-1.41,1.77,1.77,0,0,0-.48-1,1.47,1.47,0,0,0-.91-.62,7.75,7.75,0,0,0-.88,0h-.33C36.92,7.43,36.94,9,36.94,11.23Z"/><path class="cls-2" d="M35.33,2.43c1.1,0,2.17,0,3.22.12a5.1,5.1,0,0,1,3.1,1.29,4.35,4.35,0,0,1,1.52,2.9,16.33,16.33,0,0,1,.06,1.74V9.57a5.74,5.74,0,0,1-1,3.22A5.83,5.83,0,0,1,39.49,15a5.72,5.72,0,0,1-1.58.29l-1.3.1a.56.56,0,0,0-.35.12.65.65,0,0,0-.08.37c0,.3,0,.75,0,1.34s0,1.16,0,1.48,0,.56,0,.93,0,.82,0,1.32-.23.79-.7.79l-.24,0a2.72,2.72,0,0,0-.48,0l-1,0c-.55,0-.82-.3-.82-.79l0-9.2q0-8.15,0-8.69a.56.56,0,0,1,.08-.32.4.4,0,0,1,.29-.14,9.59,9.59,0,0,1,2.12-.15m2,9.57a2.56,2.56,0,0,0,2.37-1.09,3.37,3.37,0,0,0,.47-1.23,9.94,9.94,0,0,0,.1-1.54,2.51,2.51,0,0,0-.65-1.46,2.31,2.31,0,0,0-1.38-.88,7.79,7.79,0,0,0-1-.06h-.64c-.31,0-.46.16-.46.49,0,.93.06,2.72.06,5.38a.29.29,0,0,0,.08.18.46.46,0,0,0,.13.12,4,4,0,0,0,.92.09M35.33.91a10.28,10.28,0,0,0-2.45.19,1.83,1.83,0,0,0-1.2.74A2,2,0,0,0,31.32,3v.08c0,.16,0,1.33,0,8.61l0,9.21a2.26,2.26,0,0,0,2.23,2.3h.16l1,0h.25l.25,0h.18A2.17,2.17,0,0,0,37.7,21V20.9c0-.49,0-.89,0-1.22s0-.67,0-.92,0-.85,0-1.53v-.4l.3,0a6.93,6.93,0,0,0,2-.39,7.43,7.43,0,0,0,4.71-6.85V8.48a16.21,16.21,0,0,0-.07-1.94,5.8,5.8,0,0,0-2-3.84,6.6,6.6,0,0,0-4-1.66C37.57,1,36.45.91,35.33.91Zm2.37,9.55c0-1.33,0-2.38,0-3.19l.35,0c.12,0,.31.22.41.34a1.11,1.11,0,0,1,.3.54,8.69,8.69,0,0,1-.08,1.24,1.63,1.63,0,0,1-.26.66c-.06.1-.18.3-.69.37Z"/><path class="cls-1" d="M50,14.16c-.22,0-1.11,0-4.18,0a1.18,1.18,0,0,1-.8-.3,1.1,1.1,0,0,1-.38-.86l0-2.2a1.08,1.08,0,0,1,1.12-1.14h4.5A1.28,1.28,0,0,1,51.65,11v.23c0,.13,0,.4,0,.82a4.13,4.13,0,0,1-.1,1,1.35,1.35,0,0,1-1.43,1.06Z"/><path class="cls-2" d="M50.31,10.39c.38,0,.58.2.58.61v.12c0,.14,0,.44,0,.91a4.13,4.13,0,0,1-.07.88c-.07.33-.3.49-.7.49s-1.74,0-4.23,0a.44.44,0,0,1-.3-.11.37.37,0,0,1-.12-.29l0-2.19q0-.39.36-.39h4.5m0-1.52h-4.5a1.84,1.84,0,0,0-1.88,1.91l0,2.17a1.92,1.92,0,0,0,1.94,1.94c3.33,0,4,0,4.13,0h.1a2.11,2.11,0,0,0,2.17-1.64,5.22,5.22,0,0,0,.12-1.21c0-.57,0-.72,0-.74V11a2,2,0,0,0-2.1-2.13Z"/><path class="cls-1" d="M63.8,22.54a1.47,1.47,0,0,1-1.24-.7c-.53-.91-1.18-2-2-3.39-.54-.94-1-1.78-1.43-2.53l-.9,1.74q-1.64,3.24-2.07,4a1.43,1.43,0,0,1-1.33.85,3.14,3.14,0,0,1-.77-.11,8.11,8.11,0,0,1-1.51-.7A1.28,1.28,0,0,1,52,20.57a2.28,2.28,0,0,1,.21-.84c.51-1,1.21-2.36,2.12-4.1s1.66-3.15,2.23-4.2c0-.06.05-.11.07-.16L55,8.49C53.62,6,53.16,5.25,53,5a1.59,1.59,0,0,1-.26-.84A1.43,1.43,0,0,1,53.41,3c.11-.1.42-.34.91-.71a3,3,0,0,1,1.34-.72h0c.58,0,.89.37,1.51,1.38.42.71.88,1.48,1.35,2.32l.73,1.24.44-.92c1.64-3.6,1.9-3.78,2.48-3.78h0a1.77,1.77,0,0,1,.92.25l.4.2c.23.1.42.2.61.3s.31.16.48.23A1.3,1.3,0,0,1,65.53,4a1.89,1.89,0,0,1-.18.68c-.43.88-1,2-1.8,3.46s-1.32,2.44-1.64,3l-.06.1c.31.42,1,1.57,2.09,3.52s1.84,3.24,2.25,4a2.8,2.8,0,0,1,.52,1.38,1.35,1.35,0,0,1-.42,1,4.93,4.93,0,0,1-.77.6l-1,.64A1.68,1.68,0,0,1,63.8,22.54Z"/><path class="cls-2" d="M55.76,2.37q.15,0,.78,1c.42.7.87,1.46,1.33,2.29l1.46,2.49L60.4,6c1-2.22,1.61-3.34,1.79-3.34h.07a1.08,1.08,0,0,1,.5.15,4.57,4.57,0,0,0,.49.25,5.2,5.2,0,0,1,.53.26l.53.25c.31.15.46.31.46.49a1.59,1.59,0,0,1-.12.4c-.41.83-1,2-1.76,3.38s-1.32,2.43-1.64,3a.85.85,0,0,0-.16.46.82.82,0,0,0,.16.43c.26.4.94,1.57,2,3.49l2.25,3.95a2.43,2.43,0,0,1,.42,1,.61.61,0,0,1-.19.44,4.76,4.76,0,0,1-.66.5l-1,.64a.75.75,0,0,1-.33.09.71.71,0,0,1-.61-.36c-.51-.87-1.15-2-1.93-3.34s-1.42-2.52-1.93-3.47l-.21-.24-1.52,3q-1.64,3.21-2.07,4a.69.69,0,0,1-.66.45,2.49,2.49,0,0,1-.58-.09A6.53,6.53,0,0,1,53,21.08a.54.54,0,0,1-.27-.51,1.62,1.62,0,0,1,.15-.55q.73-1.43,2.1-4t2.21-4.19a1.42,1.42,0,0,0,.19-.49.76.76,0,0,0-.12-.36L55.63,8.11c-1.1-2-1.77-3.18-2-3.52a.83.83,0,0,1-.12-.4.73.73,0,0,1,.36-.54c.14-.13.45-.36.92-.72a2.61,2.61,0,0,1,1-.56h0m0-1.52h-.15l-.11,0a3.85,3.85,0,0,0-1.65.85l-.94.74A2.15,2.15,0,0,0,52,4.19a2.32,2.32,0,0,0,.32,1.15l0,.06,0,.06c.09.14.47.74,1.91,3.38l1.41,2.48c-.53,1-1.24,2.32-2.09,4s-1.61,3.09-2.1,4l0,.05,0,.06a2.79,2.79,0,0,0-.27,1.13,2,2,0,0,0,1,1.83,9.37,9.37,0,0,0,1.57.73l.06,0h.07a3.57,3.57,0,0,0,.95.14,2.23,2.23,0,0,0,2-1.28c.31-.59,1-2,2.06-4l.25-.48.74,1.3c.78,1.36,1.43,2.48,1.94,3.35l0,0,0,0a2.23,2.23,0,0,0,1.87,1,2.19,2.19,0,0,0,1-.25l.08,0L65,23l1-.64a5.43,5.43,0,0,0,.89-.69,2.14,2.14,0,0,0,.64-1.52,3.47,3.47,0,0,0-.64-1.79c-.39-.67-1.14-2-2.23-3.91-.88-1.56-1.49-2.61-1.85-3.2.33-.6.82-1.48,1.47-2.7C65,7.07,65.6,5.91,66,5.07L66,5l0-.06a2.45,2.45,0,0,0,.23-1A2,2,0,0,0,65,2.15a5.18,5.18,0,0,1-.47-.23l-.62-.3h0l-.33-.17a2.52,2.52,0,0,0-1.23-.34H62.1c-1,0-1.51.77-2.91,3.83v0c-.45-.81-.91-1.59-1.35-2.31C57.29,1.7,56.77.85,55.76.85Z"/><path class="cls-1" d="M76.83,22.82a1.15,1.15,0,0,1-.9-.4,1.66,1.66,0,0,1-.36-.79L75,18.81l-2.91,0c0,.14-.14.45-.28,1.05s-.28,1.1-.32,1.23a2.57,2.57,0,0,1-.64,1,1.63,1.63,0,0,1-1.09.38,4.55,4.55,0,0,1-.61-.07,4.18,4.18,0,0,0-.65-.11l-.53-.07A1.28,1.28,0,0,1,66.74,21a1.4,1.4,0,0,1,.07-.44l1.45-5.64L71.56,2.1h.59l1.7,0c1,0,1.89.06,2.08.8.14.47.57,2.31,1.31,5.61s1.19,5.32,1.39,6.19l1.22,5.42a3.16,3.16,0,0,1,.11.74,1.33,1.33,0,0,1-.43,1,2.63,2.63,0,0,1-.86.48,12.56,12.56,0,0,1-1.33.38A2,2,0,0,1,76.83,22.82Zm-3.2-10.61c-.2.91-.36,1.65-.48,2.21l.94,0c-.06-.31-.16-.94-.38-2.26l0-.18A2.56,2.56,0,0,0,73.63,12.21Z"/><path class="cls-2" d="M73.85,2.84c.86,0,1.3.08,1.34.23.14.46.58,2.33,1.31,5.59s1.19,5.33,1.39,6.2l1.22,5.4a2.65,2.65,0,0,1,.09.58.61.61,0,0,1-.18.47,1.88,1.88,0,0,1-.61.32c-.4.14-.82.26-1.25.37a1.65,1.65,0,0,1-.33.06.42.42,0,0,1-.33-.14,1,1,0,0,1-.19-.44l-.66-3.1a.43.43,0,0,0-.46-.33l-3.37,0a.36.36,0,0,0-.24.1.67.67,0,0,0-.19.23A12,12,0,0,0,71,19.7c-.16.66-.27,1.05-.31,1.17a1.52,1.52,0,0,1-.41.65.81.81,0,0,1-.59.2l-.48-.06a6.06,6.06,0,0,0-.7-.12l-.49-.06c-.36-.06-.55-.23-.55-.52a.51.51,0,0,1,0-.21L69,15.07,72.15,2.86l1.54,0h.16M72.52,15.19c.48,0,1.11,0,1.88-.06a.94.94,0,0,0,.41-.06.25.25,0,0,0,.11-.24,1.46,1.46,0,0,0,0-.34c0-.16-.19-1-.43-2.49l-.27-1.61c-.2-1-.38-1.52-.52-1.52s-.1.12-.18.37-.28,1.24-.61,2.82c-.26,1.26-.47,2.18-.61,2.77-.06.24,0,.36.25.36M73.85,1.32h-.18l-1.52,0H71l-.3,1.14L67.52,14.69,66.08,20.3A2.28,2.28,0,0,0,66,21a2,2,0,0,0,1.82,2l.59.07a3.6,3.6,0,0,1,.5.09H69a4.24,4.24,0,0,0,.73.08,2.4,2.4,0,0,0,1.59-.57,3.25,3.25,0,0,0,.83-1.23v-.05l0-.05c0-.07.08-.25.33-1.27l.12-.48,1.73,0,.48,2.23a2.42,2.42,0,0,0,.53,1.13,1.91,1.91,0,0,0,1.47.64,2.92,2.92,0,0,0,.7-.1,13.61,13.61,0,0,0,1.38-.41,3.07,3.07,0,0,0,1.14-.63,2.13,2.13,0,0,0,.67-1.59,4.11,4.11,0,0,0-.14-.95l-1.2-5.37c-.21-.88-.67-2.94-1.4-6.19-1.06-4.74-1.26-5.46-1.33-5.68-.37-1.33-1.88-1.33-2.8-1.33Z"/><path class="cls-1" d="M84.35,22.57l-.86-.16c-.73-.15-1.22-.25-1.47-.32a1.28,1.28,0,0,1-.94-1.4,1.54,1.54,0,0,1,.08-.52l2.73-7.87c-.52-.86-1.64-2.74-3.4-5.72l-1-1.66a2,2,0,0,1-.38-1,1.09,1.09,0,0,1,.41-.83c.12-.1.29-.23.51-.38l1.4-.92a1.68,1.68,0,0,1,.75-.24,1.43,1.43,0,0,1,1.18.77l.7,1.23c1,1.8,1.69,2.9,2.1,3.57L87,4.85c.35-.92.63-1.67.86-2.2a1.49,1.49,0,0,1,1.37-.95,1.43,1.43,0,0,1,.48.07l2.14.47a.94.94,0,0,1,.87.95,1.07,1.07,0,0,1-.14.52c-.14.32-1.22,3.08-3.19,8.18S86.28,20.05,85.93,21a3.29,3.29,0,0,1-.52,1.07,1.09,1.09,0,0,1-1,.47Z"/><path class="cls-2" d="M82.18,2.28c.18,0,.36.14.55.42l.66,1.19q2.77,4.77,2.89,4.77A6.41,6.41,0,0,0,87,7.12l.78-2c.34-.93.63-1.66.85-2.18a.73.73,0,0,1,.67-.49.78.78,0,0,1,.24,0L91.72,3Q92,3,92,3.19a.46.46,0,0,1-.06.18q-.24.56-3.22,8.25t-3.49,9.16a2.76,2.76,0,0,1-.43.88.39.39,0,0,1-.36.15l-.79-.15-1.43-.3c-.24-.06-.37-.29-.37-.67a.64.64,0,0,1,0-.27l2.85-8.21q-.62-1-3.58-6l-1-1.67a1.65,1.65,0,0,1-.27-.64A.38.38,0,0,1,80,3.63a3.18,3.18,0,0,1,.43-.32l1.39-.91a1,1,0,0,1,.34-.12m0-1.52a2.25,2.25,0,0,0-1,.28l-.08,0-.08,0L79.62,2A5.55,5.55,0,0,0,79,2.5a1.88,1.88,0,0,0-.65,1.39,2.77,2.77,0,0,0,.49,1.42l1,1.67c1.57,2.65,2.63,4.44,3.22,5.41l-2.62,7.53a2.27,2.27,0,0,0-.11.77,2,2,0,0,0,1.51,2.14c.27.07.78.18,1.5.32l.8.15.14,0h.15a1.89,1.89,0,0,0,1.62-.82,4.4,4.4,0,0,0,.62-1.27c.25-.72,1.07-2.9,3.46-9.07S93.18,4.31,93.31,4a1.94,1.94,0,0,0,.2-.82A1.72,1.72,0,0,0,92,1.48L89.87,1a2.37,2.37,0,0,0-.61-.08,2.25,2.25,0,0,0-2,1.33l0,0,0,0c-.23.54-.52,1.28-.88,2.26L86,5.37c-.35-.59-.78-1.32-1.31-2.24L84.05,2l0,0,0,0A2.12,2.12,0,0,0,82.18.76Z"/><path class="cls-1" d="M98.58,23.24a6.05,6.05,0,0,1-2.88-.71,5.4,5.4,0,0,1-2.17-2.24,7.52,7.52,0,0,1-.81-3.67V7.05a8.69,8.69,0,0,1,1.1-4.12C94.6,1.49,96.12.76,98.31.76s3.72.66,4.52,2a7.29,7.29,0,0,1,1.1,3.86c0,.26,0,.45,0,.56v.11a1.54,1.54,0,0,1-.23.88,1.47,1.47,0,0,1-1.29.52l-1.35,0a1.77,1.77,0,0,1-1.14-.27,1.65,1.65,0,0,1-.5-.93c0-.13-.06-.42-.1-.9A5,5,0,0,0,99,5.42c-.07-.18-.13-.23-.32-.23-.64,0-.83.24-.94.47A3.66,3.66,0,0,0,97.4,7.2c0,.78,0,3.71,0,9a4.09,4.09,0,0,0,.32,2,.74.74,0,0,0,.71.34c.33,0,.7-.06.89-.83a10.65,10.65,0,0,0,.3-2.8v-.42a4.67,4.67,0,0,1,0-.57,1.09,1.09,0,0,1,.29-.65,1.07,1.07,0,0,1,.8-.38c.19,0,.61,0,1.19,0h1.15a1.15,1.15,0,0,1,1.06,1,12.48,12.48,0,0,1,.12,1.76v1.06a7.89,7.89,0,0,1-.54,2.63A7.1,7.1,0,0,1,101.9,22,4.68,4.68,0,0,1,98.58,23.24Z"/><path class="cls-2" d="M98.31,1.52c1.92,0,3.22.54,3.87,1.61a6.49,6.49,0,0,1,1,3.46c0,.23,0,.38,0,.47s0,.15,0,.17a.86.86,0,0,1-.11.5c-.07.11-.28.17-.65.17l-1.37,0a1.24,1.24,0,0,1-.65-.11.89.89,0,0,1-.23-.5c0-.1,0-.37-.09-.8a5.24,5.24,0,0,0-.33-1.37,1,1,0,0,0-1-.71,1.6,1.6,0,0,0-1.63.91,4.48,4.48,0,0,0-.41,1.85q0,1.16,0,9a4.85,4.85,0,0,0,.44,2.43,1.47,1.47,0,0,0,1.35.7A1.6,1.6,0,0,0,100,17.91a11.62,11.62,0,0,0,.32-3v-.41a3.53,3.53,0,0,1,0-.5.33.33,0,0,1,.1-.22.31.31,0,0,1,.23-.12c.24,0,.64,0,1.19,0h1.15a.31.31,0,0,1,.2.11.27.27,0,0,1,.1.19,11.22,11.22,0,0,1,.13,1.68v1.06a6.94,6.94,0,0,1-.51,2.37,6.16,6.16,0,0,1-1.59,2.4,3.9,3.9,0,0,1-2.8,1,5.28,5.28,0,0,1-2.52-.62,4.71,4.71,0,0,1-1.87-1.93,6.93,6.93,0,0,1-.71-3.31V7.05a7.91,7.91,0,0,1,1-3.75c.65-1.19,1.93-1.78,3.83-1.78m0-1.52c-3.1,0-4.52,1.4-5.16,2.57A9.39,9.39,0,0,0,92,7v9.59a8.32,8.32,0,0,0,.9,4,6.2,6.2,0,0,0,2.48,2.54,6.79,6.79,0,0,0,3.24.8,5.41,5.41,0,0,0,3.84-1.45,7.68,7.68,0,0,0,2-3,8.4,8.4,0,0,0,.59-2.89V15.62a12.3,12.3,0,0,0-.13-1.85,1.81,1.81,0,0,0-.54-1.1,1.79,1.79,0,0,0-1.27-.55H101.9c-.57,0-1,0-1.27,0a1.83,1.83,0,0,0-1.29.64,1.88,1.88,0,0,0-.48,1.06,6.52,6.52,0,0,0,0,.66v.41a10.56,10.56,0,0,1-.28,2.63,1.05,1.05,0,0,1-.09.25h-.13a4,4,0,0,1-.2-1.61c0-5.2,0-8.21,0-9A2.9,2.9,0,0,1,98.41,6a3.56,3.56,0,0,1,.12.62c.06.61.09.83.12,1A2.25,2.25,0,0,0,99.43,9a2.45,2.45,0,0,0,1.58.43l1.41,0h0a2.16,2.16,0,0,0,1.88-.87,2.39,2.39,0,0,0,.34-1.26V7.23c0-.16,0-.36,0-.64a8.05,8.05,0,0,0-1.21-4.25C102.53.79,100.79,0,98.31,0Z"/><path class="cls-1" d="M109.08,22.42a1.34,1.34,0,0,1-1.29-1.29v-.84a7.64,7.64,0,0,0,0-.8,2.52,2.52,0,0,1,0-.9,1,1,0,0,1,.77-.71c.12,0,.38-.05.77-.08h.07l.73,0h.18a4.09,4.09,0,0,0,.63,0l.25,0A1.16,1.16,0,0,1,112,18a1.33,1.33,0,0,1,.4.94c0,.4,0,.64,0,.81l0,.93a2,2,0,0,1-.29,1.14,1.22,1.22,0,0,1-1.05.56l-.5,0q-.41,0-1,0Zm-.2-6.08a1,1,0,0,1-1-.63,1.79,1.79,0,0,1-.16-.76c0-6.73,0-10.64,0-11.95a1.3,1.3,0,0,1,1.4-1.36l.72,0,1.19,0A1.19,1.19,0,0,1,112.28,3l0,9.81v2.13a1.75,1.75,0,0,1-.15.76,1.24,1.24,0,0,1-.44.51,1,1,0,0,1-.5.15Z"/><path class="cls-2" d="M109.91,2.38h.41l.78,0c.28,0,.42.19.42.58l0,9.81v2.13a1,1,0,0,1-.07.42.49.49,0,0,1-.15.2l-.11.05h-2.34a.29.29,0,0,1-.27-.2,1,1,0,0,1-.09-.44q0-10,0-11.94c0-.41.21-.61.64-.61l.72,0m1.3,16.14a.44.44,0,0,1,.27.07.69.69,0,0,1,.14.43c0,.36,0,.64,0,.82l0,.88a1.16,1.16,0,0,1-.16.68.48.48,0,0,1-.42.23l-.56,0c-.26,0-.55,0-.9,0l-.51,0a.57.57,0,0,1-.58-.58v-.79c0-.4,0-.69,0-.88a2.12,2.12,0,0,1,0-.6.24.24,0,0,1,.2-.19,6.25,6.25,0,0,1,.67-.06l.73,0h.2a5.62,5.62,0,0,0,.74,0h.14M109.91.86l-.78,0A2,2,0,0,0,107,3c0,1.29,0,5.2,0,11.94a2.57,2.57,0,0,0,.23,1.07,1.8,1.8,0,0,0,1.46,1.07l-.26,0a1.74,1.74,0,0,0-1.35,1.25,3.08,3.08,0,0,0-.08,1.13v.07c0,.06,0,.25,0,.71v.88a2.07,2.07,0,0,0,1.93,2H109l.51,0h.09c.39,0,.72,0,1,0l.44,0a2,2,0,0,0,1.69-.91,2.65,2.65,0,0,0,.41-1.52v0l0-.88v-.12a5.4,5.4,0,0,1,0-.65v-.14a2.1,2.1,0,0,0-.66-1.44,1.77,1.77,0,0,0-.83-.39,2.19,2.19,0,0,0,.46-.2,2,2,0,0,0,.74-.83,2.41,2.41,0,0,0,.23-1.1V12.79L113,3A2,2,0,0,0,111.1.88h-1.19Z"/></svg>