<svg id="Capa_1" data-name="Capa 1" xmlns="http://www.w3.org/2000/svg" viewBox="0 0 12.01 20"><defs><style>.cls-1{fill:#fff;}</style></defs><title>Одноклассники</title><path class="cls-1" d="M5,14.09A7.83,7.83,0,0,1,.87,12.61c-.14-.12-.3-.23-.43-.36a1.16,1.16,0,0,1-.16-1.67,1.18,1.18,0,0,1,1.56-.36,2.5,2.5,0,0,1,.35.21,6.81,6.81,0,0,0,7.53.07,2,2,0,0,1,.73-.38,1.14,1.14,0,0,1,1.32.52,1.11,1.11,0,0,1-.08,1.47A6,6,0,0,1,9.5,13.53,10.89,10.89,0,0,1,7,14.09l.26.28,3.46,3.47A1.16,1.16,0,0,1,11,19.19a1.39,1.39,0,0,1-1.28.8,1.28,1.28,0,0,1-.81-.42C8,18.7,7.15,17.84,6.3,17c-.25-.26-.36-.21-.58,0-.88.9-1.77,1.79-2.66,2.67a1.1,1.1,0,0,1-1.34.24,1.36,1.36,0,0,1-.79-1.25,1.28,1.28,0,0,1,.42-.84l3.42-3.42Z"/><path class="cls-1" d="M6,10.12a5.06,5.06,0,1,1,5.1-5A5.06,5.06,0,0,1,6,10.12ZM8.48,5.06A2.48,2.48,0,1,0,6,7.54,2.46,2.46,0,0,0,8.48,5.06Z"/></svg>