<?xml version="1.0" encoding="utf-8"?><svg viewBox="0 0 39.76 30.78" xmlns="http://www.w3.org/2000/svg" xmlns:xlink="http://www.w3.org/1999/xlink"><style>:root>svg{display:none}:root>svg:target{display:block}</style><svg viewBox="0 0 22.82 30" id="DlyaKogo" xmlns="http://www.w3.org/2000/svg"><path d="M16.41 0v1.46h3.92l-4 4.05A7.12 7.12 0 006.76 6a7 7 0 00-1.69 2.72 7.11 7.11 0 001.32 13.89v1.95H3.6V26h2.79v4h1.46v-4h2.79v-1.44H7.85v-1.95a7.1 7.1 0 006-4.76 7.11 7.11 0 003.47-11.31l4-4v3.88h1.46V0zM7.12 21.19a5.65 5.65 0 01-2.41-10.76 7.1 7.1 0 007.08 7.72h.35a5.66 5.66 0 01-5.02 3.04zm5.55-4.59A5.63 5.63 0 016.24 10a6.4 6.4 0 01.88-.07 5.65 5.65 0 015.65 5.65 5.39 5.39 0 01-.1 1.02zm3.12-1.6a5.59 5.59 0 01-1.58 1.09v-.59a7.14 7.14 0 00-7.09-7.09H6.8a5.57 5.57 0 011-1.4 5.66 5.66 0 018 8z"/></svg><svg viewBox="0 0 33.07 30" id="Figuri" xmlns="http://www.w3.org/2000/svg"><path d="M33.07 10.92l-1-1-.86.88a2.69 2.69 0 00-1.33-.4 2.73 2.73 0 00-2 .74l-3.51 3.28h-10l-2.19-3.9a3.15 3.15 0 00.72-2v-.34a3.15 3.15 0 00-.42-1.55v-3.7a2.93 2.93 0 00-5.86 0V5H4.47a3.15 3.15 0 00-3.09 2.63H0v1.43h1.38a3.15 3.15 0 003.09 2.59h2.75l2.07 3.68a4.24 4.24 0 00-1.67 3.36v.47a4.27 4.27 0 001.86 3.52L8.14 26.3a2.76 2.76 0 001.63 3.53 2.84 2.84 0 001 .17 2.75 2.75 0 002.58-1.8l1.76-4.77h8.53l2.29 5a2.74 2.74 0 001.54 1.43 2.85 2.85 0 001 .17 2.66 2.66 0 001.14-.25 2.76 2.76 0 001.35-3.65l-2-4.4a4.25 4.25 0 00.86-2.54v-.47a4.37 4.37 0 00-.32-1.62l2.27-1.92a2.73 2.73 0 00.87-1.92 2.84 2.84 0 00-.34-1.4zm-25-8a1.5 1.5 0 113 0v2.4A3.08 3.08 0 009.83 5H8.12zm-3.6 7.3A1.72 1.72 0 012.76 8.5v-.32a1.72 1.72 0 011.71-1.71h5.36a1.72 1.72 0 011.72 1.71v.32a1.72 1.72 0 01-1.72 1.72zm4.39 1.43h1a3 3 0 001.27-.28l1.72 3.05h-.93a4.24 4.24 0 00-1.34.24zM12 27.71a1.32 1.32 0 11-2.48-.92l1.31-3.52a4.36 4.36 0 001.1.16h1.65zM11.89 22a2.84 2.84 0 01-2.84-2.84v-.47a2.84 2.84 0 012.84-2.84h13.54a2.84 2.84 0 012.84 2.84v.47A2.84 2.84 0 0125.43 22zm17.68 4.7a1.32 1.32 0 01-1.65 1.79 1.29 1.29 0 01-.74-.69l-2-4.37h.27a4.27 4.27 0 002.32-.69zm1.13-12.62l-2.1 1.78a4.26 4.26 0 00-2.24-1.33l2.51-2.35a1.34 1.34 0 01.95-.36 1.32 1.32 0 01.91.42 1.29 1.29 0 01.36.95 1.27 1.27 0 01-.39.89z"/></svg><svg viewBox="0 0 31.39 30.78" id="Folgir" xmlns="http://www.w3.org/2000/svg"><path d="M30.76 7.21A8.62 8.62 0 0026.44 3a9.06 9.06 0 00-3.85-.9 8.08 8.08 0 00-1.2.09A9.83 9.83 0 0017 3.94a1.41 1.41 0 00-.38 1.88l1.74 2.89a1.43 1.43 0 00.91.66 1.63 1.63 0 00.31 0 1.45 1.45 0 00.8-.25A4 4 0 0122 8.48a2.59 2.59 0 01.47-.05 2.06 2.06 0 01.91.21 1.9 1.9 0 011 1 1.22 1.22 0 01-.06 1.11 1.43 1.43 0 01-.59.58 5.64 5.64 0 01-1.5.57c-.65.15-1.38.29-2.18.42s-1.75.3-2.63.51a16 16 0 00-2.69.87 9.38 9.38 0 00-2.63 1.72c-.11.11-.21.24-.32.35V1.5A1.5 1.5 0 0010.32 0H6.9a1.49 1.49 0 00-1 .42L.46 5.6a1.51 1.51 0 00-.05 2.12l2.31 2.42a1.49 1.49 0 001.09.47 1.51 1.51 0 001-.41L5 10v8.15H1.83a1.5 1.5 0 00-1.5 1.5V23a1.5 1.5 0 001.5 1.5h3.42v2.33a.74.74 0 00.75.77h1.56v2.84h1.5V27.6h1.4a.75.75 0 00.75-.75v-2.33h1.6l-.63 1.38a.78.78 0 000 .58.77.77 0 00.41.42l1.5.64L13 30.22l1.39.56 1.06-2.66 1.23.52a.72.72 0 00.29.06.76.76 0 00.68-.43l1.12-2.38 3.86 1.77a1.42 1.42 0 00.61.13 1.34 1.34 0 00.48-.08 1.43 1.43 0 00.8-.73L25.91 24a1.42 1.42 0 00-.68-1.89L18.55 19l.49-.11c.66-.13 1.37-.25 2.12-.35s1.66-.26 2.51-.44a15.7 15.7 0 002.55-.74 8.18 8.18 0 002.5-1.53 7.78 7.78 0 001.89-2.53 6.94 6.94 0 00.15-6.09zM1.83 19.66h4.7V6.26H6.5a5.24 5.24 0 01-1 1.21L3.81 9.11 1.5 6.68 6.9 1.5h3.42v18.16H15V23H1.83zm7.88 6.44h-3v-1.58h3zm6.89.9l-2.73-1.16.59-1.3H15a1.47 1.47 0 00.56-.11l1.86.85zm8-3.54l-1.38 2.93-6.78-3.06a1.36 1.36 0 000-.29v-3.38a.07.07 0 000-.05zm4.7-10.75a6.23 6.23 0 01-1.54 2.07A6.44 6.44 0 0125.71 16a15 15 0 01-2.33.68c-.83.17-1.63.31-2.41.42s-1.52.22-2.21.36a6.65 6.65 0 00-1.84.64 2.88 2.88 0 00-.76.6 1.48 1.48 0 00-1.16-.54h-3.18v-.1a7.38 7.38 0 011.28-1.63A7.82 7.82 0 0115.32 15a15.06 15.06 0 012.46-.8c.86-.2 1.7-.36 2.53-.49s1.59-.27 2.29-.44a6.5 6.5 0 001.87-.72 2.67 2.67 0 001.17-1.21A2.64 2.64 0 0025.72 9 3.3 3.3 0 0024 7.35 3.48 3.48 0 0022.5 7a4.34 4.34 0 00-.71.06 5.68 5.68 0 00-2.2.91l-1.74-2.88a8.39 8.39 0 013.75-1.53 6.59 6.59 0 011-.07 7.61 7.61 0 013.24.77 7.16 7.16 0 013.62 3.54 5.55 5.55 0 01-.14 4.89z"/></svg><svg viewBox="0 0 33.4 30" id="Oformlenie" xmlns="http://www.w3.org/2000/svg"><path d="M33.39 7.05a.72.72 0 00-.32-.49l-6.5-4.19a.72.72 0 00-.57-.08.7.7 0 00-.44.43L16.7 27.18 7.89 2.72a.7.7 0 00-.44-.43.72.72 0 00-.62.08L.33 6.56a.71.71 0 00-.17 1.05l4.28 5.32-2.62 2.7a.67.67 0 00-.2.52.66.66 0 00.23.5l14.37 13.16h.17a.68.68 0 00.46 0h.17l14.53-13.16a.7.7 0 00.24-.5.72.72 0 00-.21-.52L29 12.93l4.28-5.32a.71.71 0 00.11-.56zm-30 9.05l2.56-2.62a.72.72 0 000-1L1.77 7.33l5.08-3.28 8.2 22.75zm24.1-3.57a.72.72 0 000 1l2.56 2.62-11.7 10.65 8.2-22.75 5.08 3.28z"/><path d="M11.94 7.34a.68.68 0 00.34-.08l3.26-1.73h2.32l3.26 1.73a.68.68 0 00.34.08.7.7 0 00.71-.71V.71a.72.72 0 00-.34-.61.75.75 0 00-.71 0l-3.26 1.72h-2.32L12.28.08a.75.75 0 00-.71 0 .72.72 0 00-.34.61v5.94a.7.7 0 00.71.71zm4.11-3.23v-.88h1.3v.88zm2.73-1.17l2-1v3.5l-2-1zm-6.12-1l2 1V4.4l-2 1z"/></svg><svg viewBox="0 0 34.88 30" id="Personazi" xmlns="http://www.w3.org/2000/svg"><path d="M27.72 30H7.12a.72.72 0 01-.71-.6L3.93 14.13a.71.71 0 011.14-.68l5.73 4.45 6-11a.73.73 0 01.63-.38.73.73 0 01.63.38l6 11 5.73-4.45a.71.71 0 011.14.68l-2.5 15.27a.72.72 0 01-.71.6zm-20-1.43h19.4l2.09-12.88-5 3.85a.72.72 0 01-.58.14.69.69 0 01-.48-.36L17.42 8.69l-5.76 10.63a.71.71 0 01-1.07.22l-5-3.85zm9.7-23.42A2.58 2.58 0 1120 2.58a2.58 2.58 0 01-2.58 2.57zm0-3.72a1.15 1.15 0 101.15 1.15 1.15 1.15 0 00-1.15-1.15zM32.31 13a2.58 2.58 0 112.57-2.58A2.59 2.59 0 0132.31 13zm0-3.73a1.15 1.15 0 101.14 1.15 1.15 1.15 0 00-1.14-1.19zM2.58 13a2.58 2.58 0 112.57-2.58A2.59 2.59 0 012.58 13zm0-3.73a1.15 1.15 0 101.14 1.15 1.15 1.15 0 00-1.14-1.19z"/></svg><svg viewBox="0 0 39.76 30" id="Sobitiya" xmlns="http://www.w3.org/2000/svg"><path d="M39.11 25.35l-4.28-1.11a.81.81 0 00-.31 0l-2.69-7.12.25-.13h.06l.25-.15.29-.19a7.92 7.92 0 001.06-.94l.18-.21.07-.09.14-.17.08-.12a1.71 1.71 0 01.11-.14l.09-.15.08-.12a5.75 5.75 0 00.36-.65v-.08c0-.06 0-.12.08-.17l.09-.22a3.52 3.52 0 00.15-.42v-.08l.06-.2s0-.1.05-.18a7.16 7.16 0 000-3.35A7.33 7.33 0 0035 7.82l-3.39-7A1.43 1.43 0 0029.77.1L20.7 3.53a1.44 1.44 0 00-.82.82 1.41 1.41 0 00-.82-.82L10 .1a1.43 1.43 0 00-1.82.72l-3.39 7a6.58 6.58 0 00-.49 1.37 7.12 7.12 0 000 3.37v.16l.06.2V13c0 .14.09.28.15.42l.22.49a7 7 0 00.36.65l.07.11.09.14a1.71 1.71 0 01.11.14l.08.12.14.17.07.09.18.21H6a7.65 7.65 0 001.08 1l.27.18.25.16h.06l.27.14-2.69 7.22a.65.65 0 00-.31 0L.65 25.35A.87.87 0 00.56 27l7.75 2.93a.86.86 0 001-.27.87.87 0 000-1L6.87 25a.66.66 0 00-.23-.21l2.7-7.12a7.1 7.1 0 004.92-.53 7 7 0 003.59-4.36l2-7.26 2 7.26a7 7 0 003.59 4.36 7.12 7.12 0 004.93.53l2.69 7.12a.66.66 0 00-.23.21l-2.47 3.66a.87.87 0 000 1 .85.85 0 00.68.33.81.81 0 00.31-.06L39.2 27a.87.87 0 00-.09-1.66zM33.79 8.6l-4.65-.43-7.24-.66-.73-2.62 9.11-3.49 3.39 7zm3.35 17.69L32.52 28l1.41-2 .76-.29zM31 16h-.06l-.25.1a5.61 5.61 0 01-7.39-3.73L22.31 9l11.89 1a5.67 5.67 0 01-.2 2.66 1.8 1.8 0 01-.08.21v.07a1.54 1.54 0 00-.08.19v.07l-.12.23v.08l-.09.15v.1l-.09.14-.24.1-.13.19a4.94 4.94 0 01-.36.44l-.21.21a5.27 5.27 0 01-.9.72l-.22.14h-.05l-.19.11h-.06zm1.42.68zM5.83 26l1.41 2-4.62-1.71 2.45-.63zm2.75-10.12l-.19-.11-.24-.14a5.64 5.64 0 01-.9-.73c-.07-.06-.13-.13-.2-.2a5.28 5.28 0 01-.36-.44L6.46 14l-.06-.08-.08-.14-.06-.1-.08-.14v-.09L6 13.23v-.07L5.9 13v-.07a1.8 1.8 0 01-.08-.21A5.62 5.62 0 015.56 10l11.9-1-1 3.42a5.61 5.61 0 01-7.38 3.73L8.86 16H8.8zm10-11l-.73 2.62L6 8.6c0-.06 0-.12.07-.17l3.39-7 9.07 3.43.06.03zM7.4 16.68z"/></svg><svg viewBox="0 0 36.21 30.75" id="Vozdushnie" xmlns="http://www.w3.org/2000/svg"><path d="M36.21 13.55a8.23 8.23 0 00-10.2-8 8.27 8.27 0 00-15.6 0 8 8 0 00-2.13-.28A8.29 8.29 0 000 13.55c0 3.46 2.28 8.26 5.69 10v3.13h2.23v4.09h1.5v-4.11h2.07v-3.5a11.21 11.21 0 003.75-4.43v2.54h2.23v4.09H19v-4.09h2v-2.39a10.37 10.37 0 004.35 4.66v3.12h2.22v4.09h1.5v-4.09h2.08v-3.52c3.07-1.96 5.06-6.36 5.06-9.59zm-18-12A6.79 6.79 0 0125 8.28c0 4-3.29 9.12-6.78 9.12s-6.79-5.14-6.79-9.12a6.79 6.79 0 016.79-6.78zM10 25.16H7.19V24a5.7 5.7 0 001.09.13 5.48 5.48 0 001.72-.25zm-1.72-2.49c-3.49 0-6.78-5.14-6.78-9.12a6.79 6.79 0 016.78-6.78A6.93 6.93 0 0110 7a8.8 8.8 0 00-.11 1.26 12.83 12.83 0 004.3 9.06c-1.08 2.68-3.29 5.35-5.91 5.35zm8.46-2.9v-1.09a5.64 5.64 0 001.48.22 5.83 5.83 0 001.32-.18v1.05zm13 5.39h-2.8v-1.11a5.1 5.1 0 001 .12 5.56 5.56 0 001.76-.3zm-1.76-2.49c-2.56 0-4.78-2.6-5.9-5.2a12.75 12.75 0 004.42-9.19A8.2 8.2 0 0026.38 7a6.71 6.71 0 011.55-.19 6.79 6.79 0 016.78 6.78c0 3.94-3.29 9.08-6.78 9.08z"/></svg><svg viewBox="0 0 17.38 20.5" id="cart" xmlns="http://www.w3.org/2000/svg"><path d="M16.34 4.69h-2.16a5.56 5.56 0 00-11 0H1a1 1 0 00-1 1v13.78a1 1 0 001 1h15.34a1 1 0 001-1V5.72a1 1 0 00-1-1.03zm-11 0a3.5 3.5 0 016.78 0zM4.16 9.88a1 1 0 001-1V6.75h7v2.09a1 1 0 102.06 0V6.75h1.06v11.69H2.06V6.75h1.07v2.09a1 1 0 001.03 1.04z"/></svg><svg viewBox="0 0 20 18" id="catalog" xmlns="http://www.w3.org/2000/svg"><path d="M19 2H1a1 1 0 010-2h18a1 1 0 010 2zm0 7.58H1a1 1 0 010-2h18a1 1 0 010 2zM19 18H1a1 1 0 010-2h18a1 1 0 010 2z"/></svg><svg viewBox="0 0 6 10" id="chev" xmlns="http://www.w3.org/2000/svg"><path d="M6 8.8L4.9 10 0 5l4.9-5L6 1.2 2.3 5z"/></svg><svg viewBox="0 0 13.5 13.5" id="clock" xmlns="http://www.w3.org/2000/svg"><path d="M6.75 13.5a6.75 6.75 0 115.11-2.34 6.76 6.76 0 01-5.11 2.34zm0-12A5.25 5.25 0 1012 6.75 5.25 5.25 0 006.75 1.5z"/><path d="M8.53 9.72A.74.74 0 018 9.5L6.22 7.72A.75.75 0 016 7.19v-3a.75.75 0 011.5 0v2.69l1.56 1.56a.75.75 0 010 1.06.74.74 0 01-.53.22z"/></svg><svg viewBox="0 0 19 19" id="close" xmlns="http://www.w3.org/2000/svg"><path d="M10.91 9.5l7.8-7.79A1 1 0 1017.29.29L9.5 8.09 1.71.29A1 1 0 00.29 1.71l7.8 7.79-7.8 7.79a1 1 0 000 1.42 1 1 0 001.42 0l7.79-7.8 7.79 7.8a1 1 0 001.42 0 1 1 0 000-1.42z"/></svg><svg viewBox="0 0 19 16.5" id="filter" xmlns="http://www.w3.org/2000/svg"><path d="M9.49 15.75v-1.48M3.74 2V.75a.75.75 0 00-1.5 0v1.3A2.93 2.93 0 000 4.86a2.92 2.92 0 002.25 2.81v8.06a.75.75 0 001.5 0v-8a.43.43 0 010-.05A2.94 2.94 0 006 4.86 2.94 2.94 0 003.74 2zM3 6.28a1.46 1.46 0 01-1.5-1.42A1.46 1.46 0 013 3.45a1.46 1.46 0 011.5 1.41A1.46 1.46 0 013 6.28zm7.24 2.79V.75a.75.75 0 00-1.5 0v8.33a2.91 2.91 0 00-2.24 2.81 3 3 0 006 0 2.93 2.93 0 00-2.26-2.82zM9.5 13.3a1.42 1.42 0 111.5-1.41 1.46 1.46 0 01-1.5 1.41zM19 4.86a2.92 2.92 0 00-2.26-2.81V.75a.75.75 0 10-1.5 0v1.3A2.93 2.93 0 0013 4.86a2.93 2.93 0 002.24 2.81v8.08a.75.75 0 101.5 0V7.68A2.94 2.94 0 0019 4.86zm-3 1.42a1.46 1.46 0 01-1.5-1.42 1.5 1.5 0 013 0A1.46 1.46 0 0116 6.28z"/></svg><svg viewBox="0 0 25.33 25.32" id="inst" xmlns="http://www.w3.org/2000/svg"><path d="M19.59 25.32H5.73A5.74 5.74 0 010 19.59V5.74A5.74 5.74 0 015.73 0h13.86a5.75 5.75 0 015.74 5.74v13.85a5.74 5.74 0 01-5.74 5.73zM5.73 2.52a3.22 3.22 0 00-3.21 3.22v13.85a3.22 3.22 0 003.21 3.22h13.86a3.22 3.22 0 003.21-3.22V5.74a3.22 3.22 0 00-3.21-3.22zm6.93 16.76a6.55 6.55 0 116.55-6.54 6.54 6.54 0 01-6.55 6.54zm0-10.57a4 4 0 104 4 4 4 0 00-4-4zm6.8-4.13a1.67 1.67 0 101.66 1.67 1.66 1.66 0 00-1.66-1.67z"/></svg><svg viewBox="0 0 14 2" id="min" xmlns="http://www.w3.org/2000/svg"><path d="M13 2H1a1 1 0 010-2h12a1 1 0 010 2z"/></svg><svg viewBox="0 0 12.01 20" id="ok" xmlns="http://www.w3.org/2000/svg"><path d="M5 14.09a7.83 7.83 0 01-4.13-1.48c-.14-.12-.3-.23-.43-.36a1.16 1.16 0 01-.16-1.67 1.18 1.18 0 011.56-.36 2.5 2.5 0 01.35.21 6.81 6.81 0 007.53.07 2 2 0 01.73-.38 1.14 1.14 0 011.32.52 1.11 1.11 0 01-.08 1.47 6 6 0 01-2.19 1.42 10.89 10.89 0 01-2.5.56l.26.28 3.46 3.47a1.16 1.16 0 01.28 1.35 1.39 1.39 0 01-1.28.8 1.28 1.28 0 01-.81-.42C8 18.7 7.15 17.84 6.3 17c-.25-.26-.36-.21-.58 0-.88.9-1.77 1.79-2.66 2.67a1.1 1.1 0 01-1.34.24 1.36 1.36 0 01-.79-1.25 1.28 1.28 0 01.42-.84l3.42-3.42z"/><path d="M6 10.12a5.06 5.06 0 115.1-5 5.06 5.06 0 01-5.1 5zm2.48-5.06A2.48 2.48 0 106 7.54a2.46 2.46 0 002.48-2.48z"/></svg><svg viewBox="0 0 18.36 20" id="personal" xmlns="http://www.w3.org/2000/svg"><path d="M9.18 11.4a5.7 5.7 0 115.7-5.7 5.7 5.7 0 01-5.7 5.7zm0-9.4a3.7 3.7 0 103.7 3.7A3.7 3.7 0 009.18 2z"/><path d="M17.36 20a1 1 0 01-1-1A7.18 7.18 0 002 19a1 1 0 01-2 0 9.18 9.18 0 0118.36 0 1 1 0 01-1 1z"/></svg><svg viewBox="0 0 14 14" id="plus" xmlns="http://www.w3.org/2000/svg"><path d="M13 6H8V1a1 1 0 00-2 0v5H1a1 1 0 000 2h5v5a1 1 0 002 0V8h5a1 1 0 000-2z"/></svg><svg viewBox="0 0 19.62 19" id="search" xmlns="http://www.w3.org/2000/svg"><path d="M19.33 17.29l-5.48-5.47a7.64 7.64 0 10-1.33 1.49l5.39 5.4a1 1 0 001.42 0 1 1 0 000-1.42zM7.58 13.16a5.58 5.58 0 115.58-5.58 5.6 5.6 0 01-5.58 5.58z"/></svg><svg viewBox="0 0 17 17" id="sort" xmlns="http://www.w3.org/2000/svg"><path d="M1 17a1 1 0 01-1-1V1a1 1 0 012 0v15a1 1 0 01-1 1zm7.5 0a1 1 0 01-1-1V4.75a1 1 0 012 0V16a1 1 0 01-1 1zm7.5 0a1 1 0 01-1-1V7.6a1 1 0 012 0V16a1 1 0 01-1 1z"/></svg><svg viewBox="0 0 20 20" id="tel" xmlns="http://www.w3.org/2000/svg"><path d="M17.56 20A17.58 17.58 0 010 2.44 2.45 2.45 0 012.44 0h3.31a2.4 2.4 0 011.73.72 2.41 2.41 0 01.71 1.72 9.19 9.19 0 00.47 2.91 2.45 2.45 0 01-.55 2.43l-1 1.41a9.86 9.86 0 003.75 3.75l1.46-1.1a2.5 2.5 0 012.4-.48 9.25 9.25 0 002.89.45A2.45 2.45 0 0120 14.26v3.3A2.45 2.45 0 0117.56 20zM2.44 2a.44.44 0 00-.44.44A15.58 15.58 0 0017.56 18a.44.44 0 00.44-.44v-3.3a.45.45 0 00-.44-.45 11.05 11.05 0 01-3.56-.56.51.51 0 00-.4.06l-.11.09-2 1.53a1 1 0 01-1.08.08A12.14 12.14 0 015 9.57a1 1 0 01.07-1.07l1.48-2 .09-.1a.44.44 0 00.11-.4 11.23 11.23 0 01-.56-3.52.44.44 0 00-.44-.48z"/></svg><svg viewBox="0 0 25.67 26.53" id="viber" xmlns="http://www.w3.org/2000/svg"><path d="M23.69 19.3c1.09.87 2.46 1.59 1.81 3.43s-3 3.82-5 3.8a8.45 8.45 0 01-1.33-.38A33.74 33.74 0 01.46 7.35c-1.22-3 0-5.48 3.1-6.51a2.37 2.37 0 011.62 0c1.3.48 4.6 5 4.67 6.37A2.34 2.34 0 018.5 9.29c-1.33.9-1.33 2.05-.77 3.32A12 12 0 0014 18.75a2 2 0 002.72-.64c1.25-1.89 2.78-1.8 4.45-.63.84.59 1.7 1.17 2.49 1.82zM13.88 1.4c6.4 1 9.35 4 10.16 10.47.08.59-.14 1.49.71 1.51s.67-.87.68-1.47A12.16 12.16 0 0014.07 0c-.46.06-1.42-.32-1.48.71 0 .71.77.59 1.29.67zm1.25 1.77c-.61-.08-1.42-.37-1.57.49s.76.8 1.34.93c4 .89 5.33 2.32 6 6.24.09.57-.1 1.46.87 1.31.72-.1.46-.87.52-1.31 0-3.76-3.19-7.19-7.14-7.66zm.37 3.08c-.41 0-.82 0-1 .49-.22.65.26.81.74.89a2.87 2.87 0 012.63 2.83c.05.44.33.79.75.74.59-.07.64-.59.62-1.09a4.25 4.25 0 00-3.74-3.86z"/></svg><svg viewBox="0 0 34.39 20.14" id="vk" xmlns="http://www.w3.org/2000/svg"><path d="M34.14 1.55c-.43-.36-2.08-.35-3.72-.34a21.61 21.61 0 00-3.71.17c-.36.14-1.16 2.06-2.2 4.05-1.17 2.25-2.62 4.41-3.51 4.39-1.19 0-.92-3.71-.85-6.42.05-1.79-.24-2.35-.51-2.53A10.3 10.3 0 0017.25 0s-5.17-.4-5.91 1.85c1 .13 2.68-.18 2 6.76 0 .34-.79 3.2-3.21-.67-.6-1-2.92-6.74-3.72-6.76C3.76 1.14 1.14 1 .2 1.55S1.35 6 4.76 11.34c2.78 4.36 5.72 7.76 10.8 8.66 1 .09 3.45.21 4.22-.17.54-.26-.11-4 1.69-4.39.81-.16 3.9 3.92 5.07 4.39a12.18 12.18 0 003.88.34c1.74-.06 3.7.15 3.89-1 .42-2.6-5.24-6-5.41-7.6-.12-1.15 2.07-3.28 3.21-4.9C33.5 4.65 35 2.28 34.14 1.55z"/></svg><svg viewBox="0 0 29.48 29.71" id="whatsup" xmlns="http://www.w3.org/2000/svg"><path d="M21.8 17.76c-.37-.2-2.15-1.16-2.48-1.3s-.58-.2-.84.16A18.27 18.27 0 0117.25 18c-.22.24-.44.26-.8.07a10.21 10.21 0 01-2.9-1.95 11.3 11.3 0 01-2-2.63.54.54 0 01.19-.75c.17-.16.38-.42.58-.63a2.57 2.57 0 00.39-.6.68.68 0 000-.65c-.08-.19-.75-2-1-2.79s-.6-.64-.81-.64-.46 0-.71-.06a1.36 1.36 0 00-1 .42 4.18 4.18 0 00-1.41 3 7.26 7.26 0 001.36 3.88c.18.25 2.41 4.19 6.11 5.81s3.72 1.13 4.4 1.09A3.75 3.75 0 0022.21 20a3.15 3.15 0 00.28-1.75c-.09-.16-.33-.26-.69-.46zM15 26.52a12 12 0 01-6.63-2L3.75 26l1.5-4.47a12.05 12.05 0 119.76 5zM15 0A14.49 14.49 0 002.61 22L0 29.71l8-2.56A14.48 14.48 0 1015 0z"/></svg></svg>